<svg xmlns="http://www.w3.org/2000/svg" width="150" height="126" shape-rendering="geometricPrecision" image-rendering="optimizeQuality" fill-rule="evenodd" viewBox="0 0 13234 11150"><path d="M11796 0H1438C646 0 0 646 0 1438v8275c0 792 646 1437 1438 1437h10358c792 0 1438-645 1438-1437V1438c0-792-646-1438-1438-1438zm1056 9713c0 586-484 1056-1056 1056H1438c-572 0-1057-470-1057-1056V1438c0-587 485-1057 1057-1057h10358c572 0 1056 470 1056 1057v8275zm-645-7644H1027c-117 0-205 88-205 190 0 118 88 206 205 206h11180c117 0 205-88 205-206 0-102-88-190-205-190zM1438 1423c58 0 103-29 132-59 44-44 59-88 59-132 0-58-15-102-59-146-29-30-74-59-132-59-44 0-103 29-132 59-44 44-59 88-59 146 0 44 15 88 59 132 29 30 88 59 132 59zm1658 0c58 0 102-29 146-59 30-44 44-88 44-132 0-58-14-102-44-146-44-30-88-59-146-59-44 0-103 29-132 59-44 44-59 88-59 146 0 44 15 88 59 132 29 30 88 59 132 59zm-822 0c44 0 88-29 132-59 30-44 59-88 59-132 0-58-29-102-59-146-44-30-88-59-132-59-59 0-103 29-147 59-29 44-58 88-58 146 0 44 29 88 58 132 44 30 88 59 147 59zm2626 2978c-88-73-205-73-278 0L2538 6470c-73 74-73 191 0 279l2084 2069c29 44 88 58 132 58 58 0 102-14 146-58 74-74 74-206 0-279L2964 6602l1936-1922c74-73 74-191 0-279zm3712 0c-73-73-191-73-279 0-73 88-73 206 0 279l1937 1922-1937 1937c-73 73-73 205 0 279 44 44 88 58 147 58 44 0 103-14 132-58l2084-2069c73-88 73-205 0-279L8612 4401zm-1100-249c-103-29-220 15-250 117L5605 8818c-30 102 29 220 117 249 29 15 44 15 73 15 74 0 147-44 176-132l1658-4549c30-102-29-205-117-249z"/></svg>