<svg xmlns="http://www.w3.org/2000/svg" width="150" height="145" shape-rendering="geometricPrecision" image-rendering="optimizeQuality" fill-rule="evenodd" viewBox="0 0 9697 9375"><path d="M3698 6020h-129l86-96c237-226 237-602 0-828-226-237-602-237-828 0l-96 86v-129c0-323-258-581-592-581-322 0-591 258-591 581v129l-86-86c-226-237-602-237-838 0-226 226-226 602 0 828l96 96H591c-322 0-591 269-591 592 0 322 269 591 591 591h129l-96 86c-226 237-226 602 0 838h10c226 226 602 226 828 0l86-96v129c0 333 269 591 591 591 334 0 592-258 592-591v-129l96 96c226 226 602 226 828 0 237-236 237-601 0-838l-86-86h129c323 0 592-269 592-591 0-323-269-592-592-592zm0 796h-344c-86 0-161 54-183 129-21 54-43 107-64 150-43 76-22 162 32 226l247 247c76 76 76 205 0 280-75 86-204 86-290 0l-247-237c-54-64-140-75-215-43-54 33-108 54-151 65-86 32-139 97-139 183v344c0 118-86 204-205 204-107 0-204-86-204-204v-344c0-86-54-151-129-183-54-11-97-32-150-65-22-10-54-21-86-21-54 0-97 21-140 64l-237 237c-86 86-215 86-290 0-86-75-86-204 0-280l247-247c54-64 65-150 33-226-22-43-43-96-65-150-21-75-97-129-183-129H591c-118 0-204-97-204-204 0-119 86-205 204-205h344c86 0 162-53 183-129 22-53 43-107 65-150 32-75 21-172-33-226l-247-247c-86-75-86-204 0-290 75-76 204-76 290 0l237 247c64 54 150 75 226 32 53-21 96-43 150-54 75-32 129-107 129-193v-344c0-108 97-204 204-204 119 0 205 96 205 204v344c0 86 53 161 139 193 43 11 97 33 151 54 64 43 161 22 215-32l247-247c86-76 215-76 290 0 76 86 76 215 0 290l-247 247c-54 54-75 151-32 226 21 43 43 97 64 150 22 76 97 129 183 129h344c108 0 205 86 205 205 0 107-97 204-205 204zm4386-1838c-107 0-193-86-193-194V2569c0-86-75-161-161-161h-355c-108 0-194-86-194-193 0-108 86-194 194-194h355c301 0 548 247 548 548v2215c0 108-86 194-194 194zm-5945 989c-344 0-634 290-634 645 0 354 290 634 634 634 355 0 645-280 645-634 0-355-290-645-645-645zm0 892c-139 0-247-108-247-247 0-140 108-258 247-258 140 0 258 118 258 258 0 139-118 247-258 247zM6386 0H5160c-107 0-193 86-193 193v8128c0 108 86 194 193 194h1226c107 0 193-86 193-194V193c0-107-86-193-193-193zm-194 8127h-838v-967h258c107 0 193-86 193-194 0-107-86-193-193-193h-258v-968h258c107 0 193-86 193-193 0-108-86-194-193-194h-258v-956h258c107 0 193-86 193-194 0-107-86-193-193-193h-258v-968h258c107 0 193-97 193-194 0-107-86-193-193-193h-258v-978h258c107 0 193-86 193-194 0-107-86-193-193-193h-258V387h838v7740zM9697 785v6945c0 107-86 193-193 193H8386c-108 0-194-86-194-193 0-108 86-194 194-194h924V978H7289c-108 0-194-86-194-193 0-108 86-194 194-194h2215c107 0 193 86 193 194zM7568 9149v32c0 108-85 194-193 194s-194-86-194-194v-32c0-108 86-194 194-194s193 86 193 194zm0-6225v5591c0 107-85 193-193 193s-194-86-194-193V2924c0-107 86-193 194-193s193 86 193 193zM4333 591H2612c-43 11-75 22-107 43v11h0c-11 0-1752 1742-1752 1742-33 32-54 75-54 129v1612c0 108 86 194 193 194 108 0 194-86 194-194V2709h1537c108 0 194-86 194-193V978h1516c107 0 193-86 193-193 0-108-86-194-193-194zM2430 2322H1365l1065-1064v1064z"/></svg>