<svg xmlns="http://www.w3.org/2000/svg" width="158" height="125" shape-rendering="geometricPrecision" image-rendering="optimizeQuality" fill-rule="evenodd" viewBox="0 0 22770 18049" fill="none" stroke="#000" stroke-width="1152.84"><path d="M14083 577c1636 0 2976 1340 2976 2998s-1340 2999-2976 2999c-1658 0-2975-1341-2975-2999s1317-2998 2975-2998zM7269 755c1635 0 2976 1340 2976 2998 0 1659-1341 2999-2976 2999-1659 0-2999-1340-2999-2999 0-1658 1340-2998 2999-2998zM3838 7659h14289v2135h659l3407-3407v11085l-3407-3407h-659v3407H3838zM577 8091h1703v4247H577z"/></svg>