<svg xmlns="http://www.w3.org/2000/svg" width="150" height="95" shape-rendering="geometricPrecision" image-rendering="optimizeQuality" fill-rule="evenodd" viewBox="0 0 9697 6149"><path d="M9149 0H548C247 0 0 247 0 559v5031c0 312 247 559 548 559h8601c301 0 548-247 548-559V559c0-312-247-559-548-559zM6053 1161c0-75 64-140 139-140h559c76 0 140 65 140 140v548c0 76-64 140-140 140h-559c-75 0-139-64-139-140v-548zm-678 1494h559c76 0 140 65 140 140v538c0 75-64 139-140 139h-559c-75 0-139-64-139-139v-538c0-75 64-140 139-140zm-935-1494c0-75 54-140 129-140h559c75 0 129 65 129 140v548c0 76-54 140-129 140h-559c-75 0-129-64-129-140v-548h0zm-688 1494h559c75 0 140 65 140 140v538c0 75-65 139-140 139h-559c-75 0-140-64-140-139v-538c0-75 65-140 140-140zm-946-1494c0-75 64-140 140-140h559c75 0 140 65 140 140v548c0 76-65 140-140 140h-559c-76 0-140-64-140-140v-548zm-1645 0c0-75 65-140 140-140h559c75 0 140 65 140 140v548c0 76-65 140-140 140h-559c-75 0-140-64-140-140v-548zm839 3827c0 76-65 140-140 140h-559c-75 0-140-64-140-140v-548c0-75 65-140 140-140h559c75 0 140 65 140 140v548zm677-1516h-570c-75 0-129-64-129-139v-538c0-75 54-140 129-140h570c75 0 129 65 129 140v538c0 75-54 139-129 139zm4214 1516c0 76-64 140-140 140h-161-398-1064-548-1634c-76 0-140-64-140-140v-548c0-75 64-140 140-140h1634 548 1064 398 161c76 0 140 65 140 140v548zm677-1516h-559c-75 0-139-64-139-139v-538c0-75 64-140 139-140h559c76 0 140 65 140 140v538c0 75-64 139-140 139zm968 1516c0 76-64 140-140 140h-559c-75 0-139-64-139-140v-548c0-75 64-140 139-140h559c76 0 140 65 140 140v548zm0-3279c0 76-64 140-140 140h-559c-75 0-139-64-139-140v-548c0-75 64-140 139-140h559c76 0 140 65 140 140v548z"/></svg>