<svg xmlns="http://www.w3.org/2000/svg" width="150" height="100" shape-rendering="geometricPrecision" image-rendering="optimizeQuality" fill-rule="evenodd" viewBox="0 0 48909 32642"><path d="M48638 20604h0L45222 5693C44137 2386 41101 0 37468 0c-2657 0-4989 1301-6453 3307H17894C16430 1301 14098 0 11441 0 7808 0 4772 2386 3687 5693L271 20604h0C108 21310 0 22068 0 22828c0 5422 4392 9814 9814 9814 4230 0 7863-2765 9218-6561h10844c1356 3796 4989 6561 9219 6561 5422 0 9814-4392 9814-9814 0-760-108-1518-271-2224zm-33944-4283h-1626v1626c0 868-760 1627-1627 1627-922 0-1627-759-1627-1627v-1626H8134c-868 0-1627-705-1627-1626 0-868 759-1627 1627-1627h1680v-1627c0-867 705-1627 1627-1627 867 0 1627 760 1627 1627v1627h1626c922 0 1627 759 1627 1627 0 921-705 1626-1627 1626zm21147 1626c-867 0-1626-759-1626-1626s759-1626 1626-1626c922 0 1627 759 1627 1626s-705 1626-1627 1626zm0-4879c-867 0-1626-705-1626-1627 0-867 759-1627 1626-1627 922 0 1627 760 1627 1627 0 922-705 1627-1627 1627zm4934 4879c-922 0-1680-759-1680-1626s758-1626 1680-1626c868 0 1627 759 1627 1626s-759 1626-1627 1626zm0-4879c-922 0-1680-705-1680-1627 0-867 758-1627 1680-1627 868 0 1627 760 1627 1627 0 922-759 1627-1627 1627z"/></svg>