<svg xmlns="http://www.w3.org/2000/svg" width="150" height="150" shape-rendering="geometricPrecision" image-rendering="optimizeQuality" fill-rule="evenodd" viewBox="0 0 13234 13234"><path d="M2568 2142v-866C2568 572 1995 0 1276 0 572 0 0 572 0 1276v8114c0 704 572 1276 1276 1276h9390v1717c0 469 382 851 866 851 469 0 851-382 851-851v-1717h851V2142H2568zm-1292 8099c-469 0-851-382-851-851 0-470 382-851 851-851 470 0 866 381 866 851 0 469-396 851-866 851zm866-1805c-235-205-528-337-866-337-322 0-616 132-851 337V1276c0-469 382-851 851-851 470 0 866 382 866 851v7160zm9815 3947c0 235-190 425-425 425-250 0-440-190-440-425v-426h865v426zm0-851h-865v-440h865v440zm0-866h-865V4489h865v6177zm-821-6602l396-660 381 660h-777zm1672 6177h-425V4005l-851-1423-866 1423v6236H2230c206-220 338-528 338-851V2568h10240v7673zM3639 7468c352 0 630-294 630-646 0-264-176-484-410-587 88-616 616-1100 1276-1100 499 0 939 293 1159 734-191 117-308 308-308 542 0 309 235 573 558 617 234 645 865 1071 1555 1071 895 0 1614-660 1702-1512 264-87 440-322 440-601 0-352-279-645-646-645-352 0-631 293-631 645 0 264 176 499 411 601-88 602-616 1086-1276 1086-499 0-939-293-1159-733 190-118 308-308 308-529 0-322-235-586-558-630-235-646-865-1086-1555-1086-895 0-1614 675-1702 1540-264 88-440 323-440 587 0 352 279 646 646 646zm5956-1702c118 0 220 103 220 220s-102 205-220 205c-117 0-205-88-205-205s88-220 205-220zm-2978 425c117 0 205 103 205 220 0 118-88 206-205 206s-206-88-206-206c0-117 89-220 206-220zm-2978 426c117 0 205 88 205 205 0 118-88 220-205 220-118 0-221-102-221-220 0-117 103-205 221-205zm2772 1056v426h411v-426zm0 866v425h411v-425zm0 851v425h411v-425zm0-6397v425h411v-425zm0 851v425h411v-425zm0 851v440h411v-440z"/></svg>