<svg width="0" height="0" class="hidden" xmlns="http://www.w3.org/2000/svg" shape-rendering="geometricPrecision" image-rendering="optimizeQuality" fill-rule="evenodd">
  <symbol viewBox="0 0 3996 4533" id="css">
    <path fill="#0070ba" d="M1999 4533v-1l1631-449L3996 0H0l366 4083 1630 449v1l2-1 1 1z"></path>
    <path fill="#29a8e0" d="M1999 4187v-1l1382-380 310-3460H1996v3840h1v1l1-1z"></path>
    <path d="M781 1332h1215V835H736zm1215 996v-498h-774-397l45 498h397z" fill="#eaeaea"></path>
    <path fill="#fff" d="M2668 3012l-669 184v1h-1-1v-1h-1v501h1v1l1-1 1 1v-1l1030-283 97-1086 45-498 44-498 45-497H1996v497 4h822l-44 494h-778v498h733z"></path>
    <path fill="#eaeaea" d="M1996 3697v-501l-668-184-39-436H892l75 838z"></path>
  </symbol>
  <symbol viewBox="0 0 3595 4077" id="html">
    <path fill="#e44d26" d="M1799 4077h0l1467-404L3595 0H0l329 3673 1467 404h0 1 2z"></path>
    <path fill="#ef6429" d="M1798 3766h0l1243-342 279-3113H1796v3455h0 0 1z"></path>
    <path fill="#eaeaea" d="M1139 2094h657v-448h-697l-40-444h737v-3-448H662l40 448 40 447 40 448z"></path>
    <path fill="#fff" d="M2455 2094l-55 616-602 165v1h-1 0v-1h-1v451h0 0 1 1 0l927-255 87-977 40-448h-357-699v448h659zm437-895l40-448H1796v448h1096z"></path>
    <path fill="#eaeaea" d="M1796 2875l-601-165-36-392H803l67 753 926 255z"></path>
  </symbol>
  <symbol viewBox="0 0 4535 5144" id="javascript">
    <path fill="#63a813" d="M2269 5144v-1l1850-510L4535 0H0l415 4633 1851 510v1l1-1 2 1z"></path>
    <path fill="#8acf17" d="M2269 4751v-1l1568-431 351-3926H2266v4357h0v1h1z"></path>
    <path d="M1097 3874l1169 321v-568l-759-209-44-494h-451zM886 1512h1380V948H835z" fill="#eaeaea"></path>
    <path fill="#fff" d="M3198 1516l-170 1902-760 209v1l-1-1v1-1h-1v568 1h0 1 1 0l1169-322 212-2362 50-564H2266v564 4z"></path>
  </symbol>
  <symbol viewBox="0 0 16450 16977" id="laravel">
    <path fill="#ff2d20" d="M16450 3858v57 3651c0 94-56 189-131 226l-3050 1751v3500c0 95-56 170-131 226l-6362 3671c-19 18-38 18-38 18-19 0-19 0-19 19h-75-75c0-19 0-19-19-19 0 0-19 0-38-18L132 13269c-76-56-132-131-132-226V2108c0-19 0-38 19-56v-38c18 0 18-19 18-38l19-19c19-18 19-18 19-37 19 0 19 0 38-19l19-19h0L3331 37c38-18 76-37 132-37 38 0 94 19 132 37l3181 1845h0c19 0 19 19 37 19 0 19 19 19 19 19 19 19 19 19 19 37 19 0 19 19 19 19 19 19 19 38 19 38 0 19 19 19 19 38v56 6814l2635-1506V3915c0-19 0-38 19-57v-37c18 0 18-19 18-38l19-19c19-18 19-18 19-37 19 0 19 0 38-19l18-19h0l3200-1844c38-19 76-38 132-38 38 0 94 19 132 38l3181 1844c19 0 19 19 37 19 0 19 19 19 19 19 19 19 19 19 19 37 19 0 19 19 19 19 19 19 19 38 19 38 0 19 18 19 18 37zm-527 3558V4385l-1110 640-1544 885v3012l2654-1506h0zm-3181 5458V9844l-1524 866-4310 2484v3049l5834-3369zM546 2579v10295l5835 3369v-3049l-3050-1732h0 0c-19-18-19-18-37-18 0-19-19-19-19-38h0c-19 0-19-19-19-19l-19-19h0c-19-19-19-37-19-37 0-19-18-19-18-38h0v-38-18-7134l-1544-885-1110-639h0zM3463 583L809 2108l2654 1543 2654-1543L3463 583h0zm1374 9543l1544-885V2579l-1111 639-1543 885v6663l1110-640zm8169-7736l-2654 1525 2654 1543 2654-1543-2654-1525zm-264 3520l-1543-885-1129-640v3031l1543 884 1129 622V5910zm-6098 6814l3878-2221 1938-1111-2654-1525-3030 1751-2786 1600 2654 1506z"></path>
  </symbol>
  <symbol viewBox="0 0 204.8 105.765" id="mysql">
    <path d="M0 96.334h6.747V69.7l10.445 23.227c1.232 2.8 2.92 3.806 6.228 3.806s4.93-.995 6.164-3.806L40.03 69.7v26.644h6.748v-26.6c0-2.595-1.04-3.85-3.18-4.498-5.125-1.6-8.564-.216-10.12 3.244l-10.25 22.923L13.3 68.48c-1.492-3.46-4.995-4.844-10.12-3.244C1.038 65.885 0 67.14 0 69.734v26.6zm52.386-21.686h6.745v14.68c-.063.798.256 2.67 3.952 2.727 1.886.03 14.554 0 14.672 0v-17.48h6.76c.03 0-.007 23.834-.006 23.936.037 5.878-7.294 7.155-10.672 7.254H52.533v-4.54l21.342-.001c4.342-.46 3.83-2.617 3.83-3.344v-1.77h-14.34c-6.672-.06-10.92-2.973-10.973-6.323-.005-.3.144-14.995-.004-15.14z" fill="#00618a"></path>
    <path d="M89.716 96.334h19.398c2.27 0 4.477-.475 6.23-1.298 2.92-1.34 4.347-3.157 4.347-5.536v-4.93c0-1.947-1.622-3.763-4.8-4.974-1.687-.65-3.763-.995-5.774-.995h-8.175c-2.724 0-4.022-.822-4.346-2.638-.065-.216-.065-.4-.065-.606v-3.07c0-.173 0-.347.065-.563.324-1.384 1.038-1.774 3.438-2 .195 0 .454-.044.65-.044h19.268v-4.497h-18.944c-2.725 0-4.152.173-5.45.562C91.532 67 89.78 69 89.78 72.46v3.936c0 3.028 3.44 5.623 9.212 6.228.65.043 1.298.086 1.946.086h7.007c.26 0 .52 0 .714.044 2.14.173 3.05.562 3.698 1.34.4.4.52.78.52 1.2v3.936c0 .476-.324 1.082-.973 1.6-.584.52-1.557.865-2.855.952-.26 0-.454.043-.713.043h-18.62v4.498zm72.064-7.828c0 4.628 3.438 7.223 10.38 7.742a29.45 29.45 0 0 0 1.946.086h17.582v-4.498h-17.712c-3.957 0-5.45-.995-5.45-3.374v-23.27h-6.747v23.312zm-37.785.234V72.705c0-4.074 2.86-6.545 8.516-7.325a12.94 12.94 0 0 1 1.821-.13h12.807a13.87 13.87 0 0 1 1.886.13c5.656.78 8.516 3.25 8.516 7.325V88.74c0 3.305-1.215 5.074-4.015 6.227l6.646 6h-7.834l-5.377-4.854-5.413.343h-7.216c-1.235 0-2.535-.174-3.966-.564-4.3-1.17-6.37-3.424-6.37-7.152zm7.283-.4c0 .217.065.433.13.694.4 1.864 2.145 2.904 4.8 2.904h6.13l-5.63-5.083h7.834l4.9 4.433c.905-.482 1.5-1.22 1.7-2.167.065-.216.065-.433.065-.65V73.096c0-.173 0-.4-.065-.607-.4-1.733-2.146-2.73-4.746-2.73H136.22c-3 0-4.94 1.3-4.94 3.337v15.256z" fill="#e48e00"></path>
    <g fill="#00618a">
      <path d="M197.624 57.73c-4.147-.112-7.316.273-10.024 1.415-.77.325-1.997.333-2.123 1.298.423.443.49 1.105.825 1.65.647 1.047 1.74 2.45 2.713 3.184 1.064.803 2.16 1.663 3.303 2.36 2.03 1.238 4.296 1.945 6.25 3.184 1.152.73 2.296 1.65 3.42 2.476.555.408.93 1.042 1.65 1.297v-.118c-.38-.483-.477-1.147-.825-1.65l-1.533-1.533c-1.5-2-3.402-3.737-5.425-5.19-1.613-1.158-5.224-2.722-5.897-4.6l-.118-.118c1.144-.13 2.483-.543 3.54-.825 1.773-.475 3.358-.353 5.19-.825l2.477-.708v-.472c-.926-.95-1.586-2.207-2.595-3.066-2.64-2.25-5.523-4.495-8.49-6.37-1.646-1.04-3.68-1.714-5.425-2.595-.587-.296-1.618-.45-2.005-.944-.916-1.168-1.415-2.65-2.122-4-1.48-2.85-2.934-5.964-4.246-8.963-.895-2.045-1.48-4.062-2.594-5.897-5.355-8.804-11.12-14.118-20.048-19.34-1.9-1.11-4.187-1.55-6.605-2.123l-3.892-.236c-.792-.33-1.616-1.3-2.36-1.77-2.958-1.87-10.545-5.933-12.736-.6-1.383 3.373 2.067 6.664 3.302 8.374.866 1.2 1.976 2.543 2.594 3.892.407.886.478 1.775.826 2.713.857 2.3 1.603 4.823 2.712 6.958.56 1.08 1.178 2.218 1.887 3.184.435.593 1.18.854 1.297 1.77-.728 1.02-.77 2.6-1.18 3.892-1.843 5.812-1.148 13.035 1.533 17.337.823 1.32 2.76 4.152 5.425 3.066 2.33-.95 1.8-3.89 2.477-6.486.15-.59.058-1.02.354-1.415v.118l2.123 4.245c1.57 2.53 4.36 5.175 6.722 6.96 1.225.925 2.2 2.525 3.774 3.066v-.118h-.118c-.307-.48-.787-.677-1.18-1.06-.923-.905-1.95-2.03-2.713-3.066-2.15-2.918-4.048-6.11-5.778-9.435-.826-1.587-1.545-3.338-2.24-4.953-.268-.623-.265-1.564-.825-1.887-.763 1.184-1.887 2.14-2.477 3.538-.944 2.234-1.066 4.958-1.415 7.784-.207.074-.115.023-.236.118-1.642-.396-2.22-2.087-2.83-3.538-1.544-3.67-1.83-9.576-.472-13.798.35-1.092 1.94-4.534 1.297-5.543-.307-1.007-1.32-1.6-1.887-2.36-.7-.95-1.402-2.204-1.887-3.302-1.264-2.86-1.854-6.07-3.184-8.963-.636-1.382-1.71-2.78-2.594-4-.978-1.36-2.073-2.364-2.83-4-.27-.585-.636-1.52-.236-2.123a.93.93 0 0 1 .708-.708c.684-.527 2.59.175 3.302.472 1.89.786 3.47 1.534 5.072 2.595.77.5 1.547 1.496 2.476 1.77h1.06c1.66.382 3.52.12 5.07.59 2.742.833 5.198 2.13 7.43 3.538 6.798 4.292 12.355 10.402 16.157 17.7.612 1.173.876 2.294 1.415 3.538 1.087 2.5 2.456 5.093 3.538 7.547 1.08 2.45 2.13 4.92 3.656 6.958.802 1.07 3.9 1.646 5.307 2.24.987.417 2.603.852 3.538 1.415 1.785 1.077 3.515 2.36 5.19 3.54.837.59 3.41 1.883 3.538 2.948z"></path>
      <path d="M144.91 12.798c-.865-.016-1.476.094-2.123.236v.118h.118c.412.848 1.14 1.393 1.65 2.123l1.18 2.476.118-.118c.73-.515 1.065-1.338 1.06-2.595-.293-.308-.336-.694-.59-1.062-.337-.49-1-.768-1.415-1.18z" fill-rule="evenodd"></path>
    </g>
    <path d="M194.855 91.708c0 2.97 2.347 4.972 4.972 4.972s4.972-2.002 4.972-4.972-2.347-4.972-4.972-4.972-4.972 2.002-4.972 4.972zm8.83 0c0 2.254-1.723 3.938-3.86 3.938-2.16 0-3.86-1.684-3.86-3.938s1.698-3.938 3.86-3.938c2.135 0 3.86 1.684 3.86 3.938zm-2.52 2.838h1.113l-1.63-2.492c.875-.093 1.537-.518 1.537-1.552 0-1.154-.73-1.63-2.134-1.63h-2.215v5.675h.955v-2.453h.888l1.485 2.453zm-2.374-3.25v-1.63h1.1c.57 0 1.26.106 1.26.77 0 .795-.623.862-1.34.862h-1.02z" fill="#e48e00" fill-rule="evenodd"></path>
  </symbol>
  <symbol viewBox="0 0 21794 13103" id="php">
    <ellipse fill="#777bb4" cx="10897" cy="6551" rx="10897" ry="6551"></ellipse>
    <path fill="#fff" fill-rule="nonzero" d="M6499 5204c140-148 316-273 528-374s441-152 686-152 463 53 653 158c191 105 339 255 444 449 105 195 158 422 158 683 0 113-12 231-35 356-59 323-176 612-354 867-176 254-392 453-647 595s-522 213-802 213c-246 0-455-50-628-149s-308-223-405-371l-351 1996h-665l835-4744h665l-82 473zm1757 1120c15-74 23-154 23-240 0-260-77-463-230-609-154-146-347-219-581-219-167 0-334 43-499 128-165 86-308 210-429 374-121 163-200 356-239 578-16 73-24 153-24 239 0 261 77 467 231 618 154 152 345 228 575 228 171 0 339-44 505-131 165-88 308-215 429-383 120-167 200-361 239-583zm3291-1646c323 0 582 91 776 272 195 181 292 438 292 773 0 89-10 198-29 327l-339 1896h-659l321-1797c16-109 23-187 23-234 0-213-59-377-178-490-118-113-283-169-493-169-253 0-466 77-639 231-173 153-283 374-330 662v-12l-321 1809h-665l765-4318h665l-263 1476c136-136 298-241 485-315 186-74 383-111 589-111zm2696 526c140-148 316-273 528-374s441-152 686-152 463 53 654 158c190 105 338 255 443 449 105 195 158 422 158 683 0 113-12 231-35 356-59 323-176 612-353 867-177 254-393 453-648 595s-522 213-803 213c-245 0-454-50-627-149s-308-223-405-371l-351 1996h-665l834-4744h666l-82 473zm1757 1120c15-74 23-154 23-240 0-260-77-463-230-609-154-146-347-219-581-219-167 0-334 43-499 128-166 86-309 210-429 374-121 163-200 356-239 578-16 73-24 153-24 239 0 261 77 467 231 618 153 152 345 228 575 228 171 0 339-44 505-131 165-88 308-215 429-383 120-167 200-361 239-583z"></path>
  </symbol>
  <symbol viewBox="0 0 23473 23473" id="restapi">
    <g fill="#de002a">
      <path d="M13168 18685c-417 0-781-26-1171-130-312-78-599-182-859-312-286-131-572-287-859-495-442-312-884-703-1301-1171-468-599-859-1223-1119-1926-338-859-520-1769-520-2706-26-1379 286-2732 884-3878 443-780 1067-1509 1796-2082 234-182 495-364 729-494 26-26 78-52 104-52 468-234 989-52 1223 416 234 469 26 1041-390 1276-131 78-339 208-521 338-520 416-963 937-1275 1509-468 833-703 1874-676 2941 25 728 155 1405 390 2056 208 494 468 963 833 1379 260 338 598 624 936 859 182 129 365 234 547 338 182 78 338 130 520 182 1041 234 2238-78 3305-885 598-442 1119-1015 1509-1665 521-885 885-1926 1015-2967 52-598 79-1223 26-1926-51-988-182-1848-416-2628-390-1353-989-2498-1847-3409-261-312-547-573-833-781-417-312-495-911-183-1327 313-416 885-494 1302-182 390 286 755 624 1119 1015 1041 1119 1795 2524 2264 4164 260 911 416 1899 468 3018 52 833 52 1562-26 2264-182 1327-598 2629-1275 3722-520 858-1197 1613-2004 2212-1145 885-2446 1327-3695 1327z"></path>
      <path d="M7833 22744c-208 0-391-51-546-181-443-313-807-625-1171-990-1068-1145-1848-2602-2291-4241-260-990-442-2030-494-3175-52-677-26-1354 52-2082 130-1353 546-2654 1145-3695 469-833 1119-1588 1874-2212 546-417 1145-755 1770-963 884-338 1873-443 2810-313 338 52 703 131 1041 261h0c52 26 130 52 208 104h26l130 78c234 104 469 260 677 390 26 0 78 52 78 52 989 703 1743 1640 2264 2733 416 937 650 2004 650 3123 27 1196-208 2315-676 3330-599 1276-1588 2369-2811 3071-442 260-1015 104-1249-364-260-442-104-1015 339-1275 858-495 1587-1302 2003-2212 365-755 521-1640 521-2524-26-859-183-1692-495-2369-364-780-937-1483-1639-1977-157-104-312-209-495-313l-104-52c-52-26-78-52-130-52-208-78-390-104-572-130-677-104-1327-26-1926 182a5962.1 5962.1 0 0 0-1249 703c-573 442-1067 1015-1405 1639-495 859-807 1874-911 2967-78 625-78 1223-52 1796 52 1015 208 1925 416 2784 390 1353 1015 2524 1848 3435 286 261 572 521 911 755 416 312 520 911 208 1327-182 260-469 390-755 390zm3930-16681h0 0z"></path>
    </g>
    <path fill="#583689" d="M11737 23473C5257 23473 0 18217 0 11737S5257 0 11737 0s11737 5257 11737 11737-5257 11736-11737 11736zm0-21600c-5439 0-9864 4425-9864 9864 0 5438 4425 9863 9864 9863 5438 0 9863-4425 9863-9863 0-5439-4425-9864-9863-9864z"></path>
  </symbol>

  <symbol viewBox="0 0 1571 1182" id="about--arrow">
    <path d="M24 671c-15-5-24-17-24-33 0-4 0-7 2-11 10-29 10-43 0-73-5-19 3-38 22-43 18-6 37 3 42 22 14 44 14 72 0 115-5 20-24 28-42 23zm425 481c-48-33-76-91-76-155 0-54 28-117 57-181 35-75 70-150 70-225s-35-150-70-225c-29-64-57-127-57-181 0-65 28-122 76-155 91-63 194-14 284 30l476 231c190 91 298 148 328 190 22 31 34 72 34 110s-12 78-34 110c-30 41-138 99-328 190l-476 231c-90 44-193 93-284 30zm257-91l412-204c14-7 37-17 61-29 82-39 276-131 302-166 14-21 22-47 22-71 0-25-8-51-22-72-26-34-220-127-302-165L706 120c-82-38-159-73-218-33-30 20-47 56-47 98 0 40 26 94 52 153 35 77 75 164 75 253s-40 176-75 252c-26 60-52 114-52 154 0 42 17 78 47 97 59 40 136 6 218-33zM195 861c-28-11-49-33-59-59-5-13-9-25-9-37 0-16 4-30 11-43 52-110 52-152 0-262-13-26-13-54-2-80 10-26 31-49 59-59 56-23 120 2 145 54 78 169 78 263 0 432-25 52-89 77-145 54zm82-82c70-150 70-226 0-376-9-19-35-28-56-19-10 5-19 12-22 20-2 7-4 16 1 27 30 64 46 113 46 160s-16 96-46 160c-5 11-3 19-1 26 3 9 12 16 22 21 21 9 47 0 56-19z"></path>
  </symbol>
  <symbol fill-rule="nonzero" viewBox="0 0 107680 73000" id="about--chart">
    <path d="M11524 0v64004h14520V26793v-276h277 18034 277v276 37211h29640V10718v-277h277 18034 277v277 53286h14820v601H44632h-554-17480-554-14821-300v-301V0h601zm63302 64004h17480V10994H74826v53010zm-48228 0h17480V27071H26598v36933zm-24056 289c0-648 94-1147 281-1497 188-350 532-526 1034-526 498 0 841 176 1028 526 188 350 281 849 281 1497 0 655-93 1160-281 1514-187 354-530 531-1028 531-502 0-846-177-1034-531-187-354-281-859-281-1514zm2377 0c0-375-27-691-81-949-55-259-160-464-315-616-155-151-378-227-666-227s-510 76-666 227c-155 152-260 357-314 616-55 258-81 574-81 949 0 382 26 703 81 963 54 261 159 468 314 621 156 154 378 230 666 230s511-76 666-230c155-153 260-360 315-621 54-260 81-581 81-963zM893 55410c704-487 1260-957 1666-1410 406-454 610-888 610-1304 0-273-73-496-217-668-144-173-379-259-705-259s-575 100-747 298-270 460-292 787H961c26-412 153-733 382-961 228-228 530-343 904-343 341 0 621 95 840 287 219 191 329 475 329 854 0 468-215 940-643 1415-429 476-919 896-1469 1259h2241v213H893v-168zm3298-1832c0-648 94-1147 281-1497s532-525 1034-525c498 0 841 175 1028 525s280 849 280 1497c0 655-93 1160-280 1514s-530 531-1028 531c-502 0-847-177-1034-531s-281-859-281-1514zm2376 0c0-374-27-691-81-949-54-259-159-463-315-615-155-152-377-228-665-228s-511 76-666 228-260 356-315 615c-54 258-81 575-81 949 0 382 27 704 81 964 55 260 160 467 315 621 155 153 378 230 666 230s510-77 665-230c156-154 261-361 315-621s81-582 81-964zM764 43864v-197l2141-2770h286v2748h641v219h-641v1011h-247v-1011H764zm2185-2663l-1887 2444h1887v-2444zm1371 1657c0-648 94-1147 281-1497s532-525 1034-525c498 0 841 175 1028 525s281 849 281 1497c0 655-94 1160-281 1514s-530 531-1028 531c-502 0-847-177-1034-531s-281-859-281-1514zm2377 0c0-374-28-691-82-949-54-259-159-464-314-615-156-152-378-228-666-228-289 0-510 76-666 228-155 151-260 356-314 615-55 258-82 575-82 949 0 382 27 703 82 964 54 260 159 467 314 620 156 154 377 231 666 231 288 0 510-77 666-231 155-153 260-360 314-620 54-261 82-582 82-964zM3169 31174c-42-269-140-478-298-626-157-148-373-222-646-222-386 0-681 143-885 427-204 285-306 745-306 1382l6 219c59-258 204-463 432-615 229-152 495-228 798-228 405 0 721 122 949 366 229 243 343 577 343 1000 0 240-45 459-135 657s-232 358-427 477c-195 121-438 180-730 180-562 0-946-176-1152-531-206-354-309-841-309-1463 0-670 112-1185 335-1545 222-359 583-539 1081-539 348 0 623 96 823 289s321 451 362 772h-241zm-939 557c-190 0-374 39-550 117-176 80-319 198-430 358-110 159-166 353-166 581 0 210 43 406 127 587 84 182 215 328 390 438 177 111 395 166 658 166 322 0 578-97 770-292 190-195 286-463 286-804 0-367-96-650-286-851-192-200-457-300-799-300zm2046 415c0-648 93-1147 281-1497 187-350 532-525 1033-525 499 0 841 175 1029 525 187 350 280 849 280 1497 0 656-93 1160-280 1514-188 355-530 531-1029 531-501 0-846-176-1033-531-188-354-281-858-281-1514zm2376 0c0-374-27-691-81-949-55-258-159-464-315-615-155-152-377-228-666-228-288 0-510 76-666 228-155 151-260 357-314 615s-82 575-82 949c0 383 28 703 82 964 54 260 159 467 314 621 156 153 378 230 666 230 289 0 511-77 666-230 156-154 260-361 315-621 54-261 81-581 81-964zM1677 21328c-262-68-459-184-590-349-131-164-197-363-197-595 0-307 116-556 346-747s550-287 958-287 728 96 958 287 345 440 345 747c0 228-65 426-196 593-131 166-328 283-590 351 281 60 501 180 660 359 159 180 239 405 239 674 0 356-127 638-380 846-252 208-598 312-1036 312s-783-104-1034-312-376-490-376-846c0-269 80-495 239-676 159-182 377-301 654-357zm1573-927c0-266-95-472-286-618s-448-219-770-219-579 72-769 216c-192 144-287 353-287 626 0 259 95 462 287 610 190 148 447 222 769 222s579-75 770-225 286-354 286-612zm-1056 1039c-341 0-621 75-840 225s-328 380-328 691c0 296 105 528 317 697 212 168 495 252 851 252s639-84 848-252c210-169 315-401 315-697 0-307-109-536-326-688s-496-228-837-228zm2107-68c0-647 94-1146 281-1497 187-350 532-525 1034-525 498 0 840 175 1028 525 187 351 281 850 281 1497 0 656-94 1161-281 1515-188 354-530 531-1028 531-502 0-847-177-1034-531s-281-859-281-1515zm2376 0c0-374-27-690-81-949-54-258-159-463-315-615-155-151-377-227-665-227-289 0-511 76-666 227-156 152-261 357-315 615-54 259-81 575-81 949 0 383 27 704 81 964 54 261 159 467 315 621 155 154 377 230 666 230 288 0 510-76 665-230 156-154 261-360 315-621 54-260 81-581 81-964zM0 8959v-230h832v3994H578V8959H0zm1702 1747c0-648 94-1147 281-1497 188-350 532-525 1034-525 498 0 840 175 1028 525 187 350 281 849 281 1497 0 655-94 1160-281 1514-188 354-530 531-1028 531-502 0-846-177-1034-531-187-354-281-859-281-1514zm2377 0c0-375-28-691-82-949-54-259-159-464-314-616-156-151-378-227-666-227-289 0-510 76-666 227-155 152-260 357-315 616-54 258-81 574-81 949 0 382 27 703 81 964 55 260 160 467 315 621 156 153 377 230 666 230 288 0 510-77 666-230 155-154 260-361 314-621 54-261 82-582 82-964zm1005 0c0-648 94-1147 281-1497 188-350 532-525 1034-525 498 0 840 175 1028 525 187 350 281 849 281 1497 0 655-94 1160-281 1514-188 354-530 531-1028 531-502 0-846-177-1034-531-187-354-281-859-281-1514zm2377 0c0-375-28-691-82-949-54-259-159-464-314-616-156-151-378-227-666-227-289 0-510 76-666 227-155 152-260 357-315 616-54 258-81 574-81 949 0 382 27 703 81 964 55 260 160 467 315 621 156 153 377 230 666 230 288 0 510-77 666-230 155-154 260-361 314-621 54-261 82-582 82-964zm13326 59605h-1871l-376 1011h-275l1449-3854h281l1444 3854h-276l-376-1011zm-79-213l-854-2298-859 2298h1713zm1618-1023c86-247 243-449 469-607 227-157 501-235 823-235 285 0 539 63 762 191 222 127 396 308 522 544 125 236 188 512 188 826 0 315-63 591-188 829-126 238-300 421-522 551-223 129-477 193-762 193-318 0-591-79-817-238-227-160-385-361-475-604v2235h-253v-4488h253v803zm2506 719c0-277-53-517-158-719s-252-356-441-463-407-160-654-160c-236 0-449 55-641 165-191 111-340 268-449 472-108 204-163 439-163 705 0 270 55 507 163 711 109 204 258 361 449 472 192 110 405 166 641 166 247 0 465-55 654-163 189-109 336-264 441-467 105-202 158-442 158-719zm1275-719c86-247 242-449 469-607 227-157 501-235 823-235 285 0 539 63 761 191 223 127 397 308 523 544 125 236 188 512 188 826 0 315-63 591-188 829-126 238-300 421-523 551-222 129-476 193-761 193-318 0-591-79-817-238-227-160-385-361-475-604v2235h-253v-4488h253v803zm2506 719c0-277-53-517-158-719s-252-356-441-463-407-160-654-160c-236 0-450 55-640 165-192 111-342 268-450 472-109 204-163 439-163 705 0 270 54 507 163 711 108 204 258 361 450 472 190 110 404 166 640 166 247 0 465-55 654-163 189-109 336-264 441-467 105-202 158-442 158-719zm3769-202c0 135-4 236-11 303h-2635c7 274 68 504 180 691 112 188 260 328 444 422 183 93 384 140 601 140 299 0 550-74 753-222 202-148 329-349 382-604h264c-60 311-214 563-461 756s-560 289-938 289c-285 0-539-63-764-191-225-127-401-310-528-547-127-238-191-517-191-835s63-595 188-831 301-417 525-542c225-126 482-188 770-188 292 0 546 62 761 188 215 125 379 292 491 500 113 207 169 431 169 671zm-253 95c12-269-36-498-143-685s-252-326-435-418c-184-92-382-138-596-138-213 0-411 46-592 138-182 92-330 231-444 418s-176 416-183 685h2393zm860 107c0-314 63-590 188-826s300-417 523-544c223-128 476-191 761-191 322 0 595 78 820 235 225 158 382 358 472 602v-798h252v3050h-252v-803c-90 247-248 450-475 610-226 159-499 238-817 238-285 0-538-64-761-193-223-130-398-313-523-551s-188-514-188-829zm2764 0c0-266-55-501-166-705-110-204-261-361-452-472-191-110-405-165-640-165-248 0-465 53-652 160-188 107-334 261-438 463-105 202-158 442-158 719s53 517 158 719c104 203 251 358 441 467 189 108 405 163 649 163 235 0 450-56 642-166 193-111 344-268 453-472 108-204 163-441 163-711zm1427-893c75-225 208-396 399-514s434-177 730-177v264h-84c-300 0-549 85-748 256-198 170-297 448-297 834v1758h-253v-3050h253v629zm1556 893c0-314 63-590 188-826s300-417 523-544c223-128 476-191 761-191 322 0 595 78 820 235 225 158 382 358 472 602v-798h253v3050h-253v-803c-90 247-248 450-475 610-226 159-499 238-817 238-285 0-538-64-761-193-223-130-398-313-523-551s-188-514-188-829zm2764 0c0-266-55-501-166-705-110-204-261-361-452-472-191-110-405-165-640-165-248 0-465 53-652 160-188 107-333 261-438 463s-157 442-157 719 52 517 157 719c105 203 252 358 441 467 189 108 405 163 649 163 235 0 450-56 643-166 192-111 343-268 452-472s163-441 163-711zm2550-1584c364 0 660 112 888 334 229 223 343 554 343 992v1786h-247v-1769c0-364-92-642-276-834-183-193-432-290-747-290-330 0-593 105-789 315-197 210-295 520-295 932v1646h-253v-3050h253v646c86-228 229-404 430-525 200-122 431-183 693-183zm1967 1584c0-318 62-595 188-831 125-236 299-417 522-542 223-126 479-188 767-188 382 0 696 95 941 286 246 191 398 448 458 770h-264c-49-262-175-468-380-618-203-150-456-225-755-225-225 0-429 50-612 149-184 99-331 251-441 455-111 204-166 452-166 744 0 296 55 545 166 747 110 203 257 355 441 455 183 102 387 152 612 152 299 0 552-75 755-225 205-149 331-355 380-617h264c-60 318-213 575-461 769-247 195-559 292-938 292-288 0-544-63-767-191-223-127-397-310-522-547-126-238-188-517-188-835zm6393-202c0 135-4 236-12 303h-2634c7 274 67 504 179 691 113 188 261 328 444 422 184 93 384 140 601 140 300 0 551-74 753-222s330-349 382-604h264c-60 311-213 563-460 756s-560 289-939 289c-284 0-539-63-764-191-225-127-400-310-528-547-127-238-191-517-191-835s63-595 188-831c126-236 301-417 526-542 225-126 481-188 769-188 292 0 546 62 761 188 216 125 380 292 492 500 112 207 169 431 169 671zm-253 95c11-269-36-498-143-685s-252-326-436-418c-183-92-382-138-595-138-214 0-411 46-593 138s-330 231-444 418-175 416-182 685h2393zm24928-2063v2466c0 446 101 773 304 981 202 208 477 312 825 312 345 0 617-103 815-310 198-205 298-533 298-983v-2466h253v2461c0 513-124 895-371 1146s-579 376-995 376c-415 0-750-126-1003-379-252-253-379-634-379-1143v-2461h253zm3770 1113v2016c0 225 41 379 123 464 83 84 229 126 438 126h343v225h-382c-266 0-461-63-587-189-126-125-188-334-188-626v-2016h-461v-220h461v-775h253v775h904v220h-904zm1701-899c-59 0-110-20-151-59-41-40-62-93-62-161 0-63 21-115 62-157 41-41 92-61 151-61 61 0 111 20 152 61 41 42 62 94 62 157 0 68-21 121-62 161-41 39-91 59-152 59zm124 679v3051h-253v-3051h253zm1180-1106v4157h-253v-4157h253zm1056 427c-60 0-111-20-152-59-41-40-62-93-62-161 0-63 21-115 62-157 41-41 92-61 152-61s110 20 152 61c41 42 61 94 61 157 0 68-20 121-61 161-42 39-92 59-152 59zm123 679v3051h-252v-3051h252zm1304 220v2016c0 225 41 379 124 464 82 84 228 126 438 126h342v225h-382c-265 0-461-63-586-189-126-125-189-334-189-626v-2016h-460v-220h460v-775h253v775h904v220h-904zm3955-220l-1775 4483h-259l567-1432-1280-3051h275l1146 2770 1067-2770h259zM35020 43618l-1573 3786h-259l1596-3770h-2348v-219h2584v203zm595 1769c0-648 94-1147 281-1497 188-350 532-525 1034-525 498 0 841 175 1028 525s281 849 281 1497c0 655-94 1160-281 1514s-530 531-1028 531c-502 0-846-177-1034-531-187-354-281-859-281-1514zm2377 0c0-374-27-691-82-949-54-259-159-464-314-615-156-152-378-228-666-228s-510 76-666 228c-155 151-260 356-314 615-55 258-82 575-82 949 0 383 27 703 82 964 54 260 159 467 314 621 156 153 378 230 666 230s510-77 666-230c155-154 260-361 314-621 55-261 82-581 82-964zm41719-9635v-230h832v3995h-253v-3765h-579zm1703 1748c0-648 93-1148 281-1498 187-350 532-525 1034-525 497 0 840 175 1027 525 188 350 281 850 281 1498 0 655-93 1160-281 1514-187 354-530 531-1027 531-502 0-847-177-1034-531-188-354-281-859-281-1514zm2376 0c0-375-27-691-81-950-55-258-160-463-315-615s-377-227-665-227c-289 0-511 75-666 227-156 152-261 357-315 615-54 259-81 575-81 950 0 382 27 703 81 963 54 261 159 467 315 621 155 154 377 230 666 230 288 0 510-76 665-230s260-360 315-621c54-260 81-581 81-963zm1006 0c0-648 93-1148 281-1498 187-350 532-525 1034-525 498 0 840 175 1027 525 188 350 281 850 281 1498 0 655-93 1160-281 1514-187 354-529 531-1027 531-502 0-847-177-1034-531-188-354-281-859-281-1514zm2376 0c0-375-27-691-81-950-55-258-159-463-315-615-155-152-377-227-665-227-289 0-511 75-666 227-156 152-261 357-315 615-54 259-81 575-81 950 0 382 27 703 81 963 54 261 159 467 315 621 155 154 377 230 666 230 288 0 510-76 665-230 156-154 260-360 315-621 54-260 81-581 81-963z"></path>
  </symbol>
  <symbol viewBox="0 0 6159 6146" id="about--coreldrawx7">
    <path fill="#5faa44" d="M0 0h6159v6146H0z"></path>
    <path fill="#fff" d="M0 1161c219 177 464 457 676 669l662 655 991 977c129 130 143 198 75 300-157 253-328 69-465-75C1646 3400 164 1885 0 1796v1202c137 88 287 266 417 396 150 143 266 266 416 409 260 260 533 560 806 806 137 116 362 198 533 294l512 273c232 123 1522 949 1106 102l-956-1830-1700-1680C949 1584 130 744 0 655v506h0z"></path>
    <g fill="#afd4a1">
      <path d="M5081 3701H3879l164 724h874l164-724zM2042 0h-212c150 539 635 1331 901 1741 376 574 711 942 1168 1427C3291 2397 2247 847 2042 0zm2438 0v3298h-14c-34 0-75-7-130-7-266-1154-594-1946-737-3291h881zM2882 0h-574c178 778 1181 2670 1857 3230C3640 2342 3162 1154 2882 0h0z"></path>
      <path d="M6159 1789c-368 546-696 908-1140 1379 321-403 765-1024 1140-1645v266zM4439 0v3298h13c34 0 75-7 130-7 266-1154 601-1946 744-3291h-887zm1604 0h116v1154c-403 812-969 1721-1406 2076C5279 2342 5756 1154 6043 0h0z"></path>
    </g>
  </symbol>
  <symbol viewBox="0 0 5614 5514" id="about--photosop">
    <path fill="#9ac8fd" d="M0 0h5614v5514H0z"></path>
    <path fill="#080047" d="M448 436h4718v4642H448z"></path>
    <path d="M1357 1556s355-13 647-13c299 0 510 69 647 193 137 118 224 311 224 535s-68 411-193 529c-161 168-348 268-678 281-87 6-174 6-174 6v728h-473V1556zm473 1132c56 7 87 7 162 0 255 0 410-155 410-392 0-205-124-379-373-392h-199v784zm1226 617c93 62 323 149 473 149 162 0 224-56 224-143s-50-174-249-243c-342-118-473-255-473-448 0-317 268-560 678-560 199 0 355 68 455 118v380c-75-38-293-131-436-131-125 0-199 50-199 137 0 81 68 124 274 193 317 106 448 267 454 516 0 318-243 567-728 548-162 0-349-68-473-137v-379z" fill="#9ac8fd"></path>
  </symbol>
  <symbol viewBox="0 0 2873 3410" id="about--profile">
    <path d="M1427 3410c438 0 810-140 1131-385 76-58 196-169 256-245 13-16 51-54 56-70 7-23-1-88-3-117-14-201-47-428-244-502-177-67-346-49-571-173-28-16-51-29-78-46-22-14-58-46-77-53-17 48-51 111-73 159-24 54-50 109-76 163l-74 158-57 122c-3 7-6 15-9 21l-14 19-74-230c8-15 15-15 23-33 4-12 8-29 12-42 28-70 68-123 38-161-38-46-151-31-236-31-35 0-59 9-77 31-29 37 8 90 36 158 6 14 8 27 13 41 8 21 15 22 24 37l-75 230-302-642c-25 10-121 104-325 172-288 97-529 22-614 379-11 48-46 286-35 336 5 19 44 57 57 74 135 170 368 339 560 437 227 115 512 193 808 193zM1339 6c-189 23-232 72-367 148-168 95-211 312-223 500-2 33-1 66-3 98-4 48-19 8-41 62-40 94-11 326 92 389 18 12 12 5 21 29 6 14 10 25 16 39 107 248 359 597 699 520 201-45 356-234 442-382 25-44 47-86 68-135 10-23 18-56 34-70 27-23 31-20 51-53 49-83 95-294 20-366-16-15-13 1-15-35-5-73-19-216-33-279-26-121-70-211-139-273-58-51-65-40-122-81C1698 17 1517-15 1339 6z"></path>
  </symbol>
  <symbol viewBox="0 0 5909 4802" id="about--website">
    <path d="M2102 814c90-179 195-330 311-444-363 97-687 288-944 545l-3 2c151 74 324 136 514 185 37-103 78-199 122-288zm764-506c-232 44-444 259-607 584-39 77-74 160-107 249 222 45 463 71 714 76V308zm177 0v909c252-5 492-31 714-76-33-89-68-172-107-249-162-325-375-540-607-584zm453 62c117 114 222 265 311 444 45 89 85 185 122 288 190-49 363-111 514-185l-3-2c-257-257-581-449-944-545zm-1745 848c-139-44-268-96-384-154l-24-12c-44 53-86 109-125 166h533zm2941 0c-40-57-82-113-126-166l-24 12c-116 58-245 110-383 154h533zM1218 3584c39 57 81 113 125 166l24-12c116-58 245-110 384-154h-533zm762 116c-190 49-363 111-514 184l3 3c257 257 581 448 944 545-116-114-221-265-311-444-44-89-85-185-122-288zm172-39c33 88 68 172 107 249 163 325 375 540 607 584v-909c-251 5-492 31-714 76zm891-76v909c232-44 445-259 607-584 39-77 74-161 107-249-222-45-462-71-714-76zm764 403c-89 179-194 330-311 444 363-97 687-288 944-545l3-3c-151-73-324-135-514-184-37 103-77 199-122 288zm352-404c138 44 267 96 383 154l24 12c44-53 86-109 126-166h-533z"></path>
    <path fill-rule="nonzero" d="M2955 135c-626 0-1192 254-1602 664-126 126-237 267-331 419h-16-2-2-3-2-2-3-1-1-2-2-3-2l-2 1h-3 0-2-2-3-2-2-3-1-1-2-3-2l-2 1h-2-3 0-2-2-3-2-2l-3 1h-1-1-2-2-3-2-2l-3 1h0-2-2-3-2l-2 1h-2-5 0-2l-2 1h-3-2-2-1l-2 1h-2-2-2-3l-2 1h-2 0-2-3l-2 1h-2-2c108-192 242-369 397-524C1691 269 2292 0 2955 0s1263 269 1697 703c155 155 289 332 398 524h-3-2l-2-1h-2-3 0-2l-2-1h-2-3-2-2l-2-1h-1-2-2-2l-3-1h-2 0-4-3l-2-1h-2-3-2-2 0l-2-1h-3-2-2-3-2-1-1l-3-1h-2-2-2-3-2 0-2-3l-2-1h-2-3-2-1-1-3-2-2-2-3-2 0-2l-3-1h-2-2-3-2-1-1-3-2-2-3-2-2-16c-93-152-204-293-330-419-410-410-977-664-1602-664zM1022 3584c94 152 205 293 331 419 410 410 976 663 1602 663 625 0 1192-253 1602-663 126-126 237-267 330-419h16 2 2 3 2 2 3 1 1l2-1h3 2 2 3 2 0 2 3 2 2 2 3 1 1 2 3l2-1h2 3 2 0 2 2 3 2l2-1h3 1 1 2 3 2 2l2-1h3 0 2 2 3l2-1h2 2 5 0l2-1h3 2 2 2l1-1h2 2 2 3l2-1h2 2 0 2l3-1h2 2l3-1c-109 193-243 369-398 525-434 434-1034 703-1697 703s-1264-269-1698-703c-155-156-289-332-397-525l2 1h2 2l3 1h2 0 2 2l3 1h2 2 3 1l1 1h2 2 3 2l2 1h0 5 2 2l3 1h2 2 2 0 3l2 1h2 3 2 2 1 1 3l2 1h2 3 2 2 0 3 2 2l2 1h3 2 1 1 3 2 2 3 2 2 0 3 2 2 3 2l2 1h1 2 2 2 2 3 2 2 16z"></path>
    <path d="M4903 1394H1006c-276 0-528 114-710 296C113 1873 0 2124 0 2401s113 528 296 711c182 182 434 295 710 295h3897c276 0 528-113 711-295 182-183 295-434 295-711s-113-528-295-711c-183-182-435-296-711-296zm-2453 681l-191 652h-178l-119-456-119 456h-179l-192-652h168l115 497 125-497h174l122 495 116-495h158zm993 0l-191 652h-177l-119-456-119 456h-179l-192-652h167l116 497 124-497h175l122 495 115-495h158zm994 0l-191 652h-178l-119-456-119 456h-178l-192-652h167l115 497 125-497h174l123 495 115-495h158z"></path>
  </symbol>
  <symbol fill="none" viewBox="0 0 247 247" id="certificate--buildwithangga">
    <circle fill="#335ef7" cx="123.5" cy="123.5" r="123.5"></circle>
    <g stroke="#fff" stroke-width="23">
      <path d="M113.41 141.023c7.595 4.478 13.623 4.478 18.083 0 8.767-8.802 16.494-24.247 23.183-46.335a12.11 12.11 0 0 1 16.236-5.409 12.1 12.1 0 0 1 5.412 5.409L209 160" stroke-dasharray="6"></path>
      <path d="M38 160l32.676-65.312a12.11 12.11 0 0 1 16.236-5.409 12.1 12.1 0 0 1 5.412 5.409l24.847 51.853c2.397 4.795 7.779 2.427 16.145-7.107"></path>
    </g>
  </symbol>
  <symbol viewBox="0 0 11884 12703" id="certificate--codepolitan">
    <path fill="#008c7d" d="M3173 1830L1586 2942 0 4054v4462l3173 2224 1334-935v-712-1968l253-178 772-541 1588-1113v-114-2112l251-176V1112L5785 0 4760 718z"></path>
    <path fill="#009b89" d="M1586 7397L0 4054v4462z"></path>
    <path fill="#008c7d" d="M1586 7397L0 8516l3173 2224z"></path>
    <path fill="#007a6d" d="M1586 7397l1587 3343V6278z"></path>
    <path fill="#008c7d" d="M1586 7397l1587-1119-987-692-600-420L0 4054z"></path>
    <path fill="#399389" d="M1586 5166l600 420 987-1532 1098-1705L0 4054z"></path>
    <path fill="#007a6d" d="M3173 4054l-987 1532 987 692 1587-1112z"></path>
    <path fill="#031d1a" d="M4760 5166L3173 6278l794 1675z"></path>
    <path fill="#05201c" d="M3967 7953l-794-1675v4462z"></path>
    <path fill="#03110f" d="M3967 7953l-794 2787 1334-935v-712z"></path>
    <path fill="#021613" d="M3967 7953l540 1140V7125l253-178V5530v-364z"></path>
    <path fill="#05110f" d="M7236 5212h0l-116 81-1588 1113-772 541V5530l518-876 1842 525v114z"></path>
    <path fill="#00352c" d="M4760 5530l518-876-2105-600 1587 1112z"></path>
    <path fill="#004035" d="M3173 4054l2105 600 2093-3542-1025 718-1586 1112z"></path>
    <path fill="#05201c" d="M7371 1112L5278 4654l1842 525V3067l251-176V1112zm-135 4100h0l135-95-135 95z"></path>
    <path fill="#399389" d="M4271 2349l3100-1237L5785 0z"></path>
    <path fill="#37a094" d="M4271 2349L5785 0 4760 718 3173 1830 1586 2942 0 4054z"></path>
    <path fill="#007a6d" d="M7371 1112L4271 2349 3173 4054l1587-1112 1586-1112z"></path>
    <path fill="#d86e7c" d="M7120 3067v2226L5532 6406l-1025 719v4465l1588 1113 5789-4058V4180l-1588-1113-600-421-988-692z"></path>
    <g fill="#ee7b90">
      <path d="M10296 3067l-600-421-988 1534-1099 1706 4275-1706z"></path>
      <path d="M7609 5886L4507 7125l1588 1112z"></path>
    </g>
    <path fill="#d86e7c" d="M7609 5886L6095 8237l1025-718 1588-1113 1588-1113 1588-1113z"></path>
    <g fill="#fd8696">
      <path d="M8708 4180l988-1534-988-692-1588 1113z"></path>
      <path d="M4507 7125l3102-1239 1099-1706-1588 1113-1588 1113z"></path>
    </g>
    <path fill="#fa7c89" d="M5301 9914l-794-2789v4465z"></path>
    <path fill="#dc707f" d="M4507 7125l794 2789 794-1677z"></path>
    <path fill="#c86371" d="M6095 8237l-794 1677 794 2789z"></path>
    <path fill="#dd7180" d="M6095 12703l-794-2789-794 1676z"></path>
    <path fill="#ca6b7a" d="M6095 8237v4466l2894-4262z"></path>
    <path fill="#c36876" d="M6095 8237l2894 204 2895-4261-1588 1113-1588 1113-1588 1113z"></path>
    <path fill="#b86475" d="M8989 8441l-2894 4262 5789-4058z"></path>
    <path fill="#b66170" d="M8989 8441l2895 204V4180z"></path>
    <path fill="#824453" d="M7645 4925l-525-1858v2226z"></path>
    <path fill="#97505e" d="M7120 3067l525 1858 1063-745z"></path>
  </symbol>
  <symbol fill-rule="evenodd" viewBox="0 0 82224 21260" id="certificate--dicoding">
    <g fill="#2d3e50">
      <path d="M30275 10329c0-1950 1581-3531 3532-3531 1950 0 3531 1581 3531 3531 0 1951-1581 3532-3531 3532-1951 0-3532-1581-3532-3532zm3532-5921c-3270 0-5921 2651-5921 5921s2651 5921 5921 5921 5920-2651 5920-5921-2650-5921-5920-5921zM2389 10283c0-1950 1581-3531 3532-3531 1950 0 3531 1581 3531 3531 0 1951-1581 3532-3531 3532-1951 0-3532-1581-3532-3532zM10647 0h0c657 0 1195 537 1195 1194v9089c0 3270-2651 5921-5921 5921S0 13553 0 10283s2651-5921 5921-5921c1323 0 2545 435 3531 1169V1194C9452 537 9990 0 10647 0z"></path>
      <rect x="13607" y="4346" width="2389" height="11767" rx="1198" ry="2160"></rect>
      <circle cx="14836" cy="2761" r="1197"></circle>
      <path d="M19528 10329c0-1950 1581-3531 3532-3531 858 0 1644 305 2256 814 52 43 62 55 125 109 209 178 479 288 775 288 661 0 1197-536 1197-1197 0-364-163-690-419-910-138-117-1-3-149-126-1026-854-2346-1368-3785-1368-3270 0-5921 2651-5921 5921s2651 5921 5921 5921c1439 0 2759-514 3785-1368 148-123 11-8 149-126 256-219 419-546 419-910 0-661-536-1196-1197-1196-296 0-566 109-775 288l-125 109c-612 508-1398 814-2256 814-1951 0-3532-1581-3532-3532zm22740-43c0-1950 1581-3532 3532-3532 1950 0 3531 1582 3531 3532s-1581 3532-3531 3532c-1951 0-3532-1582-3532-3532zM50526 3h0c657 0 1194 537 1194 1194v9089c0 3270-2650 5921-5920 5921s-5921-2651-5921-5921 2651-5921 5921-5921c1323 0 2545 435 3531 1169V1197c0-657 538-1194 1195-1194z"></path>
      <rect x="53495" y="4346" width="2389" height="11767" rx="1198" ry="2160"></rect>
      <circle cx="54724" cy="2761" r="1197"></circle>
      <path d="M63571 6766c1860 0 3372 1545 3407 3464h-1v4689c0 657 519 1194 1153 1194 635 0 1153-537 1153-1194v-4689h0c-35-3239-2579-5853-5712-5853-1277 0-2456 434-3407 1167v-3c0-657-519-1195-1153-1195s-1153 538-1153 1195v9378c0 657 519 1194 1153 1194s1153-537 1153-1194v-4706c43-1912 1552-3447 3407-3447zm6138-6322h12515v20816H69709z"></path>
    </g>
    <path fill="#fff" d="M75967 4873c-3208 0-5809 2600-5809 5808s2601 5809 5809 5809c1373 0 2635-477 3629-1273v598c0 1656-1625 2998-3629 2998-1552 0-2876-805-3395-1936 1 4-101-370-441-627-518-391-1233-319-1595 161-419 556-66 1171-67 1170 781 1959 2948 3368 5498 3368 3088 0 5614-2067 5798-4675h10v-5593c0-3208-2600-5808-5808-5808zm-3629 5808c0-2004 1625-3629 3629-3629s3629 1625 3629 3629c0 2005-1625 3629-3629 3629s-3629-1624-3629-3629z"></path>
  </symbol>
  <symbol viewBox="0 0 10151 8319" id="certificate--logo">
    <path fill-rule="nonzero" d="M949 0h8253c260 0 497 107 670 279h0l1 1c172 172 278 409 278 669v3529c-131-152-292-276-474-366V949c0-131-53-249-139-335l-1-1c-85-85-204-138-335-138H949c-131 0-249 53-335 138l-1 1c-85 86-138 204-138 335v4694c0 131 53 249 138 335l1 1c86 85 204 138 335 138h6723c89 183 214 344 365 475H949c-260 0-497-107-669-279h-1 0C107 6140 0 5903 0 5643V949c0-260 107-497 279-669v-1h1C452 107 689 0 949 0z"></path>
    <path d="M1611 4462c175 89 395 149 623 149 338 0 625-108 872-297 59-45 151-130 198-189 10-12 39-41 43-53 6-18-1-69-2-91-11-155-36-330-188-387-137-52-267-38-441-134-22-12-39-22-60-35-17-11-45-35-60-41-12 37-39 85-56 123l-58 125c-21 42-38 82-58 123l-43 94-7 16-11 14-57-177c6-11 11-12 17-26 4-9 6-22 10-32 21-54 52-95 29-124-29-36-117-24-182-24-27 0-46 7-59 24-23 28 6 69 27 121 5 12 7 22 11 32 5 16 11 17 18 29l-58 177-233-495c-19 8-93 80-250 133-223 75-408 17-474 292-9 37-36 221-27 259 3 15 34 44 44 57 104 131 284 262 432 337zm165-1501c83 191 277 461 540 402 155-35 274-181 341-295 19-34 36-66 52-104 8-18 14-43 27-54 20-18 23-16 38-42 39-63 74-226 16-281-12-12-10 0-11-28-5-56-15-166-26-215-20-93-54-163-108-210-44-39-49-31-93-63-109-77-249-102-386-85-146 18-179 55-283 114-130 73-163 241-172 385-1 26-1 52-3 76-2 37-14 7-31 48-30 72-9 251 71 300 14 9 9 4 16 22l12 30zm2111-886h4859c149 0 272 122 272 272v1c0 150-123 272-272 272H3887c-150 0-273-122-273-272v-1c0-150 123-272 273-272zm0 937h4859c149 0 272 123 272 273h0c0 150-123 273-272 273H3887c-150 0-273-123-273-273h0c0-150 123-273 273-273zm0 960h4859c17 0 34 2 51 5-380 56-713 255-944 540H3887c-150 0-273-122-273-272v-1c0-150 123-272 273-272zm5131 354c626 0 1133 507 1133 1133s-507 1133-1133 1133c-625 0-1133-507-1133-1133s508-1133 1133-1133zm0 478l183 473 506 28-393 319 130 490-426-275-425 275 130-490-393-319 506-28 182-473zm689 1987v1528h-1l-688-445-687 445h-1V6791c206 106 440 167 688 167 249 0 483-61 689-167z"></path>
  </symbol>
  <symbol viewBox="0 0 1596 1567" id="certificate--validity">
    <path d="M996 1242c21 5 43 11 66 14-34 90-121 158-222 158H235c-129 0-235-106-235-237V439c0-131 106-237 235-237h183C433 88 531 0 649 0h326c129 0 235 106 235 235v161c-21-3-44-7-67-9V235c0-92-76-168-168-168H649c-81 0-148 59-164 135h355c114 0 209 81 230 189-21 2-44 7-65 12-16-76-83-134-165-134H235c-92 0-168 76-168 170v738c0 93 76 169 168 169h605c69 0 130-44 156-104zm331-67c-195 113-444 46-554-149-111-193-46-440 147-554 195-111 444-44 556 149 113 193 46 442-149 554zm-34-57c163-94 218-302 124-463s-301-218-463-124c-160 94-216 301-124 462 94 162 301 217 463 125zm137 32l-176 101 135 233 175-100-134-234zm152 265l-175 101c28 50 90 66 138 37 49-28 65-90 37-138zM649 446H202v51h447v-51h0zM547 671H202v51h345v-51zM202 945h345v-52H202v52zm0 225h447v-52H202v52zm856-277L954 778l-50 45 147 162 290-238-44-52-239 198z"></path>
  </symbol>
  <symbol viewBox="0 0 924 964" id="certificate--verified">
    <path fill-rule="nonzero" d="M410 24c3-2 5-5 8-8 13-11 28-16 44-16 15 0 31 5 43 16 3 3 6 6 9 8l1 2 67 85 105-30h1c6-1 12-2 17-2 15 0 29 5 41 13v1c12 8 21 21 24 36v1c2 5 3 11 3 16h-1l5 107 103 38h1l12 6h0c13 9 23 22 27 37h0c5 14 5 30-1 45h0l-6 12-1 1-60 90 60 90 1 1 6 12h0c6 15 6 31 1 45-4 15-14 28-27 37-4 2-7 4-12 5l-1 1-103 38-5 107h1c0 5-1 11-3 16v1c-3 15-12 28-24 37-12 8-26 13-41 13-5 0-11-1-17-2h-1l-105-30-67 85-1 1-9 9c-12 10-28 16-43 16-16 0-31-6-44-16-3-3-5-6-8-9l-1-1-67-85-106 30h-1c-5 1-11 2-16 2-15 0-29-5-41-13h0c-12-9-21-22-25-37v-1c-1-5-2-11-2-16h0l-4-107-103-38-1-1c-5-1-8-3-12-5h0c-13-9-23-22-28-37h0c-4-14-4-30 2-45h0c1-4 3-8 6-12v-1l61-90-61-90v-1c-3-4-5-8-6-12h0c-6-15-6-31-2-46 5-14 15-27 28-36h0l12-6h1l103-38 4-107h0c0-6 1-11 2-17 4-15 13-28 25-36v-1c12-8 26-13 41-13 5 0 11 1 16 2h1l106 30 67-85 1-2zm112 149l-60-77-60 77h0c-9 11-20 19-32 23h0a68.17 68.17 0 0 1-40 0h0l-95-26-4 98v3c-1 12-6 24-13 34v1c-7 9-17 18-30 22l-1 1-93 34 55 82c8 11 12 24 12 37s-4 26-12 37l-55 82 93 34h1c13 5 23 13 30 23s12 23 13 35v3l4 98 95-26h0a68.17 68.17 0 0 1 40 0h0c12 4 23 12 32 23h0l60 77 60-77h0c8-11 19-19 32-23a68.17 68.17 0 0 1 40 0h0l94 26 4-98v-3c2-12 6-25 14-35 7-10 17-18 29-23h2l92-34-55-82c-7-11-11-24-11-37s4-26 11-37l55-82-92-34-2-1c-12-4-22-13-29-22-8-11-12-23-14-35v-3l-4-98-94 26h0a68.17 68.17 0 0 1-40 0h0c-13-4-24-12-32-23h0z"></path>
    <path d="M453 617l173-217 4-5c11-18 7-42-11-56-19-15-46-11-61 7L415 525l-52-51-4-4c-18-14-43-13-58 4-18 16-18 43 0 59l87 88 5 4c18 15 45 11 60-8z"></path>
  </symbol>
  <symbol viewBox="0 0 2598 5200" id="initial--mouse">
    <path d="M1973 4580l-589 588h1l-2 1c-20 21-47 31-74 31s-54-10-74-31l-2-1h1l-589-588h0l-1-2c-41-40-41-106 0-147s107-41 148 0l442 442c1 0 1 1 1 1s1 0 1 1c20 19 47 29 73 29s53-10 73-29c0-1 1-1 1-1v-1l443-442c41-41 107-41 148 0s41 107 0 147l-2 2h1z"></path>
    <path fill-rule="nonzero" d="M139 1045v1941h0c0 246 128 471 334 635 211 167 503 270 826 270 324 0 616-103 826-270 206-164 334-389 334-635V1045c0-247-128-472-334-635-210-167-502-271-826-271-323 0-615 104-826 271-206 163-334 388-334 635zM0 2986V1045c0-292 148-555 387-744C621 115 944 0 1299 0s678 115 913 301c238 189 386 452 386 744v1941c0 291-147 554-386 743-235 186-558 301-913 301s-678-115-912-301C148 3540 0 3277 0 2986h0z"></path>
    <path d="M1383 696c69 27 118 85 118 152v489c0 67-49 125-118 152v1104c0 41-38 75-84 75h0c-46 0-84-34-84-75V1489c-69-27-118-85-118-152V848c0-67 49-125 118-152V462c-209 17-396 97-535 218-155 134-252 320-252 524v1622h1c0 205 96 390 251 524 158 137 377 222 619 222 243 0 462-85 619-222 155-134 251-319 251-524V1204c0-204-96-390-251-524-139-121-326-201-535-218v234zM290 2826V1204c0-246 114-469 299-629 182-158 434-256 710-256 277 0 528 98 710 256 185 160 300 383 300 629v1622c0 247-115 469-300 629-182 158-433 256-710 256-276 0-528-98-710-256-185-160-300-382-300-629h1z"></path>
  </symbol>
</svg>