<svg width="0" height="0" class="hidden" xmlns="http://www.w3.org/2000/svg" shape-rendering="geometricPrecision" image-rendering="optimizeQuality">
  <symbol fill-rule="evenodd" viewBox="0 0 1343 1048" id="header--basket">
    <path d="M1280 447h-207c-47 0-68-33-50-75l128-296c12-27 0-60-28-72-27-12-59 2-71 29L904 372c-18 42-70 75-115 75H550c-45 0-97-33-115-75L288 33C276 6 243-8 216 4c-28 12-40 45-28 72l128 296c18 42-3 75-49 75H66c-45 0-73 35-64 79l101 442c10 45 55 80 101 80h925c45 0 91-35 101-79l111-443c11-44-17-79-61-79h0zM371 916c0 21-16 39-39 39-21 0-38-18-38-39V569c0-23 17-39 38-39 23 0 39 16 39 39v347zm219 0c0 21-18 39-39 39s-38-18-38-39V569c0-23 17-39 38-39s39 16 39 39v347zm217 0c0 21-18 39-38 39-21 0-39-18-39-39V569c0-23 18-39 39-39 20 0 38 16 38 39v347zm219 0c0 21-17 39-38 39s-39-18-39-39V569c0-23 18-39 39-39s38 16 38 39v347z"></path>
  </symbol>
  <symbol fill-rule="nonzero" viewBox="0 0 3595 3595" id="my--logo">
    <path d="M268 3326C-1 3056-61 2638 59 2179c14-53 31-107 50-162 63 124 131 248 204 372-52 302-3 564 163 730 190 190 507 226 865 132 384-100 810-350 1185-725 174-175 322-361 440-548 51 106 98 212 140 318-108 150-232 297-372 438-412 411-886 688-1318 801-459 121-878 61-1147-209h-1zm221-2027c107-150 232-298 372-438 412-412 886-688 1318-802 459-120 877-60 1147 209v1c270 269 330 688 209 1147-14 53-30 107-49 161-63-124-131-248-205-372 53-301 3-563-162-729-191-190-507-227-865-133-385 101-810 351-1185 726-175 175-322 361-440 548-52-106-98-213-140-318z"></path>
    <path d="M269 268C538-1 957-61 1416 59c53 14 107 31 161 50-124 63-248 131-372 204-301-52-563-3-729 163-190 190-227 507-133 865 101 384 351 810 726 1185 175 174 361 322 548 440-106 51-213 98-318 140-150-108-298-232-438-372-412-412-688-886-802-1318C-61 957-1 538 268 269l1-1zm2120 3013c302 53 564 3 730-162 190-191 226-507 132-865-100-385-350-810-725-1185-175-175-361-322-548-440 106-52 212-98 318-140 150 107 297 232 438 372 411 412 688 886 801 1318 121 459 61 877-209 1147h0c-270 270-688 330-1147 209-53-14-107-30-162-49 124-63 248-131 372-205z"></path>
  </symbol>
  <symbol fill-rule="evenodd" viewBox="0 0 4523 4523" id="header--api">
    <path fill-rule="nonzero" d="M4260 2261c0-552-224-1051-585-1413-362-362-862-585-1414-585S1210 486 848 848s-585 861-585 1413 223 1052 585 1414c362 361 861 585 1413 585s1052-224 1414-585c361-362 585-862 585-1414zM3860 662c409 410 663 975 663 1599 0 625-254 1190-663 1599s-974 663-1599 663c-624 0-1189-254-1599-663C253 3451 0 2886 0 2261c0-624 253-1189 662-1599C1072 253 1637 0 2261 0c625 0 1190 253 1599 662z"></path>
    <path fill-opacity=".151" d="M1063 1944c-58 56-90 136-90 216s32 159 90 216c56 57 135 89 216 89h103c15-4 30-8 45-11 24-83 70-160 131-222 37-37 78-67 123-93 0-79 33-160 89-216 44-44 101-72 161-84 25-83 70-160 132-222 2-2 5-4 7-6-95-81-218-127-343-127-138 0-275 57-372 154-61 62-107 139-131 222-61 11-119 40-161 84h0z"></path>
    <path fill-opacity=".349" d="M1770 1923c-56 56-89 137-89 216 77-39 163-61 250-61 137 0 275 56 372 154l63 78 79-8c106 0 213 45 289 121 5 4 9 9 14 15 2 2 4 4 7 6h600c51 0 101-20 138-56 36-37 56-87 56-138s-20-102-56-139c-37-35-86-56-137-56-10-93-52-181-118-248-76-76-182-119-289-119l-78 8-64-78c-97-98-234-154-372-154-134 0-268 54-365 147l-7 7c-62 62-107 138-132 221-60 12-117 40-161 84h0z"></path>
    <path fill-opacity=".651" d="M1266 2537c-56 58-89 137-89 216 0 81 33 160 89 217s136 89 216 89h1368c52 0 102-21 138-56 37-37 57-88 57-138 0-52-20-102-57-138-36-37-86-57-137-57-9-83-42-162-96-225l-7-7-14-15c-76-76-183-121-289-121l-79 8-63-78c-97-98-235-154-372-154-87 0-173 22-250 61-45 26-86 56-123 93-61 62-107 139-131 222-15 3-30 7-45 11-44 16-84 40-116 73v-1z"></path>
  </symbol>
  <symbol fill-rule="evenodd" viewBox="0 0 2349 3068" id="header--svg">
    <path d="M562 0h1077c40 0 75 14 104 42l559 531c31 30 47 67 47 110v1823c0 309-253 562-562 562H562c-309 0-562-253-562-562V562C0 253 253 0 562 0zM227 2013h1895c41 0 75-34 75-75V801c0-42-34-76-75-76h-423c-41 0-75-34-75-76V151H562c-226 0-410 185-410 411v1376c0 41 34 75 75 75zm1895 152H227c-41 0-75 34-75 76v265c0 226 184 411 410 411h1225c226 0 410-185 410-411v-265c0-42-34-76-75-76zm-96-1656l-186-186c-11-11-27-14-41-8-15 6-24 19-24 35v186c0 21 17 38 38 38h186c16 0 29-9 35-24 6-14 3-30-8-41zM652 2791c-33 0-62-6-88-17-27-12-47-28-62-49-5-7-9-14-12-21-6-12-5-25 3-36 7-11 18-17 31-17h11c16 0 30 9 35 24 5 11 11 20 20 28 15 14 36 20 62 20 28 0 49-6 65-20 15-13 23-30 23-51 0-17-5-30-14-40-10-11-22-19-36-24-14-6-34-12-60-19-32-8-57-17-77-25-20-9-37-23-51-41s-22-43-22-73c0-28 8-53 22-74s33-37 59-48c25-12 54-17 88-17 47 0 86 11 116 35 15 12 27 26 36 42 6 12 5 26-2 37-7 12-19 19-32 19h-12c-15 0-27-8-34-22-4-9-11-17-20-24-15-13-35-19-61-19-23 0-42 6-56 17-15 12-22 29-22 51 0 15 5 28 14 37 9 10 21 17 35 23s33 12 57 18c33 9 59 18 80 27 20 9 37 23 52 41 14 19 21 43 21 75 0 24-7 48-20 70s-33 40-58 53c-26 13-56 20-91 20zm476-5h-41c-16 0-29-9-35-24l-156-414c-5-12-3-24 4-35 8-10 19-16 31-16h5c16 0 30 10 35 25l119 332c2 8 9 12 18 12 8 1 15-4 17-12l119-332c6-15 20-25 36-25h3c13 0 24 6 31 16 8 11 9 23 5 35l-156 414c-5 15-19 24-35 24zm626-357c-12-20-28-36-48-47-23-12-49-18-78-18-33 0-61 7-87 22-25 14-45 35-59 62-15 26-22 57-22 93 0 35 7 66 22 93 14 27 34 47 59 62 26 15 54 22 87 22 43 0 79-12 106-37 22-19 37-44 45-75 2-6 1-12-3-16-4-5-9-8-15-8h-142c-10 0-19-8-19-19v-26c0-11 9-19 19-19h232c11 0 19 8 19 19v44c-5 38-19 73-41 104-21 32-50 58-85 77s-74 28-116 28c-46 0-88-10-126-32-38-21-68-51-91-89-22-38-33-81-33-128 0-48 11-91 33-129 23-38 53-68 91-90 38-21 80-31 126-31 52 0 98 12 139 38 32 20 57 47 75 81 4 6 3 13 0 19-4 5-10 9-16 9h-56c-7 0-13-3-16-9z" fill-rule="nonzero"></path>
    <path d="M1044 1199v-185c0-21 17-38 38-38h186c20 0 37 17 37 38v185c0 21-17 38-37 38h-186c-21 0-38-17-38-38zm603 111c-72-72-152-120-247-156h232v37c0 42 34 76 76 76h170c42 0 76-34 76-76v-169c0-42-34-76-76-76h-170c-42 0-76 34-76 76v37h-232V957c0-42-34-76-76-76h-299c-42 0-76 34-76 76v102H717v-37c0-42-34-76-76-76H471c-41 0-75 34-75 76v169c0 42 34 76 75 76h170c42 0 76-34 76-76v-37h232c-95 36-175 84-247 157-121 120-196 287-196 472 0 26 22 47 48 47s47-21 47-47c0-158 64-302 168-406 51-51 112-93 180-122v1c0 42 34 76 76 76h299c42 0 76-34 76-76v-1c68 29 129 71 180 122 104 104 168 248 168 406 0 26 22 47 48 47s47-21 47-47c0-185-75-352-196-473zm80-175v-57c0-21 17-38 38-38h56c21 0 38 17 38 38v57c0 21-17 38-38 38h-56c-21 0-38-17-38-38zm-1105-57v57c0 21-17 38-38 38h-56c-21 0-38-17-38-38v-57c0-21 17-38 38-38h56c21 0 38 17 38 38z"></path>
  </symbol>
  <symbol fill-rule="evenodd" viewBox="0 0 2588 3005" id="header--css">
    <path fill-rule="nonzero" d="M1294 0h934c52 0 100 10 145 30 44 19 85 49 120 87h0c35 38 61 81 76 127v1c16 46 22 95 17 147h0l-184 2050v1c-6 73-33 139-76 192-42 54-101 95-170 117l-684 224c-30 9-59 17-89 22-29 4-59 7-89 7s-60-3-89-7c-30-5-60-13-90-22l-683-224c-70-22-128-63-171-117-42-53-69-119-76-192v-1L2 392h0c-5-52 1-101 16-147v-1c16-46 41-89 76-127h1c35-38 75-68 120-87 44-20 93-30 145-30h934zm934 130h-934-934c-34 0-65 6-93 18-29 13-55 32-77 56h0c-23 25-39 53-49 82h0c-10 29-13 60-10 95h-1l184 2050h0c4 47 21 89 49 124 27 33 64 60 109 74l683 224c24 7 48 13 70 17 24 4 47 6 69 6s45-2 68-6 46-10 70-17l684-224c45-14 82-40 109-74 27-35 44-77 49-124h0l183-2050h0c3-35 0-66-10-95h0c-10-29-27-57-49-82h0c-23-24-49-43-77-56-28-12-59-18-93-18z"></path>
    <path d="M1705 1960l-412 112h0l-353-97c-35-9-59-38-62-74l-12-131c-4-44-40-77-84-77h-73c-25 0-46 9-63 27-16 18-24 40-22 65l33 362c3 36 27 65 62 74l574 158h0 0l633-173 59-666 27-305 28-305 19-212c2-25-5-47-22-65s-38-28-62-28h-682v2H613c-25 0-46 10-62 28-17 18-24 40-22 65l12 135c4 44 40 77 84 77h668 411c25 0 46 10 62 28 17 18 24 40 22 65l-12 133c-4 44-40 77-84 77h-399 0-475-150c-25 0-46 10-63 28-16 18-24 40-22 65l13 135c4 44 40 77 84 77h166 447 449l-37 420zm-412-725v305-305z"></path>
    <path fill-opacity=".152" d="M1293 627h682c24 0 45 10 62 28s24 40 22 65l-74 822-54 607c-3 36-27 65-62 74l-576 158v190c0 27 12 50 33 67 22 16 48 21 74 14l685-188c34-10 58-39 62-74l176-1970c2-25-5-47-22-65-16-18-38-27-62-27h-862c-46 0-84 38-84 84v215h0z"></path>
  </symbol>
  <symbol fill-rule="evenodd" viewBox="0 0 4449 4035" id="header--design">
    <path d="M3835 268c-100 45-780 747-967 925-64 70-15 134 25 179 42 48 98 104 176 45l1043-830-277-319zM2113 2027c197 25 476-23 605-106 341-218 140-604-166-582-228 17-297 223-347 401-44 155-32 134-92 287zM4159 552c605-274 142-882-286-324l286 324z"></path>
    <path d="M692 587h2601c30 0 59 2 88 5l-194 192H692c-136 0-260 56-349 145h0c-90 90-145 213-145 349v1621c0 136 55 260 145 349h0c89 90 213 145 349 145h2601c136 0 259-55 349-145h0c89-89 145-213 145-349V1278c0-99-30-191-80-269l155-122c77 112 123 246 123 391v1621c0 190-78 363-204 488v1c-125 125-298 203-488 203H692c-191 0-364-78-489-203v-1C78 3262 0 3089 0 2899V1278c0-190 78-363 203-488h0c125-125 298-203 489-203zm371 3250h1859c28 0 51 34 51 74v50c0 41-23 74-51 74H1063c-28 0-52-33-52-74v-50c0-40 24-74 52-74z" fill-rule="nonzero"></path>
  </symbol>
  <symbol fill-rule="evenodd" viewBox="0 0 5890 5775" id="header--website">
    <path d="M1186 1321c-189-30-366-66-530-108-84-21-173 13-219 88C210 1659 57 2069 2 2508c-7 59 9 115 48 160 40 44 92 68 153 68h814c108 0 196-85 202-193 18-343 64-672 131-977 12-56 3-110-29-159-32-46-79-75-135-86h0zm885-201c167 12 339 21 515 27 56 2 106-18 146-58 41-39 61-88 61-145V203c0-77-39-142-106-178-68-36-145-32-208 11-252 171-448 505-579 802-27 61-23 127 12 185 35 57 90 93 159 97h0zm-525-209c36-97 77-192 122-285 40-83 20-178-49-240-68-59-163-68-240-19-135 82-263 178-382 282-61 52-84 129-62 205 21 77 80 131 158 145 75 15 153 27 233 40 96 14 186-38 220-128h0zm1051 538c-248-7-490-22-722-42-101-9-191 56-214 155-72 297-119 618-139 960-3 57 15 108 54 151 40 41 90 63 148 63h868c111 0 201-92 201-203v-883c0-110-86-199-196-201zm498 201v883c0 111 92 203 203 203h868c58 0 107-22 146-63 40-43 59-94 56-151-20-342-69-663-139-960-23-99-113-164-214-155-231 20-474 35-722 42-110 2-198 91-198 201zm209-503c176-6 348-15 516-27 66-4 124-40 158-97 34-58 39-124 10-185-129-297-325-631-577-802-64-43-140-49-208-11-68 36-108 101-108 178v741c0 57 22 106 61 145 42 40 92 60 148 58zm1260-108l233-40c78-14 137-68 159-145 21-76-2-153-63-205-119-104-247-200-381-282-78-49-175-40-241 21-69 61-88 155-49 238 45 93 87 188 122 285 35 90 124 142 220 128h0zm668 174c-161 42-339 78-528 108-58 11-103 40-135 86-32 49-43 103-31 159 69 305 116 634 134 977 5 108 93 193 201 193h814c61 0 112-24 153-68 39-45 56-101 48-160-55-439-208-849-435-1207-46-75-134-109-221-88h0zm455 1825h-814c-108 0-196 84-201 190-18 345-65 674-133 980-13 56-2 110 30 156 32 49 77 78 135 87 189 32 367 68 528 109 87 22 175-12 221-88 227-358 380-767 435-1206 8-61-9-115-48-160-41-45-92-68-153-68zM4229 4212c70-297 119-621 139-960 3-58-16-110-56-151-40-42-88-63-146-63h-868c-111 0-203 90-203 201v883c0 109 88 199 198 203 248 7 491 20 722 41 101 9 191-57 214-154zm-1436-90v-883c0-111-90-201-201-201h-868c-58 0-108 21-148 63-39 41-57 93-54 151 20 339 67 663 139 960 23 97 113 163 214 154 232-22 474-34 722-41 110-4 196-94 196-203zm-1443 86c-67-306-113-635-131-980-6-106-94-190-202-190H203c-61 0-113 23-153 68-39 45-55 99-48 160 55 439 208 848 435 1206 46 76 135 110 219 88 164-41 341-77 530-109 58-9 103-38 135-87 32-46 41-100 29-156zm-24 527c-80 10-158 25-233 37-78 15-137 70-158 146-22 77 1 154 62 207 119 104 247 197 382 282 77 48 172 39 240-22 69-61 89-156 49-237-45-93-86-191-122-286-35-90-124-142-220-127h0zm574 201c129 293 323 631 579 802 64 43 140 46 208 10 67-36 106-100 106-178v-742c0-56-20-104-61-144-40-39-90-59-146-57-176 5-348 14-515 25-69 5-125 39-159 99-36 57-39 122-12 185h0zm1195-108v744c0 76 40 142 108 178 66 36 144 33 207-11 255-169 449-507 580-803 27-63 24-128-12-187-34-58-90-92-158-97-168-11-340-20-516-25-56-2-106 18-148 57-39 40-61 88-61 144h0zm1249 34c-36 95-77 191-122 284-39 83-20 178 49 239 66 61 163 70 241 22 134-85 262-178 381-282 61-53 84-130 62-207-21-76-80-131-158-146-75-12-152-27-233-37-96-15-186 37-220 127h0z"></path>
  </symbol>
  <symbol fill-rule="evenodd" viewBox="0 0 13234 12967" id="header--profile">
    <path d="M8554 4976c-376 0-681 305-681 681v3088 33c5 329 169 649 465 841l896 582 1778 1155 235 152c617 318 1387 123 1773-471 1-1 1-1 1-2 91-139 153-288 187-441 12-50 20-99 26-149v-309-3148-729-309c-39-345-209-672-491-904l-258-168-613-398-1937-1258-419-272-258-168c-8-4-16-7-24-11-118-57-242-95-368-116-243-39-491-12-718 76-96 37-189 86-275 145a1095.5 1095.5 0 0 0-80 59L4460 6268l-128 127-91 92c-28 34-54 70-78 108-104 160-171 335-201 513-5 25-8 51-11 77v309 2732 1371l-1149-747-291-188-1149-747V8545 6021 4651l969-969 1342-1343 969-969 1149 747 860 558c-1 0-1-1-2-1l-5-3 9 5c315 205 736 115 941-200s115-737-200-942L5513 312l-259-167C5007 21 4736-22 4476 10c-248 31-486 128-686 287l-122 122-98 97L509 3577l-82 82-137 138c-27 34-53 70-78 107-56 87-101 177-135 270-39 105-65 213-77 321v309 4227 729 309c39 345 208 672 491 904l258 168 613 398 1718 1116 258 167c195 98 405 145 613 145 251 0 499-69 714-201 170-103 319-246 435-423 119-184 189-386 212-591v-309-2732-1370l969-969 1395-1395 197-197 772-772 589 383 553 358 936 608 1149 747v1361 1454 1372l-1150-747-835-542-653-424v-778-2143c0-376-304-681-680-681z"></path>
  </symbol>
  <symbol fill-rule="evenodd" viewBox="0 0 679 820" id="nav--click">
    <path d="M209 8l-17 7-9 4c-1 1-3 1-4 2-3 2-1 2-4 2-2 3-7 5-10 7-2 1-3 2-5 3-3 3-1 2-4 3l-2 2c-1 1-2 1-3 2-2 2-2 3-4 4-3 3-6 6-10 8 0 2 0 1-1 2-2 4-4 5-7 9-7 8-12 15-17 24-2 3-1 2-3 4-1 3-5 11-6 14l-2 4-6 17-4 18-2 18v23l1 13 4 21c2 3 5 12 5 15 1 2 1 1 2 4 1 2 1 3 2 5l5 10c1 2 3 6 5 9 2 4 4 6 5 9l2 2c2 3 4 5 6 8s5 5 6 9c2 1 6 4 7 6l5 5 1-66c0-12-2-10-4-19-3-5-8-27-7-33l-1-11c0-4 0-8 2-10-1-6 4-31 7-35 2-7 6-14 10-20 2-4 4-7 6-10 3-3 4-5 8-7 1-4 5-8 8-10 2-2 8-7 11-9 0-1 0 0 1-1s1-1 2-1c1-1 1-1 3-2 5-5 12-8 19-11l5-1c3-3 9-4 13-6l18-3 18-1 18 1c7 1 14 3 21 5 3 1 5 2 9 4 3 1 6 2 8 4 4 0 16 9 19 11 5 3 14 11 15 14 3 2 5 3 6 6 4 4 10 12 13 18l1 2c3 3 7 12 8 17l6 17c1 5 3 11 2 16 1 2 1 7 1 10v11l-2 16-1 5h3c6 1 13 2 18 5 6 1 13 6 17 10 2 1 1 0 1 1 2 2 2 1 3 2l1-3 3-18 2-18v-18l-2-19-4-17c-2-7-4-13-7-19-2-6-6-12-8-18l-6-10c-2-2-4-5-5-8-2-1-9-11-11-13l-12-12c-3-2-4-4-7-6l-19-15c-4-1-10-5-13-7l-5-3-18-7c-7-1-14-4-23-6-5-1-21-2-24-3h-20c-2 1-17 2-22 3-7 1-14 4-21 5zM63 510h0zm125 31l45 45v-64-5-344c0-8 3-16 8-21 6-5 13-9 21-9s16 4 21 9 9 13 9 21v141 111c0 15 12 26 26 26 15 0 26-11 26-26V315c2-7 5-13 10-17a32.21 32.21 0 0 1 20-7c8 0 15 3 21 9 5 5 8 13 8 21v31 112c0 14 12 26 27 26 14 0 26-12 26-26V355c2-7 5-12 10-16 5-5 12-7 19-7 8 0 16 3 21 9 6 5 9 13 9 21v31 112c0 14 12 26 26 26 15 0 27-12 27-26V396c1-7 5-12 10-16 5-5 11-7 19-7s15 3 21 8c5 6 8 14 8 22v200h0c-2 71-20 114-55 137-38 24-96 30-173 26-23-1-41-4-56-9-14-5-26-11-37-20-63-50-148-134-200-186l-42-41a34.12 34.12 0 0 1-10-24c0-9 3-17 9-24h0c7-6 15-9 24-9a34.12 34.12 0 0 1 24 10h0l73 73 5 5zm-163 6l1 1c9 7 23 22 42 40 53 53 138 138 204 190 17 13 33 22 54 29 19 6 41 10 69 12 88 4 156-4 205-35 50-34 77-90 79-181h0V403c0-23-9-44-24-59s-36-24-58-24c-13 0-26 3-36 8-5-9-10-17-18-25-14-15-35-24-58-24-13 0-25 3-36 8-4-9-10-17-17-25-15-15-36-24-58-24-11 0-20 2-30 5v-70c0-23-9-43-24-58s-35-25-58-25c-22 0-43 10-58 25s-24 35-24 58v286l-33-33h0c-17-17-39-26-61-26s-44 8-61 25h0C8 442 0 464 0 486s9 44 25 61z"></path>
  </symbol>
  <symbol fill-rule="evenodd" viewBox="0 0 8436 13638" id="button--theme">
    <path d="M5488 11476H2737c-121 0-212 90-212 211s91 212 212 212h2751c121 0 212-91 212-212s-91-211-212-211zm0 861H2737c-121 0-212 106-212 227 0 106 91 212 212 212h2751c121 0 212-106 212-212 0-121-91-227-212-227zm-741 877H3462c-106 0-211 91-211 212s105 212 211 212h1285c121 0 212-91 212-212s-91-212-212-212zM4218 0C1890 0 0 1890 0 4218c0 862 257 1678 741 2374 453 620 1058 1119 1784 1421v1074h-227c-106 0-212 105-212 211v1527c0 121 106 212 212 212h3614c121 0 226-91 226-212V9298c0-106-105-211-226-211h-212V8028c786-287 1436-771 1920-1376 529-695 816-1527 816-2434C8436 1890 6547 0 4218 0zm1482 10614H2525V9525h3175v1089zm1587-4219c-468 575-1103 1029-1859 1286-91 30-151 105-151 196h0v1210h-424V5337c0-121-90-212-212-212-120 0-211 91-211 212v3750h-635V5337c0-121-91-212-212-212s-212 91-212 212v3750h-423V7877h0c0-91-60-166-136-196-695-288-1300-741-1723-1331-424-620-666-1361-666-2132 0-2086 1709-3795 3795-3795 2087 0 3795 1709 3795 3795 0 802-257 1558-726 2177zM4460 1285c0-121-91-227-212-227-1028 0-2010 575-2555 1482-60 91-30 227 76 287 30 15 76 31 106 31 75 0 151-46 181-106 469-771 1315-1255 2192-1255 121 0 212-106 212-212zM1618 3205c-121-30-227 46-257 151-61 227-76 469-76 696 0 121 91 212 212 212s211-91 211-212c0-197 15-393 61-590 30-121-30-226-151-257zm3417 907c-31-30-91-60-152-60-60 0-105 30-151 60l-242 242-242-242c-30-30-75-60-136-60-45 0-105 30-151 60l-227 242-241-242c-46-30-106-60-152-60-60 0-121 30-151 60l-393 394c-91 90-91 226 0 302 76 91 212 91 302 0l242-242 242 242c30 45 91 60 151 60 46 0 106-15 152-60l226-242 227 242c46 45 106 60 151 60 61 0 121-15 151-60l242-242 242 242c46 45 91 60 152 60 60 0 105-15 151-60 90-76 90-212 0-302l-393-394z"></path>
  </symbol>
  <symbol fill-rule="evenodd" viewBox="0 0 111307 111308" id="footer--accounts">
    <path d="M41101 43300h0zm-4494 6746h11728l1630-7468c723-2173 1618-3913 2636-5078-4461 663-8455 2759-11500 5800-1912 1914-3450 4202-4494 6746zm14699-7024c-660 1982-1188 4366-1542 7024h11779c-354-2658-883-5042-1543-7024-1183-3550-2726-5747-4346-5747-1621 0-3164 2197-4348 5747zm18900 278h0zm-8864-722c703 2110 1263 4648 1630 7468h11727c-1043-2544-2581-4832-4495-6744-3044-3043-7038-5139-11499-5802 1019 1165 1914 2905 2637 5078zM47847 57853c0-2220 113-4366 322-6386H36085c-655 2010-1009 4156-1009 6386 0 2229 355 4375 1011 6386h12082c-209-2021-322-4165-322-6386zm1748-6386c-213 2011-328 4157-328 6386 0 2228 115 4374 328 6386h12117l327-6386-327-6386H49595zm13542 0l323 6386-323 6386h12083c656-2011 1011-4157 1011-6386 0-2230-354-4376-1010-6386H63137zm11561 14193H62972c-367 2820-927 5358-1630 7468-723 2173-1618 3912-2637 5077 4461-663 8455-2758 11499-5802 1912-1912 3450-4200 4494-6743zm-14698 7023c660-1982 1189-4366 1543-7023H49764l1542 7023c1184 3551 2727 5747 4348 5747 1620 0 3163-2196 4346-5747zm-10035 445c-703-2110-1263-4648-1630-7468H36608c1044 2543 2583 4831 4495 6743 3043 3044 7037 5139 11498 5802-1018-1165-1913-2904-2636-5077zM46905 7524l-1795-4333C44024 562 40983-697 38360 395l-9553 3957c-2628 1083-3887 4123-2794 6747l1793 4337c-4759 3293-8978 7451-12374 12366l-4332-1794c-2625-1087-5665 174-6751 2796L391 38360c-1087 2624 172 5663 2796 6751l4333 1794c-1076 5881-1032 11801 3 17498l-4334 1795C560 67284-698 70324 394 72948l3957 9554c1083 2627 4123 3886 6747 2794l4336-1794c3291 4765 7452 8978 12366 12377l-1793 4329c-1087 2625 174 5665 2796 6751l9556 3958c2624 1087 5663-172 6751-2796l1794-4333c5881 1076 11804 1033 17498-3l1795 4334c1086 2629 4126 3887 6750 2795l9554-3957c2626-1083 3885-4123 2794-6746l-1794-4337c4765-3291 8977-7452 12374-12367l4332 1794c2625 1087 5665-174 6751-2796l3958-9556c1087-2624-172-5663-2796-6751l-4333-1793c1076-5882 1039-11802-3-17499l4334-1795c2628-1086 3887-4126 2795-6750l-3957-9553c-1083-2627-4123-3886-6747-2794l-4336 1793c-3291-4765-7452-8978-12369-12378l1793-4330c1087-2624-171-5663-2793-6749L72945 391c-2621-1086-5660 173-6748 2797l-1793 4333c-5882-1076-11802-1039-17499 3zm-5710 73463c-4006 4526-11501 5569-16273 7589 2074 1938 4333 3682 6746 5203C13399 82314 5514 59011 14043 38419c9517-22976 35870-33892 58846-24375s33892 35870 24375 58846c-3337 8056-8746 14628-15352 19358 1569-1129 3064-2356 4473-3672-4771-2020-12267-3063-16272-7589l-7546 19176c-4935 772-10037 729-15103-213l1279 216-7548-19179zm17328 3099h-5739c-1465 0-2663 1198-2663 2665 0 1910 1409 3494 3245 3773l-1745 9992c1328 118 2673 177 4033 177l4032-177-1745-9992c1832-278 3246-1867 3246-3774 0-1466-1199-2664-2664-2664z"></path>
  </symbol>
  <symbol fill-rule="evenodd" viewBox="0 0 112093 112094" id="footer--contacts">
    <path d="M56134 38544c-10865 0-19804 8763-19804 19805 0 10865 8939 19629 19804 19629 10866 0 19629-8764 19629-19629 0-11042-8763-19805-19629-19805zM47237 7577l-1808-4364C44335 565 41273-702 38632 398l-9622 3985c-2645 1090-3914 4151-2814 6794l1806 4367c-4792 3317-9040 7505-12461 12454l-4363-1807c-2643-1095-5704 176-6798 2816L394 38631c-1095 2642 173 5703 2816 6798l4364 1806c-1084 5924-1040 11885 3 17622l-4365 1808C564 67759-703 70820 397 73462l3985 9621c1090 2646 4152 3914 6794 2815l4368-1807c3313 4799 7504 9041 12452 12464l-1805 4361c-1095 2642 176 5704 2815 6798l9624 3986c2643 1095 5703-173 6798-2816l1807-4364c5923 1084 11888 1041 17622-3l1808 4365c1093 2647 4155 3915 6797 2815l9621-3985c2645-1091 3913-4152 2814-6794l-1806-4368c4798-3314 9040-7504 12461-12454l4363 1807c2643 1095 5704-176 6798-2815l3986-9624c1095-2643-173-5703-2815-6798l-4364-1807c1083-5924 1047-11885-3-17622l4364-1808c2647-1093 3915-4155 2815-6797l-3985-9621c-1090-2645-4152-3914-6794-2814l-4367 1806c-3314-4798-7505-9041-12456-12465l1805-4361c1095-2643-172-5702-2812-6797L73460 393c-2639-1093-5700 175-6795 2817l-1807 4364c-5923-1084-11885-1047-17621 3zm-5751 73981c-4034 4558-11583 5609-16388 7643 2089 1952 4364 3708 6793 5240C13494 82895 5553 59428 14143 38690c9584-23139 36122-34131 59261-24547 23138 9584 34131 36123 24547 59261-3361 8114-8808 14731-15460 19494 1580-1136 3085-2372 4504-3697-4805-2034-12354-3085-16386-7643l-7600 19312c-4970 777-10108 733-15210-215l1288 218-7601-19315zm17451 3121h-5780c-1475 0-2682 1207-2682 2684 0 1924 1419 3519 3268 3800l-1757 10062c1338 118 2692 179 4061 179l4060-179-1756-10062c1844-280 3268-1881 3268-3801 0-1476-1207-2683-2682-2683z"></path>
  </symbol>
  <symbol fill-rule="evenodd" viewBox="0 0 44922 44922" id="footer--services">
    <path d="M23717 32412c711-171 1441-488 1849-810 976-772 664-1926 1336-3094 694-1207 1045-1554 1728-2568 582-862 931-2646 842-3664-104-1191-602-656-681-1499-49-531-50-998-79-1444 0-10-1-19-2-28-70-1051-304-1986-1707-3347-1155-1121-2849-1682-4559-1672-1711-10-3405 551-4560 1672-1402 1361-1636 2296-1707 3347 0 9-1 18-2 28-28 446-29 913-79 1444-79 843-576 308-681 1499-89 1018 261 2802 842 3664 684 1014 1034 1361 1729 2568 190 331 302 661 386 981 809-437 1910-700 3785-64 2051 696 2333 2005 1560 2987zm-1273-20166c3313 111 6592 1880 8085 5820 947 2499-203 8121 451 9959 873 314 2206 191 2853-558 642-742 395-2209 395-3169 0-4707 395-4288-1891-5169-769-3168-2493-5835-5435-7257-1207-583-3092-1003-4458-1003s-3251 420-4459 1003c-2942 1422-4665 4089-5435 7257-2286 881-1891 462-1891 5169 0 960-246 2427 395 3169 398 465 1057 685 1708 715 549 1291 678 1602 1832 2693 1473 1392 2810 910 3625 1416 3627 2253 6776-1054 3547-2150-2534-859-3010 669-3956 804-1147 164-2569-890-3207-1761-276-376-480-848-629-1382 504-2034-527-7331 385-9736 1492-3940 4771-5709 8085-5820zm-3514-9209l-724-1749c-438-1061-1666-1569-2724-1129l-3856 1597c-1060 437-1569 1664-1128 2723l724 1751c-1921 1329-3623 3007-4994 4991l-1748-724c-1060-439-2286 70-2725 1128L158 15482c-439 1059 69 2285 1128 2724l1749 724c-434 2374-417 4763 1 7062l-1749 725c-1061 438-1569 1665-1128 2724l1597 3856c437 1060 1664 1568 2723 1127l1750-724c1328 1923 3007 3623 4990 4995l-723 1748c-439 1059 70 2286 1128 2724l3857 1598c1059 438 2286-70 2725-1129l724-1749c2373 435 4764 417 7062-1l724 1749c438 1061 1665 1569 2724 1128l3856-1596c1060-438 1568-1665 1128-2723l-724-1751c1923-1328 3623-3007 4994-4991l1748 724c1060 439 2286-70 2725-1128l1597-3857c439-1059-69-2285-1128-2724l-1749-724c434-2374 419-4763-1-7062l1749-725c1061-438 1569-1665 1128-2724l-1597-3856c-437-1060-1664-1568-2723-1127l-1750 723c-1328-1922-3008-3623-4992-4995l724-1748c439-1059-69-2285-1127-2723L29439 158c-1057-439-2284 70-2723 1129l-724 1748c-2373-434-4763-419-7062 2zm-2304 29648c-1617 1827-4642 2248-6568 3063 837 782 1749 1486 2723 2100-7373-4627-10556-14032-7113-22343C9508 6232 20144 1827 29417 5668s13678 14477 9837 23749c-1346 3252-3529 5904-6195 7813 633-456 1236-951 1805-1482-1926-815-4951-1236-6567-3063l-3046 7740c-1992 311-4051 294-6095-86l516 87-3046-7741zm6993 1251h-2316c-591 0-1075 484-1075 1076 0 770 569 1410 1310 1522l-704 4033c536 47 1078 71 1627 71 548 0 1091-24 1627-71l-704-4033c739-112 1310-753 1310-1523 0-591-484-1075-1075-1075z"></path>
  </symbol>
  <symbol fill-rule="evenodd" viewBox="0 0 598 654" id="footer--arrow">
    <path d="M350 271L215 136c-31-31-31-82 0-113s82-31 113 0l247 248c15 15 23 35 23 56h0 0c0 20-8 40-23 56L328 630c-31 31-82 31-113 0s-31-81 0-112l135-135c31-31 31-81 0-112zm248 56h0 0zm-493-38l-90-89c-20-21-20-55 0-75 21-21 55-21 75 0l165 164c10 11 15 24 15 38h0 0c0 13-5 27-15 37L90 529c-20 20-54 20-75 0-20-21-20-54 0-75l90-90c21-21 21-54 0-75zm165 38h0 0z"></path>
  </symbol>
  <symbol fill-rule="evenodd" viewBox="0 0 3657 3657" id="footer--dribble">
    <path fill-rule="nonzero" d="M1829 0c505 0 962 205 1293 535v1c331 331 535 788 535 1293 0 504-204 961-535 1292v1c-331 331-788 535-1293 535s-962-204-1293-535v-1h0C205 2790 0 2333 0 1829c0-505 205-962 536-1293h0 0C867 205 1324 0 1829 0zm67 2066c58-16 116-30 173-42-47-156-102-313-164-472l-140 41h-2-1c-474 127-932 145-1288 72-86-17-167-41-241-69-11 76-17 154-17 233 0 380 131 729 351 1004 51-64 111-127 180-188 270-240 673-452 1144-578l5-1zm386-80c328-49 636-44 891 9 90 18 174 43 251 73 11-78 17-158 17-239 0-378-130-726-347-1001-50 63-109 124-176 183-203 180-482 345-809 470 66 170 124 338 173 505zm1095 293c-72-31-155-56-247-75-225-46-497-51-790-11 101 387 157 758 169 1098 172-80 328-190 460-322h0c189-189 332-425 408-690zm-1249-48c-60 12-120 26-181 43h-2c-439 118-811 312-1057 531-69 61-128 125-176 188 290 278 683 448 1117 448 162 0 319-24 467-69-5-349-61-736-168-1141zM278 1383c71 30 151 54 239 72 325 66 747 48 1190-70h1l1-1c39-10 77-21 115-32-29-69-60-138-92-207l-2-3v-2l-1-1c-138-296-293-572-458-824-221 81-419 210-583 373h0c-190 191-333 429-410 695zM1487 252c158 247 306 515 439 800l1 2h0c36 76 69 152 101 228 304-116 562-267 748-432 67-60 125-121 172-183-290-279-685-451-1119-451-117 0-232 12-342 36z"></path>
  </symbol>
  <symbol fill-rule="evenodd" viewBox="0 0 771 771" id="footer--email">
    <path fill-rule="nonzero" d="M386 0c52 0 102 10 147 29h0c47 20 90 48 125 84 36 35 64 78 84 125h0c19 46 29 96 29 148s-10 102-29 147h0c-20 47-48 90-84 125-35 36-78 64-125 84h0c-45 19-95 29-147 29s-102-10-148-29h0c-47-20-90-48-125-84-35-35-64-78-84-125h0C10 488 0 438 0 386s10-102 29-148h0c20-47 48-90 84-125 35-36 78-64 125-84h0c46-19 96-29 148-29zm318 255L435 524c-6 7-14 12-22 15-9 4-18 6-27 6s-19-2-27-6c-9-3-17-8-23-15L67 255c-16 40-25 84-25 131 0 46 9 91 26 131h0c17 42 43 80 74 112 32 32 70 57 112 75h0c40 16 85 26 132 26 46 0 91-10 131-26h0c42-18 80-43 112-75s57-70 75-112h0c16-40 26-85 26-131 0-47-9-91-26-131zM88 214l279 279c3 3 6 4 8 6 4 1 7 2 11 2 3 0 7-1 10-2 3-2 6-3 8-6l280-279c-15-26-34-50-55-72-32-31-70-57-112-74h0c-40-17-85-26-131-26-47 0-92 9-132 26h0c-42 17-80 43-112 74-21 22-39 46-54 72z"></path>
  </symbol>
  <symbol fill-rule="evenodd" viewBox="0 0 3754 3754" id="footer--github">
    <path fill-rule="nonzero" d="M1877 0c253 0 496 51 718 143h0c230 95 437 234 610 407 172 173 311 379 407 609v1c92 221 142 464 142 717 0 254-50 496-142 718h0c-96 230-235 437-407 610-173 172-380 311-610 407h0c-222 92-465 142-718 142s-496-50-717-142h-1c-230-96-437-235-609-407-173-173-312-380-407-610h0C51 2373 0 2131 0 1877c0-253 51-496 143-717v-1c95-230 234-436 407-609s379-312 609-407h1C1381 51 1624 0 1877 0zm-434 3495l-1-60h0l-2-127c-71 5-145 5-216-6-104-17-201-58-278-143-48-54-76-113-103-171l-1-2h0l-28-56h0c-8-16-18-32-28-47-5-6-11-12-19-18-10-9-21-17-31-25h0c-24-18-47-36-69-58-25-26-46-56-60-95h0l-12-36-21-59 56-27 35-16c231-111 364 57 481 207h0c15 20 31 39 48 59 32 36 63 61 91 75 26 13 50 17 71 13 22-4 44-17 64-35h0c21-19 41-44 59-74-48-10-96-22-143-37-81-27-160-64-237-118-64-44-119-99-164-161-48-67-85-142-112-220h0c-34-101-54-219-55-336-2-112 13-225 48-323h0c9-25 18-48 28-69h0c11-24 23-46 35-68h0l1-2 3-4c10-15 20-28 30-41h1l3-4 1-1c6-8 13-16 18-24h0 1l-8-32-1-1-7-30-1-1c-3-12-5-24-6-36h0l-4-32-5-45h4c0-16 1-32 2-47 1-21 5-44 9-67 4-24 10-46 15-67l2-8h0c6-28 13-61 30-93h1c21-38 54-71 109-82h1l6-1c143-24 289 59 397 120h0 1l1 1 25 14h0l19 11 4 3 19 12v1l19 12h1v1l16-4h1l6-1 45-13c53-16 112-26 170-31 57-5 114-6 166-6 56 0 121 2 186 9h0c53 6 104 14 149 27l29 9 1 1c16 4 31 8 38 9l1-1h1l19-12v-1l19-12 1-1c8-5 17-11 25-15l22-12c52-29 113-64 179-89 71-28 147-44 220-32h2c58 11 92 43 114 83h1c17 32 24 65 30 93h0l2 9c6 21 11 43 15 65 4 24 7 46 9 67 2 20 2 42 2 65v1c0 21-2 43-5 62h0c-1 11-4 22-6 33l-1 1-7 30-1 1-8 32v1l1-1 18 24 1 3h1l2 2c11 13 22 27 32 41v1l1 2 2 3c12 21 24 43 35 67s20 48 28 70h0c35 99 50 211 48 323-1 117-21 235-56 337h0c-26 77-63 152-111 219-45 62-99 117-164 161-77 54-156 91-237 118-49 16-98 28-148 38 63 163 53 371 44 555l-4 80 13-5h0c205-85 389-209 544-364s279-339 364-544h0c81-196 126-412 126-640 0-227-45-444-126-640h0c-85-204-209-389-364-544-155-154-339-279-544-364h0c-196-81-413-126-640-126s-444 45-640 126h0c-204 85-389 210-544 364-154 155-279 340-364 544h0c-81 196-126 413-126 640 0 228 45 444 126 640h0c85 205 210 389 364 544 155 155 340 279 544 364h0c67 28 136 51 206 70zm921-15l5-136c10-200 21-429-66-562l-58-88 104-18c76-14 150-29 220-52 69-22 135-53 200-99h1c51-35 94-79 130-129 39-54 70-116 93-182v-1c30-88 47-191 49-293 1-96-12-192-41-275h-1c-7-21-15-41-22-58-8-18-18-36-28-54-8-11-17-22-25-32l-2-2-1-2h0c-8-9-15-19-23-28v-1c-10-14-18-27-24-40l-4-15c-3-16-1-35 4-54 2-11 6-26 10-41l8-28h-1c2-7 4-14 4-17v-4c2-16 4-32 4-46h0c0-15 0-32-2-50-1-20-4-38-7-54-3-18-8-37-13-56l-1-4-2-10v-1c-4-18-8-39-16-53h0c-4-7-9-13-18-14h-1c-45-7-96 5-146 24-56 22-113 54-160 81l-25 14-3 1-12 8-18 12c-9 6-18 12-27 17-13 8-26 14-39 17l-6 1c-38 7-90-9-132-22h-1c-37-11-81-18-125-23-58-6-119-8-172-8-49 0-102 2-154 6h0c-48 4-94 11-136 23l-6 2c-19 6-40 12-61 17h0c-26 6-52 9-73 5l-6-1c-13-3-26-9-39-17h0c-9-5-18-11-27-18v1l-16-12-18-10v1l-24-14v-1h0-1c-90-51-212-119-306-104-9 1-14 7-18 13h0c-8 14-12 36-16 54l-2 11-1 4c-5 19-10 38-13 57-3 16-6 34-7 53-2 17-3 35-2 50h0c0 14 2 30 4 46l2 15 2 6h0l7 28 11 41c4 19 6 38 3 54l-4 15c-6 13-15 27-24 40v1l-24 29v1l-4 4c-8 10-17 21-23 31-10 17-19 35-28 53h1c-10 21-18 40-24 57v1c-29 83-42 179-41 275 2 102 19 205 49 293h0c23 67 54 129 93 184 36 49 79 93 130 128h1c65 46 132 77 200 99 70 23 144 38 220 52l101 17-53 88-12 19-10 17c-31 61-68 115-112 154h0c-39 36-84 60-133 69h-1c-49 9-102 1-157-26-43-22-88-57-132-107l-2-1c-16-19-33-41-51-64h0c-80-102-169-215-287-178 5 8 10 15 17 21 14 15 33 30 52 44 14 10 27 20 39 30 14 12 28 26 39 41l2 2c14 19 27 41 38 63h0c10 19 21 41 31 63h0v1c23 49 46 98 81 137 53 58 122 87 196 99 81 12 171 7 255-1l74-8 3 75 4 201v1l2 93c95 17 194 25 294 25 170 0 333-25 487-71zm-771-2466c15-4 30-9 44-13l-44 13z"></path>
  </symbol>
  <symbol fill-rule="nonzero" viewBox="0 0 1498 1498" id="footer--help">
    <path d="M749 0c101 0 198 20 286 57h0c92 38 175 93 243 162 69 69 125 152 163 244h0c37 88 57 185 57 286s-20 198-57 286h0c-38 92-94 175-163 243-68 69-151 125-243 163h0c-88 37-185 57-286 57s-198-20-286-57h0c-92-38-175-94-244-163-68-68-124-151-162-243h0C20 947 0 850 0 749s20-198 57-286h0c38-92 93-175 162-244S371 95 463 57h0C551 20 648 0 749 0zm255 131c-78-32-164-50-255-50s-177 18-255 50h0c-82 34-156 84-217 146-62 61-112 135-146 217h0c-32 78-50 164-50 255s18 177 50 255h0c34 82 84 156 146 217 61 62 135 112 217 145h0c78 33 164 51 255 51s177-18 255-51h0c82-33 155-83 217-145s112-135 145-217h0c33-78 51-164 51-255s-18-177-51-255h0c-33-82-83-156-145-217-62-62-135-112-217-146h0zM669 1191c-22 0-40-8-55-23-15-14-22-33-22-54 0-22 7-40 22-55s33-22 55-22c21 0 38 7 53 22 14 15 21 33 21 55 0 21-7 40-21 54-15 15-32 23-53 23zm78-884c82 0 148 23 199 70 50 46 75 108 75 186 0 87-26 151-80 193-46 35-106 56-180 61-22 2-39 20-40 42l-1 35c-1 24-20 42-43 42h-14c-24 0-43-18-44-42l-2-109c-1-12 3-23 12-32 8-8 18-13 30-13 79-1 140-13 185-37 46-25 69-72 69-140 0-50-14-89-44-118s-70-44-121-44-91 14-121 42c-21 20-35 46-41 78-3 21-21 36-42 36h-21c-13 0-24-6-33-16-8-10-12-22-9-35 5-29 15-56 29-80 22-38 54-67 95-88s88-31 142-31z"></path>
  </symbol>
  <symbol fill-rule="nonzero" viewBox="0 0 3588 3588" id="footer--instagram">
    <path d="M1794 1076c97 0 190 20 274 55 88 36 167 90 233 156h0c66 65 119 145 156 233 35 85 55 178 55 274 0 97-20 190-55 274-36 88-90 167-156 233h0c-66 66-145 120-233 156-84 35-177 55-274 55-96 0-189-20-274-55-88-37-168-90-233-156h0c-66-66-120-145-156-233-35-84-55-177-55-274 0-96 20-189 55-274 37-88 90-168 156-233 65-66 145-119 233-156 85-35 178-55 274-55zm196 244c-60-25-126-39-196-39s-136 14-196 39c-62 26-119 64-166 112-48 47-86 104-112 166-25 60-39 126-39 196s14 136 39 196c26 63 64 119 111 166h1c47 48 104 86 166 112 60 25 126 39 196 39s136-14 196-39c63-26 119-64 166-111l1-1c47-47 85-103 111-166 25-60 39-126 39-196s-14-136-39-196c-26-62-64-119-112-166v-1c-47-47-103-85-166-111zm666-592c27 0 53 5 78 15h0c25 11 48 26 67 45 18 18 34 41 44 66h0c10 25 16 51 16 79 0 27-6 53-16 78h0c-10 25-26 48-44 66-19 19-42 34-67 45-24 10-51 16-78 16-28 0-55-6-79-16-25-11-48-26-66-45-19-18-34-41-45-66-10-24-15-51-15-78 0-28 5-55 15-79 11-25 26-48 45-66 18-19 41-34 66-45h0c25-10 51-15 79-15zm39 109c-12-4-25-7-39-7s-28 3-40 7v1c-12 5-23 13-33 22-9 9-17 21-22 33s-8 25-8 40c0 13 3 27 8 39s13 24 22 33c10 9 21 17 33 22s26 8 40 8 27-3 39-8 24-13 33-22c10-9 17-21 23-33h0c4-12 7-25 7-39 0-15-3-28-7-40h0c-6-12-13-24-23-33-9-9-21-17-33-22v-1zM1794 0c242 0 474 49 686 136h0c220 91 418 224 583 390 165 165 298 362 389 582h0c88 212 136 444 136 686s-48 474-136 686h0c-91 220-224 418-389 583s-363 298-583 389h0c-212 88-444 136-686 136s-474-48-686-136h0c-220-91-418-224-582-389-165-165-299-363-390-583h0C49 2268 0 2036 0 1794s49-474 136-686h0c91-220 224-417 390-582 165-166 362-299 582-390h0C1320 49 1552 0 1794 0zm612 315c-188-78-395-121-612-121s-424 43-612 121h0c-195 81-371 200-519 348s-267 324-348 519h0c-78 188-121 395-121 612s43 424 121 612h0c81 195 200 372 348 520 147 147 324 266 519 347v1c188 77 395 120 612 120s424-43 612-120v-1c195-81 372-200 520-347 147-148 266-325 347-520h1c77-188 120-395 120-612s-43-424-120-612h-1c-81-195-200-371-347-519-148-148-325-267-520-348h0z"></path>
  </symbol>
  <symbol fill-rule="nonzero" viewBox="0 0 3598 3598" id="footer--linkedin">
    <path d="M1099 1227c-39 0-71-13-98-40s-40-59-40-98 13-71 40-98 59-40 98-40c37 0 69 13 95 40s39 59 39 98-13 71-39 98-58 40-95 40zm98 199v1221H994V1426h203zm941-23c148 0 269 45 361 135s138 220 138 389v720h-201v-691c0-122-30-215-91-280-61-64-144-97-250-97-107 0-192 34-255 101-63 66-95 164-95 292v675h-202V1426h202v173c41-62 95-110 164-145 69-34 145-51 229-51zM1799 0c242 0 475 49 687 137h1c220 91 418 224 584 390 165 165 299 364 390 584h0c88 213 137 445 137 688s-49 475-137 687v1c-91 220-225 418-390 584-166 165-364 299-584 390h-1c-212 88-445 137-687 137-243 0-475-49-688-137h0c-220-91-419-225-584-390-165-166-299-364-390-584v-1C49 2274 0 2042 0 1799s49-475 137-688h0c91-220 224-419 390-584 165-166 364-299 584-390h0C1324 49 1556 0 1799 0zm613 316c-188-78-395-122-613-122s-426 44-614 122h0c-196 81-372 200-521 348-148 149-267 326-348 521h0c-78 189-122 396-122 614s44 425 122 613h0c81 196 200 373 348 521 149 148 325 268 521 349h0c188 78 396 121 614 121s425-43 613-121h0c196-81 373-201 521-349s268-325 349-521h0c78-188 121-395 121-613s-43-425-121-614h0c-81-195-201-372-349-521-148-148-325-267-521-348h0z"></path>
  </symbol>
  <symbol fill-rule="nonzero" viewBox="0 0 1498 1498" id="footer--payment">
    <path d="M672 1138c-19-4-38-11-56-19-40-18-72-43-95-76-13-17-22-36-28-56-4-14-1-27 7-38 9-12 21-18 35-18h23c19 0 36 12 41 31 8 23 21 44 39 61s40 28 68 33V780c-43-11-77-23-104-35-31-13-58-34-80-63-21-29-32-67-32-115 0-43 10-80 32-113 21-33 52-58 91-76 18-8 38-15 59-19 20-5 34-22 34-43v-63h86v64c0 21 14 38 34 42 38 9 72 25 100 47 30 24 52 52 65 86 6 14 4 28-4 40-9 12-21 19-36 19h-25c-18 0-33-10-40-27-7-19-21-36-39-52-16-12-34-22-55-27v265c43 12 79 24 107 37 31 13 58 35 80 63 23 29 34 68 34 117 0 38-10 73-30 107-20 33-50 61-90 81-20 11-43 19-67 24-20 5-34 22-34 43v62h-86v-64c0-20-14-38-34-42zm120-80c31-5 56-16 76-34 28-24 42-55 42-93 0-29-8-54-24-72-17-19-37-33-62-43l-32-11v253zm-86-618c-28 5-53 15-73 31-26 22-40 53-40 92 0 28 8 52 24 69 16 18 36 32 59 41 9 4 19 7 30 11V440zM749 0c101 0 198 20 286 57h0c92 38 175 93 243 162 69 69 125 152 163 244h0c37 88 57 185 57 286s-20 198-57 286h0c-38 92-94 175-163 243-68 69-151 125-243 163h0c-88 37-185 57-286 57s-198-20-286-57h0c-92-38-175-94-244-163-68-68-124-151-162-243h0C20 947 0 850 0 749s20-198 57-286h0c38-92 93-175 162-244S371 95 463 57h0C551 20 648 0 749 0zm255 131c-78-32-164-50-255-50s-177 18-255 50h0c-82 34-156 84-217 146-62 61-112 135-146 217h0c-32 78-50 164-50 255s18 177 50 255h0c34 82 84 156 146 217 61 62 135 112 217 145h0c78 33 164 51 255 51s177-18 255-51h0c82-33 155-83 217-145s112-135 145-217h0c33-78 51-164 51-255s-18-177-51-255h0c-33-82-83-156-145-217-62-62-135-112-217-146h0z"></path>
  </symbol>
  <symbol fill-rule="nonzero" viewBox="0 0 770 770" id="footer--telegram">
    <path d="M378 414l-36 37c-4 4-6 8-7 13l-4 28c9-8 18-16 26-24 8-7 20-7 28-1 17 13 34 25 51 37 6 5 14 6 21 3 8-3 13-9 14-16l39-194c2-8-1-16-7-21-7-6-15-7-23-4L220 381l50 17c4 2 8 2 13 0l73-21c10-3 20 1 26 10 5 9 4 20-4 27zm-105 32c-1-1-1-1-2-1l-96-34c-9-3-15-11-15-20v-17c-1-10 5-18 13-21l366-153c8-3 16-2 23 3 6 6 9 14 8 22l-70 342c-1 7-6 13-13 16-8 3-15 2-21-3l-78-57c-8-6-20-5-28 2l-26 23c-7 6-17 8-25 3-5-3-10-5-15-8-9-5-13-14-12-23l8-49c1-12-6-23-17-25zM385 0c52 0 102 10 147 29h0c47 20 90 48 125 84 36 35 64 78 84 125h0c19 45 29 95 29 147s-10 102-29 147h0c-20 47-48 90-84 125-35 36-78 64-125 84h0c-45 19-95 29-147 29s-102-10-147-29h0c-47-20-90-48-125-84-36-35-64-78-84-125h0C10 487 0 437 0 385s10-102 29-147h0c20-47 48-90 84-125 35-36 78-64 125-84h0c45-19 95-29 147-29zm131 68c-40-17-84-26-131-26s-91 9-131 26h0c-42 17-80 42-112 74s-57 70-74 112h0c-17 40-26 84-26 131s9 91 26 131h0c17 42 43 80 74 112 32 31 70 57 112 74h0c40 17 84 26 131 26s91-9 131-26h0c42-17 80-42 112-74s57-70 74-112h0c17-40 26-84 26-131s-9-91-26-131h0c-17-42-42-80-74-112s-70-57-112-74h0z"></path>
  </symbol>
  <symbol fill-rule="nonzero" viewBox="0 0 770 770" id="footer--whatsapp">
    <path d="M220 407c-21-35-34-71-35-104-2-32 7-62 30-87h0c6-6 12-11 19-16h0c7-5 14-9 22-11 9-3 18-5 27-4h0c9 0 19 3 28 7h0c5 2 10 5 13 9 3 3 6 7 9 12h0c2 4 4 7 5 11h0c2 3 4 8 5 12l11 30h-1c1 4 2 9 3 13h0c1 4 2 9 3 14h0c2 16 2 25 0 33h0c-3 11-9 16-17 23h0c-2 1-5 4-7 7h0 0 0s1-1 1 0h0c1 5 4 12 8 19 3 4 6 9 10 14h0c3 4 8 9 13 14 4 5 9 9 14 13h0c4 3 9 7 14 10 7 4 13 7 19 7v1 1h-1 1 0c3-3 5-6 7-8h0 0c7-8 11-13 22-16 8-3 18-2 33 0 6 1 10 2 14 3h0l14 3v-2l30 11a104.13 104.13 0 0 0 12 5h0c4 2 8 4 11 6h0c4 2 8 5 12 8 4 4 7 8 9 13h0c4 10 6 19 7 29h0c0 9-1 18-4 27h0c-3 8-7 15-11 22h0c-5 7-11 13-17 18l-15 15-2-2c-20 14-44 19-69 18-34-2-70-15-104-35-14-9-28-18-41-28-14-11-27-23-39-35s-24-25-35-39c-10-13-20-27-28-41zm9-106c1 26 12 55 29 84 7 12 15 24 25 36 9 12 20 24 31 35s23 22 35 31 24 18 36 25c29 17 58 28 84 29 21 1 40-5 55-19h0 0c4-3 7-7 10-11h0c2-4 4-7 6-11h0c1-4 1-7 1-11s-1-8-3-12c0-1-2-1-3-2h0c-2-1-4-3-7-4h0l-7-3h-1 0l-2-1c-3-1-7-2-11-4-5-1-9-2-13-3s-9-3-13-3h0c-5-1-9-2-11-3-9-1-13-1-14-1s0 1-2 3h1-1 0 0c-3 3-6 7-12 12h1c-10 8-22 11-36 9h0c-11-2-23-7-34-14-7-3-13-8-19-13h0c-7-5-13-10-18-16-6-5-11-11-16-18h-1c-4-6-9-12-13-19-7-12-12-24-13-34h0c-2-14 0-26 9-36h0c5-5 8-9 11-11l1-1h0 0 0 0 0c2-1 2 0 3-1h0c0-1 0-5-2-14h0c0-2-1-6-2-11h0c-1-5-2-9-3-13s-2-9-4-13c-1-5-3-9-4-12l-1-3h0 0l-2-6h-1c-1-3-2-6-3-7h0c-1-2-2-3-2-4-4-1-8-2-12-2-4-1-8 0-11 1-4 1-8 3-11 6h0c-4 3-8 6-12 10h0c-14 15-19 34-18 55zm185 134h-1 1zM385 0c52 0 101 10 147 29h0c47 20 90 48 125 84 35 35 64 78 83 125h0c19 45 30 95 30 147s-11 102-30 147h0c-19 47-48 90-83 125s-78 64-125 83h0c-46 19-95 30-147 30s-102-11-147-30h0c-47-19-90-48-125-83-36-35-64-78-84-125h0C10 487 0 437 0 385s10-102 29-147h0c20-47 48-90 84-125 35-36 78-64 125-84h0c45-19 95-29 147-29zm131 68c-40-17-85-26-131-26-47 0-91 9-131 26h0c-42 17-80 42-112 74s-57 70-74 112h0c-17 40-26 84-26 131 0 46 9 91 26 131h0c17 42 42 80 74 112 32 31 70 57 112 74h0c40 17 84 26 131 26 46 0 91-9 131-26h0c42-17 80-43 112-74 31-32 57-70 74-112h0c17-40 26-85 26-131 0-47-9-91-26-131h0c-17-42-43-80-74-112-32-32-70-57-112-74h0z"></path>
  </symbol>
  <symbol fill-rule="evenodd" viewBox="0 0 686 618" id="footer--location">
    <path d="M396 334v51c127 12 202 56 202 90 0 39-104 93-273 93-170 0-274-54-274-93 0-34 76-78 204-90v-51C122 346 0 395 0 475c0 93 167 143 325 143 157 0 323-50 323-143 0-79-119-128-252-141zM675 22c-4-3-8-4-12-4s-8 1-11 3l-42 20c-20 9-41 14-62 14-22 0-44-6-65-15-20-11-42-16-64-16-24 0-47 5-68 16V25c0-14-11-25-25-25s-25 11-25 25v456c0 14 11 26 25 26s25-12 25-26V249c21-12 44-17 68-17 22 0 44 5 64 15 21 11 43 16 65 16 21 0 42-4 62-14l63-31c8-3 13-12 13-21V42c0-9-4-16-11-20z"></path>
  </symbol>
</svg>