<svg xmlns="http://www.w3.org/2000/svg" width="1080" height="1080" shape-rendering="geometricPrecision" image-rendering="optimizeQuality" fill-rule="evenodd" viewBox="0 0 489332 489332" xmlns:v="https://vecta.io/nano"><style><![CDATA[.B{fill:#ecefff}.C{fill:#e9cf96}.D{fill:#6f512b}.E{fill:#b75524}.F{fill:#f0d6c7}.G{fill:#b2b9d6}.H{fill:#654a2c}.I{fill:#879099}.J{fill:#4c5053}.K{fill:#101612}.L{fill:#ac8059}.M{fill:#000407}.N{fill:#9b7a5b}]]></style><path d="M0 0h489332v489332H0z"/><path fill="#301500" d="M271773 196480l-23033 8358c-1873 987 6566 711 15080 5912 4135 2526 8288 6344 11285 12227l-172-5710-3160-20787z"/><path d="M262112 124717s8510-1530 13838-950l-1195-782s13242-630 23172 3093c-4933-7930-11359-5540-15450-6527-4091-988-7548-8298-7548-8298-4386 79-9978 786-17619 2612 0 0-5293 444-8969 1620l13771 9232z" class="E"/><path d="M296309 117363c-1339-1270-1603-2808-1603-2808-3863 367-17659 302-17659 302 1385 2000 3323 4185 5430 4694 4091 987 10517-1403 15450 6527 1795 674 3481 1490 4964 2477 0 0 16387 3436 31099 1236-7600-761-11726-8620-16734-9748-5009-1128-19608-1411-20947-2680z" class="C"/><g class="D"><path d="M277047 114857l17659-303-760-102c-6107-887-10030-3362-19017-3199 0 0 814 1720 2118 3604z"/><path d="M294706 114555s264 1538 1603 2808c1339 1269 15938 1552 20947 2680 5008 1128 9134 8987 16734 9748-301-214-632-418-997-607-5460-2819-9828-10618-9828-10618-1418-1366-2607-2851-3601-4355-934 152-2832 94-2832 94s-12956 1387-22026 250z"/></g><path fill="#5b3a17" d="M253586 95109s21687 2344 39565 8057l23581 11139 2832-94c-4021-6089-4855-12492-4855-12492-16457-7595-35564-13225-49660-16798-1645 1177-5646 4262-11463 10188z"/><path d="M357719 147775s-9023-148-10998 1828c-1975 1975 3037 4935 12098 6488 2651-1637 4937-1669 4937-1669l-6037-6647z" class="C"/><path d="M346721 149603c1975-1976 10998-1828 10998-1828l-6669-7223c-592-56-1859-1373-2395-1444-11731-1557-10661-6462-14665-9317-14712 2200-31099-1236-31100-1235 9671 6446 16850 13185 27694 11721 1915-259 4483 7385 11879 14661 2946 2897 6718 5728 10620 8129 1170-2693 2662-4547 4158-5824 530-453 1061-833 1578-1152-9061-1553-14073-4513-12098-6488zm-11809 44745c910-22305-14443-42016-7062-39100 6300 2489 19197 20517 19198 20515l-4004-13089c-10167-8752-11697-9944-30579-19945l-36515-18962c-5328-580-13838 950-13838 950l8022 4389s15239 5825 21444 11219c1318-9525 31592 22135 36677 34734 1833 4541 5425 11674 6624 19777l33-488zm-47459 3684c-3103-3245-9434-8858-9434-8858 398 7557-554 17014-3086 28093 5818-10811 15623-15991 12520-19235z" class="D"/><g class="F"><path d="M290927 161185c5385 3745 9320 7052 12037 11094-6642 1153-13846-3330-17238-4757-1772-743-6463-2145-10793-4039l-902-405a212 212 0 0 1-63-29c-2335-863-7211 4635-7777 5075 3627 1808 6658 3860 8011 6058 2157 3504 3476 8558 3817 14992 0 0 6331 5613 9434 8858 3103 3244-6702 8424-12520 19235l8638 8400c-296-1647 2-3427 1301-5257 1869-2633 4196-5842 6885-9058 0 0 1451-9477 1606-19333-513-1543-1230-3065-2230-4266-3355-4030-6154-6888-5056-9232 1099-2345 7473-3810 9379 0 622 1245 752 3909 644 6930 1472-1198 3486-1718 5913-1331-221-5254 1376-6173 7924-6607 4250-282 9535 1090 13200 521 3223-501 5118-2975 5118-2975-1829-4533-6920-11534-12749-18196-12987-9567-25375-11772-25375-11772-641 1460-1449 2950-2361 4416 3491 1227 7013 2625 10500 4217 0 0-4708-625-12628-1074-1603 2188-3347 4228-4997 5915 3849 165 7735 848 10282 2620zm23838 59630c-8938 6006-21688 3663-21688 3663s-1689 4753-1656 9236l4115 4354c6727-2132 12387-4472 17130-6962-654 2-1239-58-1740-173 15320-9149 21661-20342 23454-31294l303-2214c-1130 1155-4453 4043-10685 5658 0 0-296 11725-9233 17732z"/><path d="M318771 196882l15963 44 5-52 140-2038c-1199-8103-4791-15236-6624-19777 0 0-2786 11393-6742 12602-1953 596-6640 751-10885 753 2551 2025 5290 4805 8143 8468z"/></g><path fill="#795636" d="M318771 196882c-2853-3663-5592-6443-8143-8468-4352 3-8237-153-8237-153l-378-4141c-2427-387-4441 133-5913 1331-222 6218-1450 13953-1450 13953s-81-3754-1287-7385c-155 9856-1606 19333-1606 19333 4000-4785 8806-9590 14105-12554 2360-1319 7121-1780 12909-1916z"/><path fill="#77897d" d="M318593 202690s-4458-1938-9429-1164c844 9756-4892 13743-14031 10704l-2479 3501s4333 5769 14443 2875c12531-4542 11496-15916 11496-15916z"/><path fill="#415347" d="M295133 212230c9139 3039 14875-948 14031-10704-1396 215-2832 646-4222 1392l-769 444s2615 7027-6530 5805l-2510 3063z"/><path fill="#000c0a" d="M297643 209167c9145 1222 6530-5805 6530-5805-2360 1450-4635 3656-6530 5805z"/><path d="M276657 275290s1543 6398 7586 11276c8901-25052 4044-43493 4044-43493-2895-1316-5931-3152-8132-4895l-229-182c-2430-1969-3644-6018-4270-10178l-551-4841c-2997-5883-7150-9701-11285-12227 0 0 2600 10555 4592 22247 17074 14993 2851 6166 8846 32086 1076 4653 715 7943-601 10207z" class="D"/><path fill="#856364" d="M248149 326923c10569-4194 2325-12976 6392-17948 0 0-3553-3074-3377 2922 176 5995-3305 9300-3305 9300 529-307 623 3649 290 5726z"/><path fill="#443e32" d="M310234 232330c7878 6919 14750 8852 17648 9385-1991-2542-1037-7776 3777-7595 8304 312 9875-11621 6071-15821-4140-4572-7934 3175-10960 6065l-117 111c-3876 3667-7467 5337-10237 6066-1395 388-2667 563-3750 565l-2432 1224z"/><path d="M310234 232330c-4215 2036-9086 3959-14699 5739 0 0 2270 1246 1537 5347a1809 1809 0 0 1-34 157c-467 1885-2967 1682-5957 612l-2794-1112s379 1438 731 4058c2457 396 5521 1941 6728 2588l-389-633c3733 2595 7017 5315 9911 8085 0 0 3176 809 7420 289-1865-7933-2454-25130-2454-25130z" class="L"/><path fill="#827066" d="M327882 241715c-2898-533-9770-2466-17648-9385l2454 25130c3097-378 6763-1466 10180-4092-201-2080-765-4478 145-4407 557 43 2161 55 4049 112 1245-1671 2389-3658 3377-6016-1101-62-1961-581-2557-1342z"/><path d="M345966 259742c6311-10751 5008-20734 5008-20734-5412-3075-8993-4405-9578-4615-1114 1413-2387 2929-3715 4291-2861 3194-5229 4372-7011 4378h-30a4340 4340 0 0 1-200-5c-989 2358-2133 4345-3378 6016 3524 104 8042 361 8602 1239 859 1351-5281 7369-7248 7860-2550 639 216 11816-3561 8230 0 0-1597-4667-8599-6877-7002-2211 3195-3195 5650-3195 1058 0 1114-1389 962-2962-3417 2626-7083 3714-10180 4092-4244 520-7420-289-7420-289 18357 17561 21059 37109 23210 39385 1273 1347 3145-4663 3447-11573 479-10914-3500-13315 4805-20643 2553-2252 5768-4292 9236-4598z" class="B"/><path d="M350974 239008s1303 9983-5008 20734c762-67 1538-50 2321 66 7486 1111 14490 13470 15984 21527 11896-14626 9972-24727 9972-24727l-8339-7354-5975 15497 613-19587c-3564-2562-6804-4586-9568-6156z" class="G"/><path d="M338146 274655c6268-7136 32403 12824-2489 39046 0 0 3590 7914 14654-4835 9010-10383 14361-16905 14251-24835-104-7611-7889-22979-16275-24223-4344-647-8442 1785-11557 4532-8305 7328-4326 9729-4805 20643-302 6910-2174 12920-3447 11573-2151-2276-4853-21824-23209-39386-2895-2769-6179-5489-9912-8084 0 0 17472 16762 27832 45203 1183 3246 2273 6644 3233 10187 0 0 6009 6005 8940 144s-1466-25131 2784-29965zm-16098 56023c-17437 11723-51287 13480-51287 13480l23220 2332c2035 55 4084-46 6469-387 1376-197 2863-473 4526-845 12456-2784 17072-14580 17072-14580zm-24315 2197c4652-1653 15431-6591 20039-9612 1923-1260 2770-2188 1648-2403-13801-2652-25048 7077-30479 6447-6301-732-22128 5715-22128 5715 735 0 24328 2198 30920-147zm-19264-15899c30260-439 40737-9596 40737-9596s-9088-2345-19345-1172c-10256 1173-21392 10768-21392 10768zm94798-74205c-4978 9817-367 11065 6081 20736s1833 9159-2565 12969c-4397 3811-7619-6447-8205 8206-587 14653-5569 15827-13188 24618-6959 8032-11162 12549 3350 16957l4645 1254 6739 1112c17300 1219 15293-14461 12856-28660l-1242-7363c-906-5971-1201-10951 910-13193 3889-4131 10293-9472 10447-14016 31-936-202-1839-778-2690-3368-4983-10552-1468-7328-20078l2175-16293 602-8429c665-14408-802-27613-7759-27887l-1045-30c-9975-189-8241 3133-5549 8237 880 1667 1624 3506 2238 5468 3829 12230 2607 29240-2384 39082zm-70876-54510l19122-600c3956-1209 6742-12602 6742-12602s-1895 2474-5118 2975c-3665 569-8950-803-13200-521-7990 530-8609 1781-7546 10748zm-7741 11143s2711-17072 806-20883c-1906-3810-8280-2345-9379 0-1098 2344 1701 5202 5056 9232 3354 4030 3517 11651 3517 11651zm-14005-40839c-6338-272-12576 862-12576 862 1440 1341 3604 2566 5947 3645 6 2 10 4 15 6l11695 4444c3392 1427 10596 5910 17238 4757-2717-4042-6652-7349-12037-11094-2547-1772-6433-2455-10282-2620zm25217 40233c-8862 4957-16340 15059-20990 21612-1299 1830-1597 3609-1301 5256 941 5235 7896 9142 7896 9142l-45-1095c-34-4482 1655-9235 1655-9235s12750 2343 21688-3663c8937-6007 9233-17732 9233-17732 6232-1614 9555-4503 10685-5658l51-499c-12043-81-24527-556-28872 1872zm1235 19808c-10110 2894-14443-2875-14443-2875l2479-3501 2510-3063c1895-2149 4170-4355 6530-5805 255-157 512-305 769-444 1390-746 2826-1177 4222-1393 4971-773 9429 1165 9429 1165s1035 11374-11496 15916z" class="M"/><path d="M295746 249719c-1207-648-4272-2192-6728-2588 909 6759 1639 21381-4775 39435-1023 2878-2225 5842-3639 8876 591 334 279 1388-652 2892 0 0 7002 3497 13742 3057s13922-5713 14947-4982c0 0-5551-34286-12895-46690z" class="N"/><path d="M295746 249719c7344 12405 12895 46690 12895 46690 1027 732 9524 8059 9524 8059s-795-9659 5024-10179c-8947-24561-23199-40414-26920-44281l-523-289z" class="H"/><path d="M348583 300940c13633-19479-5237-32204-10437-26285-4096 4659-162 22717-2492 29271l12929-2986z" class="G"/><path d="M374243 256608s1924 10101-9972 24727c180 971 279 1879 291 2696 58 4216-1427 8033-4184 12244 5978-3169 7642-5818 7642-5818 281-1668 469-3569 558-5775 586-14653 3808-4395 8205-8206 4398-3810 9013-3298 2565-12969l-5105-6899z" class="I"/><path d="M348344 336404c10404-6813-16647-12190-30572-13141-3046 1997-8790 4832-13677 7002 4232-1 13082 207 15588 1887 817-473 1606-965 2365-1474 0 0-4616 11796-17072 14580-1663 372-3150 648-4526 845 0 0 10758 3799 13689 6435 1392 1253 6831-787 13275-4006l-4087-3714-176-2821 3879 1500s1333 1226 3579 3388l2299-1239-1651-1049-1849-5290 5114 1851 2930 1928 6953-4171-3239-3448 7178 937zm-69875-19428s11136-9595 21392-10768c10257-1173 19345 1172 19345 1172s-10477 9157-40737 9596zm0 0s17891 5150 43565-7546c0 0 2584 2614 7896 5216 4435 2173 10772 4338 19093 4967-233-2789 2679-6057 6367-10313 6472-7467 11041-9439 12630-18843 0 0-1664 2649-7642 5818l-10067 12591c-11064 12749-14654 4835-14654 4835 5949-4472 10124-8760 12926-12762l-12929 2987-292 694c-2931 5861-8940-144-8940-144-960-3543-2050-6941-3233-10187-5819 520-5024 10179-5024 10179l-9524-8059c-1022-729-8165 4511-14887 4977-4556 3864-9630 8966-15285 15590z" class="J"/><g class="B"><path d="M308782 356625l34142 37075s-6446-14801-32237-38540l-2675-1026 770 2491zm14545-11807l-176-2821 3879 1500s20807 19128 36500 39582l-40203-38261zm7930-221l-1849-5290 5114 1851s58978 39407 119986 66915c0 0-11332-2158-28115-9321-22386-9555-54393-28250-95136-54155zm128222 49322s-71194-39617-115074-55004l-3239-3448 7178 937 95180 45070s15515 10328 15955 12445zm-100739-67662s14692 16085 74995 18553c0 0-46021 8463-78465-11461l-5641-6612s4173 138 9111-480z"/><path d="M387977 329732s27065 19133 45227 40644c-12634-18867-23769-27659-41964-42672l-4938-2601 1675 4629zm39011-16119s11369 19152 52453 17919c0 0-27774 5291-53606-8374l-5862-12962 7015 3417zm-12620 17516s12431 9170 39673 7495c0 0-24370 6786-37998 1586l-5642-6964 3967-2117zm-77283 53152l-840-1173 840 1173zm-2617-3562l26097 27881-37557-47255-7647-1781 19107 21155z"/></g><path d="M354343 187006c6769 9025 11234 17569 13494 26302 2446-2718 5045-5892 7814-9619-614-1962-1358-3801-2238-5468-2692-5104-4426-8426 5549-8237-1212-3440-3022-7161-4812-10470l-2551-4494-3371-5399s-12091 4326-23667-5640l-1517-1307 4003 13091s-10114-699-10846 181c-296 3276 6144 13704 6363 20611 0 0 10862 3154 15784 12325-2862-19591-7506-26339-7507-26338l3502 4462z" class="E"/><path d="M358348 208882c-4922-9171-15784-12325-15784-12325 42 1378-161 2617-717 3629-567 1036-3605-80-5552 29-819 6615-2079 8231-3230 11339 4509 795 9068 1077 11847 2056 3904 1370 3966 7007 2955 10409-563 1896-1686 3912-3559 6489 4152-1743 9166-3975 15417-9251l-1377-12375z" class="H"/><path fill="#100000" d="M335665 250311c-560-879-5078-1135-8602-1239l-4049-112c-910-71-346 2327-145 4407 152 1573 96 2962-962 2962-2455 0-12652 984-5650 3195 7002 2210 8599 6877 8599 6877 3777 3586 1011-7591 3561-8230 1967-491 8107-6509 7248-7860z"/><path d="M368434 215835c2228 10552 1265 21323-2530 33419l8339 7354c-3248-4296-4459-6970-976-13837 4991-9842 6213-26852 2384-39082-2769 3727-5370 6901-7814 9619l597 2527zm-7892 29329l-817-23907c-6251 5276-11265 7508-15417 9251l-2997 3855 85 30c586 211 4167 1541 9578 4615 2764 1570 6004 3594 9568 6156z" class="I"/><path fill="#aeb0ab" d="M357241 157243l17982 8296-11467-11117s-2286 32-4937 1669c-517 319-1048 699-1578 1152z"/><path d="M395114 188601s6076 12646 3847 36987l20976 15042c1370-4584 1468-11848-1775-18894-4237-9205-5888-18449-8985-26923-5513-2604-8248-4954-14063-6212z" class="F"/><path fill="#ad9e89" d="M398961 225588c2229-24341-3847-36987-3847-36987-1323-285-2807-515-4518-678-9232-879-16446-8409-16446-8409l4812 10469 1045 31c6957 274 8424 13479 7759 27887l11195 7687z"/><path d="M374150 179514s7214 7530 16446 8409l4518 678c5815 1258 8550 3608 14063 6212-817-2235-1735-4417-2827-6530-12994-8161-30423-12317-34751-13263 797 1344 1671 2869 2551 4494z" class="C"/><path d="M371599 175020c4328 946 21757 5102 34751 13263-1585-3068-3539-5991-6086-8725-9752-5221-32035-9938-32035-9938l3370 5400z" class="D"/><path fill="#ae9694" d="M353100 163069c673 84 19721 2468 32560 6339-3060-1405-6517-2698-10437-3869l-17982-8296c-1496 1277-2988 3131-4158 5824 0 0 5 1 17 2z"/><path fill="#a2917f" d="M385660 169409c-12839-3872-31887-6256-32560-6340 719 446 1446 879 2178 1297l40 24c4708 2668 9412 4619 12911 5230 0 0 22283 4717 32035 9938-3527-3787-8195-7211-14604-10149z"/><path fill="#7b7774" d="M419937 240630l-20976-15042-11195-7687-602 8429s6549 3086 14574 7770c5167 3017 10947 6696 15985 10641 858-772 1645-2211 2214-4111z"/><path d="M417723 244741c-5038-3945-10818-7624-15984-10642 14060 14475 9497 15143 9497 15143-3371-293-9525 2637-9525 2637 4981 732 8352 6740 8352 6740l-9964 1760c11722 9379 16599 15577 16599 15577 1276-354 2909-374 4615-289l-3191-13826 7347-440-7746-16660zm15344 56375c-9008-869-17367-8801-17367-8801 2053-1465 6153-2050 6153-2050-8792-9672-25934-16261-25934-16261l8793-2200-11618-6413c-153 4544-6557 9885-10446 14016-2111 2242-1816 7222-910 13193 0 0 6553-15672 10803-15380 4250 293 13627 7914 14652 11577 1027 3663-586 1905-4689 2198s-11429 7913-11429 7913 4590 1461 9258 4818c3155 2269 6348 5404 8179 9543 2616 5905 10538 10069 10475 12010-95 2896-16419-985-21904 3816 0 0 6553 1418 8625 6497l8744 7847 11724 978 1356-2266c-4131-108-8135-661-11489-1941l-5642-6964 3967-2117s4951 3652 15451 5925c1263-3454 2099-7118 2640-10802-2209-905-4424-1932-6624-3094l-5862-12962 7015 3417s1694 2855 6138 6288c476-7077 129-13807-59-18785zm-41518 57853l-10528-4912c-3198 4287-7117 7568-10198 9759l9412 5539c4465-3382 8203-6924 11314-10386z" class="J"/><path d="M418122 261841l3191 13826c5355 268 11418 1585 9307-3083l-5151-11183-7347 440zm14842 35215c0-10843-16266-21100-16266-21100s-4877-6198-16599-15577l9964-1760s-3371-6008-8352-6740c0 0 6154-2930 9525-2637 0 0 4563-668-9497-15143-8026-4683-14575-7769-14575-7769l-2175 16293c-3224 18610 3960 15095 7328 20078 576 851 809 1754 777 2690l11618 6413-8793 2200s17142 6589 25934 16261c0 0-4100 585-6153 2050 0 0 8359 7932 17367 8801l-103-4060zm-83941 22557c-8321-629-14658-2794-19093-4967l-10051 6445c252 393-591 1183-2107 2172 13925 951 40976 6328 30572 13141l32976 13978c-2542-1416-7460-4648-10134-9653-5484-1865-10865-4279-15916-7380l-5641-6612s4173 138 9111-480c-6823-2072-9509-4169-9717-6644z" fill="#8f908a"/><path d="M297733 332875c-6592 2345-30185 147-30920 147 0 0 15827-6447 22128-5715 5431 630 16678-9099 30479-6447 240 45 389 124 459 231 2107-2172 10051-6445 10051-6445-5312-2602-7896-5216-7896-5216-25674 12696-43565 7546-43565 7546 5655-6624 10729-11726 15285-15590a633 633 0 0 1-60 5c-6740 440-13742-3057-13743-3057-2758 4450-10946 12834-17190 18091-8352 7032-12124 12355-13517 17191-408 1415-969 2384-1558 3048 0 0-1765 16597 29593 21579 0 0 6656-10726 16702-11753-5583-155-11079-1496-23220-2332 0 0 30967-1607 48922-12006-2505-1680-11356-1888-15588-1887-2505 1112-4786 2049-6362 2610z" class="B"/><path d="M382980 299963c2437 14199 4444 29879-12856 28660-455 1472-694 2873-759 4202 6836 3105 17548 6668 33730 9156l193-400-15311-11849-1675-4629 4938 2601 13302 11069 1166-3181c-2072-5079-8625-6497-8625-6497 5485-4801 21809-920 21904-3816 63-1941-7859-6105-10475-12010-1831-4139-5024-7274-8179-9544 3040 6444 2237 11142 2237 11142-5276-6154-19590-14904-19590-14904zm-38138 64926l-17428-16357c-6444 3219-11883 5259-13275 4006l6922 8354 1947 453 9002 10574 12832-7030zm-14233-18004l16450 16805 7934-4217-22085-13827-2299 1239z" fill="#788395"/><path d="M382980 299963s14314 8750 19590 14904c0 0 803-4698-2237-11142-4668-3356-9258-4817-9258-4817s7326-7620 11429-7913 5716 1465 4689-2198c-1025-3663-10402-11284-14652-11577-4250-292-10803 15380-10803 15380l1242 7363z" class="B"/><path d="M370124 328623c-1984-139-4221-501-6739-1112l-4645-1254s2720 2978 10625 6568c65-1329 304-2730 759-4202zm10897 25434l-36616-15142-6953 4171 33371 20730c3081-2191 7000-5472 10198-9759z" fill="#888b94"/><path fill="#301a0f" d="M319564 114211c994 1504 2183 2989 3601 4355 2784 2931 8637 2615 14864 3054 632 45 1242 54 1829 37-20432-10404-20413-27998-20413-27998l-4736 8060s834 6403 4855 12492z"/><path fill="#302b17" d="M338029 121620c-6227-439-12080-123-14864-3054 0 0 4368 7799 9828 10618l997 607c4004 2855 2934 7760 14665 9317 536 71 1803 1388 2395 1444 0 0 1193-13373-785-17476-1777-3686-5211-1569-10407-1419-587 17-1197 8-1829-37z"/><path d="M353125 121484c2198 7328 700 17740 700 17740l6626-3579c960-8658-9523-21488-7326-14161zm10181-3296c2564 7107 1123 15052 1123 15052l7496-5168c-684-2646-11185-16991-8619-9884zm6815-1751c3649 2335 5560 8636 5560 8636 2888-2444 5647-5128 8027-8014-2781-668-8248-1573-11542-1730-2308-112-3548 145-2045 1108z" class="K"/><circle cx="361480" cy="95447" r="1799" class="B"/><path fill="#101115" d="M361481 93648c993 0 1798 805 1798 1798 0 994-805 1800-1798 1800a1785 1785 0 0 1-1194-454c223 6226 267 12867-248 17191 7214 4659 17461-9107 17187-17703-471-14845-8962-17329-17882-15728l839 13648c327-340 788-552 1298-552z"/><path d="M349462 114178c-6344-9164-8608-6706-8396-4872 210 1834-1076 5544-1076 5544 1356 533 2813 813 4322 659 2163-220 3828-670 5150-1331z" class="B"/><path fill="#72777b" d="M353836 78145c1805-1440 6227-4677 9305-4458 3949 283 17208 848 20876 21301-601 10979-9046 18406-11524 20358 3318 199 8524 1067 11214 1713 4946-6002 8248-12884 7641-20321 149-30919-45574-32235-53488-27255-3574 2249-8643 9044-13126 15819 0 0 103 7115 1356 8845 198-1910 783-4034 2000-6285 4655-8605 13260-15516 17210-16363 3419-732 8120-577 8536 6646z"/><path fill="#534c54" d="M360549 114280s-10009 7430-21924-66c-4136-2218-7034-6415-7034-6415l-1925 29c56 712 225 3544-359 6364 2707 2656 6156 5227 10551 7465 5196-150 8630-2267 10407 1419 1978 4103 785 17476 785 17476l2775-1328s1498-10412-700-17740c-2197-7327 8286 5503 7326 14161l3978-2405s1441-7945-1123-15052c-714-1979-416-2294 402-1662 0 0-316-801-1161-1639l31 2c-693-73-1372-270-2029-609z"/><path fill="#272528" d="M359344 80552c8920-1601 17411 883 17882 15728 243 7637-7819 19356-14679 18607 845 838 1161 1639 1161 1639 2119 1637 7724 9636 8217 11546 1263-954 2521-1955 3756-2999 0 0-1911-6301-5560-8636-1572-1007-142-1241 2372-1091 2478-1952 10923-9379 11524-20358-3668-20453-16927-21018-20876-21301-3078-219-7500 3017-9305 4458 65 1120 27 2409-135 3891l5643-1484z"/><path fill="#131b26" d="M359681 95446a1792 1792 0 0 1 502-1246l-839-13648c-1886 338-3791 859-5643 1484-8145 2748-15275 7512-15306 7651 0 0 9566 6814 16492 17314l2118 3494c910 1644 1936 2779 3034 3488 515-4324 471-10965 248-17191a1791 1791 0 0 1-606-1346z"/><path fill="#9da0c9" d="M357005 110495l-2118-3494c-1264 3265-2520 5727-5425 7177-1322 661-2987 1111-5150 1331-1509 154-2966-126-4322-659-467-185-923-399-1365-636 11915 7496 21924 66 21924 66-171-89-342-189-510-297-1098-709-2124-1844-3034-3488z"/><path fill="#7a776e" d="M328042 103212s-2512-3678-1952-9065c-1253-1730-1356-8845-1356-8845-1926 2910-3744 5816-5289 8357 0 0-12 10839 9862 20533 584-2820 415-5652 359-6364-2212-109-3541-785-2918-2316 295-720 748-1503 1294-2300z"/><path fill="#5f6b77" d="M340306 99713c-3174-294-5009-2700-5009-2700 853 2809 95 6009 95 6009 3959-67 7183 2198 7183 2198-3066 1272-7547 2353-10984 2579 0 0 402 581 1118 1425 0 0 2058 2160 8371-487 822-345 1493-688 2040-1027 3653-2268 1735-4368 1888-5646 176-1469-1527-2058-4702-2351z"/><path d="M331591 107799c3437-226 7918-1307 10984-2579 0 0-3224-2265-7183-2198 0 0 1007-4250-606-7253 0 0-4296 3869-6744 7443-546 797-999 1580-1294 2300-789 1938 1548 2506 4843 2287z" class="K"/><path fill="#b1a7af" d="M341080 108737c-6313 2647-8371 487-8371 487 1209 1424 3318 3597 5916 4990 442 237 898 451 1365 636 0 0 1286-3710 1076-5544-22-188-18-381 14-569z"/><path fill="#b3b5b2" d="M328042 103212c2448-3574 6744-7443 6744-7443-535-1329-5087 5278-1941-3348 3145-8625 19140-19613 19140-19613-1780-1884-4495-1776-6685-1309-3950 847-12555 7758-17210 16363-1217 2251-1802 4375-2000 6285-560 5387 1952 9065 1952 9065z"/><path fill="#56646f" d="M338395 89687c31-139 7161-4903 15306-7651l135-3891c-149-2596-853-4280-1851-5337 0 0-15995 10988-19140 19613-3146 8626 1406 2019 1941 3348 214 397 381 816 511 1244 0 0 1835 2406 5009 2700 3175 293 4878 882 4702 2351-153 1278 1765 3378-1888 5646 1348 479 3409 2230 6342 6468 2905-1450 4161-3912 5425-7177-6926-10500-16492-17314-16492-17314z"/><path d="M290131 145091s12388 2205 25375 11772c-10373-11854-23084-22636-23928-16538-207 1497-720 3111-1447 4766z" class="C"/><path fill="#3f2214" d="M240991 115485c-3676-1176-8969-1620-8969-1620-5041-8227-15135-10415-30846-5934-15710 4483-20956 6374-28576 6374 12367-6694 23581-11139 23581-11139l48485 1024c20805-1458 48485-1024 48485-1024l23581 11139c-7620 0-12866-1891-28576-6374-15711-4481-25805-2293-30846 5934 0 0-5293 444-8969 1620l-3675-2793-3675 2793z"/><path fill="#301500" d="M217559 196480l23033 8358c1873 987-6566 711-15080 5912-4135 2526-8289 6344-11285 12227l172-5710s866-10758 3160-20787z"/><path d="M244666 160699s-12539 2959-21483 7404l-42 21c-575-448-5444-5936-7776-5072 2311-1059 4440-2267 5898-3625 0 0-6238-1134-12576-862l-4997-5915c9734-551 24319-835 40976 634 16657-1469 31242-1185 40976-634-1603 2188-3347 4228-4997 5915-6338-272-12576 862-12576 862 1458 1358 3587 2566 5898 3625-2332-864-7201 4624-7776 5072-14-8-28-14-42-21-8944-4445-21483-7404-21483-7404zm-17446-35982s-8510-1530-13838-950l1195-782s-13242-630-23172 3093c4933-7930 11358-5540 15450-6527 4091-988 7548-8298 7548-8298 4386 79 9978 786 17619 2612 0 0 5293 444 8969 1620-3213 2373-8223 5909-13771 9232zm-8022 4389s21335 876 25468 4395c4133-3519 25468-4395 25468-4395s15239 5825 21444 11219c-390 2813-1858 6042-3801 9170-22975-8116-43111-8227-43111-8227s-20136 111-43111 8227c-1944-3128-3411-6357-3801-9170 6205-5394 21444-11219 21444-11219z" class="E"/><path d="M193023 117363c1339-1270 1603-2808 1603-2808 3863 367 17659 302 17659 302-1385 2000-3323 4185-5430 4694-4092 987-10517-1403-15450 6527-1795 674-3482 1490-4964 2477 0 0-16387 3436-31099 1236 7600-761 11726-8620 16734-9748 5009-1128 19608-1411 20947-2680z" class="C"/><path d="M212285 114857s-13796 65-17659-303l760-102c6106-887 10030-3362 19017-3199 0 0-814 1720-2118 3604zm-17659-302s-264 1538-1603 2808c-1339 1269-15938 1552-20947 2680-5008 1128-9134 8987-16734 9748 301-214 631-418 997-607 5459-2819 9828-10618 9828-10618 1418-1366 2607-2851 3601-4355 934 152 2832 94 2832 94s12956 1387 22026 250z" class="D"/><path d="M235746 95109s-21687 2344-39565 8057c0 0-11214 4445-23581 11139 0 0-1898 58-2832-94 4021-6089 4855-12492 4855-12492 16457-7595 35564-13225 49660-16798 1644 1177 5646 4262 11463 10188zm8920-6303c-7909-2852-11694-4841-13097-5662l13097-2817 13097 2817c-1403 821-5188 2810-13097 5662z" fill="#5b3a17"/><path d="M131613 147775s9023-148 10998 1828c1975 1975-3037 4935-12098 6488-2651-1637-4937-1669-4937-1669l6037-6647z" class="C"/><path d="M142611 149603c-1975-1976-10998-1828-10998-1828l6669-7223c592-56 1859-1373 2394-1444 11732-1557 10662-6462 14666-9317 14712 2200 31099-1236 31100-1235-9671 6446-16850 13185-27694 11721-1915-259-4483 7385-11879 14661-2946 2897-6718 5728-10620 8129-1170-2693-2662-4547-4158-5824-530-453-1061-833-1578-1152 9061-1553 14073-4513 12098-6488zm11809 44745c-910-22305 14443-42016 7062-39100-6301 2489-19197 20517-19198 20515l4003-13089c10168-8752 11698-9944 30580-19945 19074-10102 25934-12130 36515-18962 5328-580 13838 950 13838 950l-8022 4389s-15239 5825-21444 11219c-1319-9525-31593 22135-36677 34734-1833 4541-5425 11674-6624 19777l-33-488zm47459 3684l9434-8858c-398 7557 554 17014 3086 28093-5818-10811-15623-15991-12520-19235z" class="D"/><g class="F"><path d="M198405 161185c-5385 3745-9320 7052-12037 11094 6641 1153 13846-3330 17238-4757 1772-743 6463-2145 10793-4039l902-405a212 212 0 0 0 63-29c2335-863 7211 4635 7777 5075-3627 1808-6658 3860-8011 6058-2157 3504-3476 8558-3817 14992l-9434 8858c-3103 3244 6702 8424 12520 19235l-8638 8400c296-1647-2-3427-1301-5257l-6885-9058-1606-19333c513-1543 1230-3065 2230-4266 3354-4030 6154-6888 5056-9232-1099-2345-7474-3810-9379 0-623 1245-753 3909-644 6930-1472-1198-3486-1718-5913-1331 221-5254-1376-6173-7924-6607-4250-282-9535 1090-13200 521-3224-501-5118-2975-5118-2975 1829-4533 6920-11534 12749-18196 12987-9567 25375-11772 25375-11772 641 1460 1449 2950 2361 4416l-10500 4217 12628-1074 4997 5915c-3849 165-7735 848-10282 2620zm-23838 59630c8938 6006 21688 3663 21688 3663s1689 4753 1656 9236l-4115 4354-17130-6962c654 2 1239-58 1739-173-15320-9149-21660-20342-23453-31294l-303-2214c1130 1155 4453 4043 10685 5658 0 0 296 11725 9233 17732z"/><path d="M170561 196882c-4867-113-10462 7-15963 44l-5-52-140-2038c1199-8103 4791-15236 6624-19777 0 0 2786 11393 6742 12602 1953 596 6640 751 10885 753-2551 2025-5290 4805-8143 8468z"/></g><path fill="#795636" d="M170561 196882c2853-3663 5592-6443 8143-8468l8237-153 378-4141c2427-387 4441 133 5913 1331l1450 13953s81-3754 1287-7385c155 9856 1606 19333 1606 19333-4000-4785-8806-9590-14106-12554-2359-1319-7120-1780-12908-1916z"/><path fill="#77897d" d="M170739 202690s4458-1938 9429-1164c-844 9756 4891 13743 14031 10704 1536 2010 2479 3501 2479 3501s-4333 5769-14443 2875c-12531-4542-11496-15916-11496-15916z"/><path fill="#415347" d="M194199 212230c-9140 3039-14875-948-14031-10704 1396 215 2832 646 4221 1392l769 444s-2614 7027 6531 5805c943 1068 1792 2122 2510 3063z"/><path fill="#000c0a" d="M191689 209167c-9145 1222-6531-5805-6531-5805 2361 1450 4636 3656 6531 5805z"/><path fill="#815629" d="M235791 187627c-4072 955-5838 2177-8691 5517-4601 5383 2083 4901 6301 1860 995-717 1920-1083 2764-1210-3426 3840-3647 7913-3647 7913l-14918-5213c1292-5542 2966-10793 5008-13808 6144-9074 22013-6457 22058-6450 45-7 15914-2624 22058 6450 2042 3015 3716 8266 5008 13808l-14918 5213s-221-4073-3647-7913c844 127 1769 493 2764 1210 4218 3041 10902 3523 6301-1860-2853-3340-4619-4562-8691-5517-5157-1209-6024-864-6027 2033-866-407-1813-779-2848-1106l-2848 1106c-3-2897-870-3242-6027-2033z"/><path fill="#9d5f38" d="M225512 210750c8514-5201 16953-4925 15080-5912-1006-530-4289-1766-8074-3131 0 0 221-4073 3647-7913 3376-507 5442 2822 5442 2822-31-3144 213-5412 211-6956l2848-1106c1035 327 1982 699 2848 1106-2 1544 242 3812 211 6956 0 0 2065-3329 5442-2822 3426 3840 3647 7913 3647 7913l-8074 3131c-1873 987 6566 711 15080 5912 0 0 2600 10555 4592 22247 2158 12668 3602 26672 248 30024-6446 6448-17215-879-23994-2051-6779 1172-17548 8499-23994 2051-3354-3352-1910-17356 248-30024l4592-22247zm19154 7607s-22011 19394-19895 32090c2115 12696 19895 5290 19895 5290s17780 7406 19895-5290c2116-12696-19895-32090-19895-32090z"/><path d="M224771 250447c-2116-12696 19895-32090 19895-32090s22011 19394 19895 32090c-2115 12696-19895 5290-19895 5290s-17780 7406-19895-5290z" class="L"/><path d="M220672 263021c6446 6448 17215-879 23994-2051 6779 1172 17548 8499 23994 2051 3354-3352 1910-17356-248-30024 17074 14993 2851 6166 8846 32086 5994 25920-32592 9521-32592 9521s-38586 16399-32592-9521c5995-25920-8228-17093 8846-32086-2158 12668-3602 26672-248 30024z" class="N"/><path d="M212675 275290s-1543 6398-7586 11276c-8901-25052-4044-43493-4044-43493 2895-1316 5931-3152 8132-4895l229-182c2430-1969 3644-6018 4270-10178 271-1679 443-3345 551-4841 2996-5883 7150-9701 11285-12227l-4592 22247c-17074 14993-2851 6166-8846 32086-1076 4653-715 7943 601 10207z" class="D"/><path fill="#61463b" d="M205089 286566c6043-4878 7586-11276 7586-11276 6014 10354 31991-686 31991-686s25977 11040 31991 686c0 0 1543 6398 7586 11276-1023 2878-2225 5842-3639 8876-2343-1321-9359-294-9359-294 41-2064-1373-4008-4780-5566-2619-1197-5322-2241-7894-3132-7504-2601-13905-3902-13905-3902l-13905 3902-7894 3132c-3407 1558-4822 3502-4780 5566 0 0-7016-1027-9359 294l-3639-8876z"/><path fill="#856364" d="M241183 326923c-10569-4194-2325-12976-6392-17948 0 0 3553-3074 3377 2922-176 5995 3305 9300 3305 9300-529-307-623 3649-290 5726z"/><path fill="#c38787" d="M241473 321197s-3481-3305-3305-9300c176-5996-3377-2922-3377-2922-288-2569-328-6865 1611-6160 1940 705 8264 793 8264 793s6324-88 8264-793c1939-705 1899 3591 1611 6160 0 0-3553-3074-3377 2922 176 5995-3305 9300-3305 9300-531 309-3193 397-3193 397s-2662-88-3193-397z"/><path fill="#cfa8ab" d="M234791 308975c-667-816-1665-1529-3134-2103-7513-2935-13487-7571-13570-11724-42-2064 1373-4008 4780-5566l7894-3133c-3083 10876 13905 14162 13905 14162s16988-3286 13905-14162c2572 892 5275 1936 7894 3133 3407 1558 4821 3502 4780 5566-83 4153-6058 8789-13570 11724-1469 574-2467 1287-3134 2103 288-2569 328-6865-1611-6160-1940 705-8264 793-8264 793s-6324-88-8264-793c-1939-705-1899 3591-1611 6160z"/><path fill="#b2a4a1" d="M244666 300611s-16988-3286-13905-14162c4379 3785 8624 4342 13905 5549 5281-1207 9526-1764 13905-5549 3083 10876-13905 14162-13905 14162z"/><path fill="#766e63" d="M244666 291998c-5281-1207-9526-1764-13905-5549l13905-3901s6401 1301 13905 3901c-4379 3785-8624 4342-13905 5549z"/><path fill="#33181d" d="M241473 321197c531 309 3193 397 3193 397s2662-88 3193-397c529-307 623 3649 290 5726l-3483 1050c-1343-305-2494-657-3483-1050-333-2077-239-6033 290-5726z"/><path fill="#443e32" d="M179098 232330c-7878 6919-14750 8852-17648 9385 1991-2542 1037-7776-3777-7595-8304 312-9875-11621-6071-15821 4140-4572 7934 3175 10960 6065l117 111c3876 3667 7467 5337 10236 6066 1396 388 2668 563 3751 565l2432 1224z"/><path d="M179098 232330l14699 5739s-2270 1246-1537 5347l34 157c467 1885 2967 1682 5957 612 893-300 1835-677 2794-1112 0 0-379 1438-731 4058-2457 396-5521 1941-6728 2588l389-633-9912 8085s-3175 809-7419 289c1865-7933 2454-25130 2454-25130z" class="L"/><path fill="#827066" d="M161450 241715c2898-533 9770-2466 17648-9385 0 0-589 17197-2454 25130-3097-378-6763-1466-10180-4092 201-2080 765-4478-145-4407l-4049 112c-1245-1671-2389-3658-3377-6016 1100-62 1961-581 2557-1342z"/><path d="M143366 259742c-6311-10751-5008-20734-5008-20734 5412-3075 8993-4405 9578-4615l3715 4291c2860 3194 5229 4372 7010 4378h30l201-5c989 2358 2133 4345 3378 6016-3525 104-8042 361-8602 1239-859 1351 5281 7369 7247 7860 2551 639-215 11816 3562 8230 0 0 1597-4667 8598-6877 7003-2211-3194-3195-5650-3195-1058 0-1113-1389-961-2962 3417 2626 7083 3714 10180 4092 4244 520 7419-289 7419-289-18356 17561-21058 37109-23209 39385-1273 1347-3146-4663-3447-11573-479-10914 3500-13315-4805-20643-2554-2252-5768-4292-9236-4598z" class="B"/><path d="M138358 239008s-1303 9983 5008 20734c-762-67-1538-50-2321 66-7486 1111-14490 13470-15984 21527-11896-14626-9972-24727-9972-24727 2865-2751 5662-5192 8339-7354 1528 4906 3524 10049 5975 15497l-613-19587 9568-6156z" class="G"/><g class="M"><path d="M151186 274655c-6269-7136-32403 12824 2489 39046 0 0-3590 7914-14654-4835-9010-10383-14361-16905-14251-24835 104-7611 7888-22979 16275-24223 4343-647 8442 1785 11557 4532 8305 7328 4326 9729 4805 20643 301 6910 2174 12920 3447 11573 2151-2276 4853-21824 23208-39386 2896-2769 6180-5489 9913-8084 0 0-17472 16762-27832 45203l-3234 10187s-6008 6005-8939 144 1466-25131-2784-29965zm73154 84605c7473-3809 20326-14360 20326-14360s12853 10551 20326 14360l-20326 1319-20326-1319z"/><path d="M241646 336664c-590-664-1150-1633-1558-3048-1393-4836-5165-10159-13517-17191-6244-5257-14432-13641-17191-18091-931-1504-1243-2558-652-2892 2343-1321 9359-294 9359-294 83 4153 6057 8789 13570 11724 1469 574 2467 1287 3134 2103 4067 4972-4177 13754 6392 17948 989 393 2140 745 3483 1050 1343-305 2494-657 3483-1050 10569-4194 2325-12976 6392-17948 667-816 1665-1529 3134-2103 7512-2935 13487-7571 13570-11724 0 0 7016-1027 9359 294 591 334 279 1388-652 2892-2759 4450-10947 12834-17191 18091-8352 7032-12124 12355-13517 17191-408 1415-969 2384-1558 3048-1426 1604-3020 1420-3020 1420s-1594 184-3020-1420zm-74362-5986c17437 11723 51287 13480 51287 13480-12141 836-17637 2177-23220 2332-2035 55-4084-46-6469-387l-4526-845c-12456-2784-17072-14580-17072-14580zm24315 2197c-4652-1653-15431-6591-20039-9612-1923-1260-2770-2188-1648-2403 13800-2652 25047 7077 30479 6447 6301-732 22128 5715 22128 5715-735 0-24328 2198-30920-147zm19264-15899c-30260-439-40737-9596-40737-9596s9088-2345 19345-1172c10256 1173 21392 10768 21392 10768zm-94798-74205c4978 9817 367 11065-6081 20736s-1833 9159 2564 12969c4398 3811 7620-6447 8206 8206 587 14653 5568 15827 13188 24618 6959 8032 11162 12549-3350 16957-1376 418-2919 835-4645 1254-2518 611-4755 973-6739 1112-17300 1219-15293-14461-12856-28660l1242-7363c906-5971 1201-10951-910-13193-3889-4131-10293-9472-10447-14016-31-936 202-1839 778-2690 3368-4983 10552-1468 7328-20078l-2175-16293c-264-2798-473-5636-602-8429-665-14408 801-27613 7759-27887l1045-30c9975-189 8241 3133 5549 8237-880 1667-1624 3506-2238 5468-3829 12230-2607 29240 2384 39082zm70876-54510s-15166 608-19122-600c-3956-1209-6742-12602-6742-12602s1894 2474 5118 2975c3665 569 8950-803 13200-521 7990 530 8609 1781 7546 10748zm7741 11143s-2711-17072-806-20883c1905-3810 8280-2345 9379 0 1098 2344-1702 5202-5056 9232-3355 4030-3517 11651-3517 11651zm14005-40839c6338-272 12576 862 12576 862-1440 1341-3604 2566-5947 3645l-15 6c-4563 2099-9799 3649-11695 4444-3392 1427-10597 5910-17238 4757 2717-4042 6652-7349 12037-11094 2547-1772 6433-2455 10282-2620zm-25218 40233c8862 4957 16341 15059 20991 21612 1299 1830 1597 3609 1301 5256-942 5235-7896 9142-7896 9142l45-1095c34-4482-1655-9235-1655-9235s-12750 2343-21688-3663c-8937-6007-9233-17732-9233-17732-6232-1614-9555-4503-10685-5658l-51-499c12042-81 24527-556 28871 1872zm-1234 19808c10110 2894 14443-2875 14443-2875s-943-1491-2479-3501c-718-941-1567-1995-2510-3063-1895-2149-4170-4355-6531-5805l-769-444c-1389-746-2825-1177-4221-1393-4971-773-9429 1165-9429 1165s-1035 11374 11496 15916z"/></g><path d="M193586 249719c1207-648 4272-2192 6728-2588-909 6759-1640 21381 4775 39435l3639 8876c-591 334-279 1388 652 2892 0 0-7002 3497-13742 3057s-13922-5713-14947-4982c0 0 5551-34286 12895-46690z" class="N"/><path d="M193586 249719c-7344 12405-12895 46690-12895 46690-1027 732-9524 8059-9524 8059s795-9659-5024-10179c8947-24561 23199-40414 26919-44281l524-289z" class="H"/><path d="M140749 300940c-13633-19479 5237-32204 10437-26285 4096 4659 162 22717 2492 29271-5021-883-9297-1906-12929-2986z" class="G"/><path d="M115089 256608s-1924 10101 9972 24727c-180 971-279 1879-291 2696-58 4216 1427 8033 4184 12244-5978-3169-7642-5818-7642-5818l-558-5775c-586-14653-3808-4395-8206-8206-4397-3810-9012-3298-2564-12969 1937-2907 3710-5052 5105-6899z" class="I"/><path d="M140988 336404c-10404-6813 16647-12190 30572-13141 3045 1997 8790 4832 13677 7002-4232-1-13082 207-15589 1887l-2364-1474s4616 11796 17072 14580l4526 845s-10758 3799-13689 6435c-1392 1253-6832-787-13275-4006l4087-3714 176-2821-3879 1500-3580 3388c-761-403-1529-816-2298-1239l1651-1049 1849-5290-5114 1851-2930 1928-6953-4171 3239-3448-7178 937zm69875-19428s-11136-9595-21392-10768c-10257-1173-19345 1172-19345 1172s10477 9157 40737 9596zm0 0s-17891 5150-43565-7546c0 0-2584 2614-7896 5216-4435 2173-10772 4338-19093 4967 233-2789-2680-6057-6367-10313-6472-7467-11041-9439-12630-18843 0 0 1664 2649 7642 5818 2429 3711 5847 7728 10067 12591 11064 12749 14654 4835 14654 4835-5949-4472-10124-8760-12926-12762 3632 1081 7908 2104 12929 2987l292 694c2931 5861 8939-144 8939-144l3234-10187c5819 520 5024 10179 5024 10179l9524-8059c1022-729 8165 4511 14887 4977 4556 3864 9629 8966 15285 15590z" class="J"/><path d="M237491 397782c-1833-5360-2821 5784-11143 7335-8323 1552-6066-2680-4091-6911s-9804-988-22782 5078c0 0 1764-5574 4126-9663 2364-4089-4443 247-4443 247s751-6113 3414-12939c4576-4715 10432-8159 16679-9202-2931 7621 291 14947 291 14947 10550-1025 12895-8060 15239-9526 2345-1465 4983 3225 4983 3225 2784-3958 4902-4396 4902-4396s2117 438 4902 4396c0 0 2638-4690 4983-3225 2344 1466 4689 8501 15239 9526 0 0 3222-7326 291-14947 6247 1043 12103 4487 16679 9202 2663 6826 3414 12939 3414 12939s-6807-4336-4444-247 4127 9663 4127 9663c-12978-6066-24757-9309-22782-5078s4232 8463-4091 6911c-8322-1551-9310-12695-11143-7335-1833 5361-7175 8464-7175 8464s-5342-3103-7175-8464z" class="B"/><path fill="#464f60" d="M234781 377148c-2344 1466-4689 8501-15239 9526 0 0-3222-7326-291-14947-6247 1043-12103 4487-16679 9202-4579 4718-7877 10710-9001 16844-2495 1203-4293 2918-7617 4635 1386-10768 6710-24012 15047-30474 13229-10254-3956-21981-13920-17000-9964 4982-33120 34291-33120 34291-360-641-978-1496-1777-2495 14016-16431 28367-30104 28367-30104l769-2492-2674 1025-4907 4630-5643 1314 7097-8565c2931-2636 13689-6435 13689-6435l6469 387c10046 1027 16702 11753 16702 11753 31358-4982 29593-21579 29593-21579 1426 1604 3020 1420 3020 1420s1594 184 3020-1420c0 0-1765 16597 29593 21579 0 0 6656-10726 16702-11753 2035 55 4084-46 6469-387 0 0 10758 3799 13689 6435l7097 8565-5643-1314-4907-4630-2674-1025 769 2492 28367 30104-1777 2495s-23156-29309-33120-34291c-9964-4981-27150 6746-13920 17000 8337 6462 13661 19706 15047 30474-3325-1717-5122-3432-7617-4635-1124-6134-4422-12126-9001-16844-4576-4715-10432-8159-16679-9202 2931 7621-291 14947-291 14947-10550-1025-12895-8060-15239-9526-2345-1465-4983 3225-4983 3225-2785-3958-4902-4396-4902-4396s-2118 438-4902 4396c0 0-2638-4690-4983-3225zm9885-32248l-20326 14360 20326 1319 20326-1319c-7473-3809-20326-14360-20326-14360z"/><path fill="#798591" d="M226348 405117c8322-1551 9310-12695 11143-7335 1833 5361 7175 8464 7175 8464s5342-3103 7175-8464c1833-5360 2821 5784 11143 7335 8323 1552 6066-2680 4091-6911s9804-988 22782 5078c0 0-1764-5574-4127-9663s4444 247 4444 247-751-6113-3414-12939c4579 4718 7877 10710 9001 16843-1137-547-2418-989-4053-1275 1904 3014 2418 8298 1836 12514-9065-4168-11297-7506-21057-6925 1125 4062 1507 7832-2400 11699-7957-4558-11505-6590-17797-6648-2651 3871-4168 4487-7624 7877-3456-3390-4973-4006-7624-7877-6292 58-9840 2090-17797 6648-3907-3867-3525-7637-2400-11699-9760-581-11992 2757-21057 6925-582-4216-68-9500 1836-12514-1635 286-2916 728-4053 1275 1124-6133 4422-12125 9001-16843-2663 6826-3414 12939-3414 12939s6807-4336 4443-247c-2362 4089-4126 9663-4126 9663 12978-6066 24757-9309 22782-5078s-4232 8463 4091 6911z"/><g class="B"><path d="M180550 356625s-18610 17732-34142 37075c0 0 6446-14801 32237-38540l2675-1026-770 2491zm-14545-11807l176-2821-3879 1500s-20807 19128-36500 39582l40203-38261zm-7930-221l1849-5290-5114 1851-119986 66915s11332-2158 28115-9321c22386-9555 54393-28250 95136-54155zM29853 393919s71194-39617 115074-55004l3239-3448-7178 937s-42989 16329-95181 45070c0 0-15514 10328-15954 12445zm100739-67662s-14692 16085-74995 18553c0 0 46021 8463 78465-11461l5641-6612s-4173 138-9111-480z"/><path d="M101355 329732s-27065 19133-45227 40644c12634-18867 23769-27659 41964-42672l4938-2601-1675 4629zm-39011-16119s-11369 19152-52453 17919c0 0 27774 5291 53605-8374l5863-12962-7015 3417zm12619 17516s-12430 9170-39672 7495c0 0 24370 6786 37997 1586l5643-6964-3968-2117zm77284 53152c267-380 549-770 840-1173l-840 1173zm2617-3562l-26098 27881c16223-22923 37558-47255 37558-47255l7647-1781c-8759 8478-14900 15634-19107 21155z"/></g><path d="M134989 187006c-6769 9025-11234 17569-13495 26302l-7813-9619c614-1962 1358-3801 2238-5468 2692-5104 4426-8426-5549-8237 1211-3440 3022-7161 4812-10470l2551-4494 3371-5399s12091 4326 23667-5640l1516-1307-4002 13091s10114-699 10846 181c296 3276-6144 13704-6364 20611 0 0-10861 3154-15783 12325 2862-19591 7506-26339 7507-26338-1230 1502-2396 2988-3502 4462z" class="E"/><path d="M130984 208882c4922-9171 15783-12325 15783-12325-41 1378 162 2617 718 3629 567 1036 3605-80 5552 29 819 6615 2079 8231 3230 11339l-11847 2056c-3904 1370-3966 7007-2955 10409 563 1896 1685 3912 3559 6489-4152-1743-9166-3975-15417-9251l1377-12375z" class="H"/><path d="M244666 104190l-48485-1024c17877-5714 39564-8058 39564-8058-5816-5925-9818-9010-11462-10187l7286-1777c1403 820 5187 2810 13097 5662 7910-2852 11694-4842 13097-5662l7286 1777c-1645 1177-5646 4262-11462 10187 0 0 21687 2344 39564 8058 0 0-27680-434-48485 1024zm58225 24365c-9672-6448-28136-5570-28136-5570 11284 7474 17927 9266 37711 19743 19784 10478 20519 11287 32096 21252 11576 9966 23667 5640 23667 5640-4053-706-9726-3215-15146-6553-3902-2401-7674-5232-10620-8129-7395-7277-9963-14921-11878-14662-10844 1464-18023-5275-27694-11721zm47951 53988s6542 9507 8884 38713c910 11333 1186 25633 203 43495 8942-19871 11982-35803 7908-51443-2618-10053-8176-19985-16995-30765zm-24072 41821c3027-2892 6821-10638 10961-6066 3804 4200 2233 16133-6071 15821-6257-234-5995 8674-1220 8937v1-1c1904 105 4528-1167 7740-4944l6129-7605c1872-2577 2995-4592 3558-6488 1012-3403 950-9040-2954-10410-2779-979-7338-1261-11847-2056 1151-3109 2411-4724 3230-11339 1947-109 4985 1007 5552-29 3338-6087-6001-20311-5646-24240 732-880 10846-182 10846-182s-12897-18027-19197-20516c-7381-2916 7972 16795 7062 39100l-34 489 254 2092s-145 185-450 497l-303 2214c-1792 10951-8133 22144-23453 31293 0 0 659 150 1815 135 2676-36 8018-963 14028-6703zm-31234 13704l-4114-4355c2 368 17 734 45 1095 0 0-6955-3907-7896-9142l-8638-8399c4689-20514 3959-35467-730-43086-4690-7619-29537-13482-29537-13482s-24847 5863-29537 13482-5419 22572-730 43086l-8638 8399c-942 5235-7896 9142-7896 9142l45-1095-4114 4355s-2270 1245-1536 5348c434 2426 4452 1625 8785-343 2996-1362 6142-3281 8360-5078 3322-2692 4448-9865 4822-15018l172-5710s866-10758 3160-20787c1238-5412 2891-10611 5048-13796 6152-9086 22059-6449 22059-6449s15906-2637 22059 6449c2157 3185 3810 8384 5048 13796 2294 10029 3160 20787 3160 20787s-64 2451 172 5710c374 5153 1500 12326 4822 15018 2217 1797 5364 3716 8360 5078 4333 1968 8351 2769 8785 343 734-4103-1536-5348-1536-5348zm-50870-104567c4133-3519 25468-4395 25468-4395-8478-4141-17074-10137-21793-13621l-3675-2793-3675 2793c-4719 3484-13315 9480-21793 13621 0 0 21335 876 25468 4395zm0 19783c16657-1469 31242-1185 40976-634l1-1 12627 1074c-3522-1608-7039-3009-10493-4228-22975-8116-43111-8227-43111-8227s-20136 111-43111 8227l-10493 4228 12627-1074 1 1c9734-551 24319-835 40976 634zm12644-39419c23299-5568 27549-733 36636 587s22786-147 22786-147c-7620 0-12866-1891-28576-6374-15711-4481-25805-2293-30846 5934zm4923 79278c-2853-3340-4619-4562-8691-5517-7905-1854-5728-54-5816 8989 0 0 3227-5201 8206-1612 4218 3041 10902 3523 6301-1860zm-75792-64588c9672-6448 28136-5570 28136-5570-11284 7474-17928 9266-37711 19743-19784 10478-20520 11287-32096 21252-11576 9966-23667 5640-23667 5640 4053-706 9726-3215 15146-6553 3902-2401 7674-5232 10620-8129 7395-7277 9963-14921 11878-14662 10844 1464 18023-5275 27694-11721zm-47951 53988s-6542 9507-8884 38713c-910 11333-1186 25633-203 43495-8942-19871-11983-35803-7909-51443 2619-10053 8177-19985 16996-30765zm24072 41821c-3027-2892-6821-10638-10961-6066-3804 4200-2233 16133 6071 15821 6257-234 5995 8674 1220 8937v1-1c-1904 105-4528-1167-7740-4944-2603-3060-4613-5517-6129-7605-1873-2577-2995-4592-3558-6488-1012-3403-950-9040 2954-10410 2779-979 7338-1261 11847-2056-1151-3109-2411-4724-3230-11339-1947-109-4985 1007-5552-29-3338-6087 6001-20311 5646-24240-732-880-10846-182-10846-182s12896-18027 19197-20516c7381-2916-7972 16795-7062 39100l34 489-254 2092s145 185 450 497c81 737 182 1477 303 2214 1792 10951 8132 22144 23452 31293 0 0-658 150-1814 135-2677-36-8018-963-14028-6703zm69460-110499c-23299-5568-27549-733-36636 587s-22786-147-22786-147c7620 0 12866-1891 28576-6374 15711-4481 25805-2293 30846 5934zm-4923 79278c2853-3340 4619-4562 8691-5517 7905-1854 5728-54 5815 8989 0 0-3226-5201-8205-1612-4218 3041-10902 3523-6301-1860zm-73432 57168c560-879 5077-1135 8602-1239l4049-112c910-71 346 2327 145 4407-152 1573-97 2962 961 2962 2456 0 12653 984 5650 3195-7001 2210-8598 6877-8598 6877-3777 3586-1011-7591-3562-8230-1966-491-8106-6509-7247-7860z" fill="#100000"/><path d="M120898 215835c-2228 10552-1265 21323 2530 33419-2677 2162-5474 4603-8339 7354 3248-4296 4459-6970 976-13837-4991-9842-6213-26852-2384-39082l7813 9619-596 2527zm7892 29329c-52-9138 266-17065 817-23907 6251 5276 11265 7508 15417 9251l2997 3855-85 30c-586 211-4167 1541-9578 4615l-9568 6156z" class="I"/><path fill="#aeb0ab" d="M132091 157243l-17983 8296c4468-3783 7907-7265 11468-11117 0 0 2286 32 4937 1669l1578 1152z"/><path d="M94218 188601s-6076 12646-3847 36987l-20976 15042c-1370-4584-1468-11848 1775-18894 4237-9205 5887-18449 8985-26923 5513-2604 8248-4954 14063-6212z" class="F"/><path fill="#ad9e89" d="M90371 225588c-2229-24341 3847-36987 3847-36987 1323-285 2807-515 4518-678 9232-879 16446-8409 16446-8409-1790 3309-3601 7030-4812 10469l-1045 31c-6958 274-8424 13479-7759 27887l-11195 7687z"/><path d="M115182 179514s-7214 7530-16446 8409l-4518 678c-5815 1258-8550 3608-14063 6212l2827-6530c12994-8161 30423-12317 34751-13263l-2551 4494z" class="C"/><path d="M117733 175020c-4328 946-21757 5102-34751 13263 1585-3068 3539-5991 6086-8725 9752-5221 32035-9938 32035-9938s-1461 2178-3370 5400z" class="D"/><path fill="#ae9694" d="M136232 163069c-674 84-19721 2468-32560 6339l10436-3869 17983-8296c1496 1277 2988 3131 4158 5824l-17 2z"/><path fill="#a2917f" d="M103672 169409c12839-3872 31886-6256 32560-6340l-2178 1297-41 24c-4707 2668-9412 4619-12910 5230 0 0-22283 4717-32035 9938 3527-3787 8195-7211 14604-10149z"/><path fill="#7b7774" d="M69395 240630c5311-4084 13976-10187 20976-15042l11195-7687 602 8429-14574 7770-15985 10641c-858-772-1645-2211-2214-4111z"/><path d="M71609 244741c5038-3945 10818-7624 15984-10642-14061 14475-9497 15143-9497 15143 3370-293 9525 2637 9525 2637-4981 732-8352 6740-8352 6740 1173 145 9963 1760 9963 1760-11721 9379-16599 15577-16599 15577-1275-354-2908-374-4614-289l3191-13826-7347-440 7746-16660zm-15344 56375c9008-869 17366-8801 17366-8801-2052-1465-6153-2050-6153-2050 8793-9672 25935-16261 25935-16261l-8793-2200 11618-6413c153 4544 6557 9885 10446 14016 2111 2242 1816 7222 910 13193 0 0-6553-15672-10803-15380-4250 293-13627 7914-14652 11577-1027 3663 586 1905 4689 2198s11429 7913 11429 7913-4590 1461-9258 4818c-3155 2269-6348 5404-8180 9543-2615 5905-10537 10069-10474 12010 94 2896 16419-985 21904 3816 0 0-6553 1418-8625 6497l-8745 7847c-3678 384-7581 714-11723 978-483-735-934-1491-1356-2266 4131-108 8135-661 11488-1941l5643-6964-3968-2117s-4950 3652-15450 5925c-1264-3454-2099-7118-2640-10802l6623-3094 5863-12962-7015 3417s-1694 2855-6138 6288l59-18785zm41518 57853l10528-4912c3198 4287 7117 7568 10198 9759l-9412 5539c-4465-3382-8203-6924-11314-10386z" class="J"/><path d="M71210 261841l-3191 13826c-5355 268-11418 1585-9307-3083l5151-11183 7347 440zm-14842 35215c0-10843 16265-21100 16265-21100s4878-6198 16599-15577l-9963-1760s3371-6008 8352-6740c0 0-6155-2930-9525-2637 0 0-4564-668 9497-15143l14575-7769c556 5870 1355 11564 2175 16293 3224 18610-3960 15095-7328 20078-576 851-809 1754-777 2690l-11618 6413 8793 2200s-17142 6589-25935 16261c0 0 4101 585 6153 2050 0 0-8358 7932-17366 8801l103-4060zm83941 22557c8321-629 14658-2794 19093-4967 0 0 7944 4273 10051 6445-252 393 591 1183 2107 2172-13925 951-40976 6328-30572 13141 0 0-12828 4872-32976 13978 2541-1416 7460-4648 10134-9653 5484-1865 10864-4279 15916-7380l5641-6612s-4173 138-9111-480c6823-2072 9509-4169 9717-6644z" fill="#8f908a"/><path d="M191599 332875c6592 2345 30185 147 30920 147 0 0-15827-6447-22128-5715-5432 630-16679-9099-30479-6447-240 45-389 124-459 231-2107-2172-10051-6445-10051-6445 5312-2602 7896-5216 7896-5216 25674 12696 43565 7546 43565 7546l-15285-15590 60 5c6740 440 13742-3057 13743-3057 2758 4450 10946 12834 17190 18091 8352 7032 12124 12355 13517 17191 408 1415 968 2384 1558 3048 0 0 1765 16597-29593 21579 0 0-6656-10726-16702-11753 5583-155 11079-1496 23220-2332 0 0-30968-1607-48923-12006 2506-1680 11357-1888 15589-1887l6362 2610z" class="B"/><path d="M106352 299963c-2437 14199-4444 29879 12856 28660 455 1472 694 2873 759 4202-6836 3105-17548 6668-33730 9156l-193-400 15311-11849 1675-4629-4938 2601c-4888 4033-9267 7617-13302 11069-828-2005-1166-3181-1166-3181 2072-5079 8625-6497 8625-6497-5485-4801-21810-920-21904-3816-63-1941 7859-6105 10474-12010 1832-4139 5025-7274 8180-9544-3040 6444-2237 11142-2237 11142 5276-6154 19590-14904 19590-14904zm38138 64926l17428-16357c6443 3219 11883 5259 13275 4006l-6922 8354-1947 453-9002 10574-12832-7030zm14232-18004c-3663 3527-9754 9547-16449 16805-2929-1582-5743-3083-7934-4217l22085-13827 2298 1239z" fill="#788395"/><path d="M106352 299963s-14314 8750-19590 14904c0 0-803-4698 2237-11142 4668-3356 9258-4817 9258-4817s-7326-7620-11429-7913-5716 1465-4689-2198c1025-3663 10402-11284 14652-11577 4250-292 10803 15380 10803 15380l-1242 7363z" class="B"/><path d="M119208 328623c1984-139 4221-501 6739-1112 1726-419 3269-836 4645-1254 0 0-2720 2978-10625 6568-65-1329-304-2730-759-4202zm-10897 25434l36616-15142c2150 1338 4518 2763 6953 4171l-33371 20730c-3081-2191-7000-5472-10198-9759z" fill="#888b94"/><path fill="#301a0f" d="M169768 114211c-994 1504-2183 2989-3601 4355-2784 2931-8637 2615-14864 3054l-1829 37c20432-10404 20413-27998 20413-27998l4736 8060s-834 6403-4855 12492z"/><path fill="#302b17" d="M151303 121620c6227-439 12080-123 14864-3054 0 0-4369 7799-9828 10618-366 189-696 393-997 607-4004 2855-2934 7760-14666 9317-535 71-1802 1388-2394 1444 0 0-1193-13373 785-17476 1777-3686 5210-1569 10407-1419l1829-37z"/><path d="M136207 121484c-2198 7328-700 17740-700 17740-1663-832-3968-2038-6627-3579-959-8658 9524-21488 7327-14161zm-10181-3296c-2564 7107-1123 15052-1123 15052-2406-1518-4959-3248-7497-5168 685-2646 11185-16991 8620-9884zm-6816-1751c-3648 2335-5559 8636-5559 8636l-8027-8014c2781-668 8248-1573 11542-1730 2308-112 3548 145 2044 1108z" class="K"/><circle cx="127852" cy="95447" r="1799" class="B"/><path fill="#101115" d="M127851 93648c-993 0-1798 805-1798 1798 0 994 805 1800 1798 1800a1785 1785 0 0 0 1194-454l248 17191c-7214 4659-17461-9107-17187-17703 471-14845 8962-17329 17882-15728 0 0-514 6225-839 13648-327-340-788-552-1298-552z"/><path d="M139870 114178c6344-9164 8608-6706 8396-4872-210 1834 1075 5544 1075 5544-1355 533-2812 813-4321 659-2163-220-3828-670-5150-1331z" class="B"/><path fill="#72777b" d="M135496 78145c-1805-1440-6227-4677-9305-4458-3949 283-17208 848-20876 21301 600 10979 9046 18406 11524 20358-3318 199-8525 1067-11214 1713-4946-6002-8248-12884-7641-20321-149-30919 45574-32235 53488-27255 3574 2249 8643 9044 13126 15819 0 0-103 7115-1356 8845-198-1910-783-4034-2000-6285-4655-8605-13260-15516-17210-16363-3419-732-8120-577-8536 6646z"/><path fill="#534c54" d="M128782 114280s10010 7430 21925-66c4136-2218 7034-6415 7034-6415 690 46 1338 58 1925 29-56 712-225 3544 358 6364-2706 2656-6155 5227-10550 7465-5197-150-8630-2267-10407 1419-1978 4103-785 17476-785 17476l-2775-1328s-1498-10412 700-17740c2197-7327-8286 5503-7327 14161l-3977-2405s-1441-7945 1123-15052c714-1979 416-2294-402-1662 0 0 316-801 1161-1639l-31 2c693-73 1372-270 2028-609z"/><path fill="#272528" d="M129988 80552c-8920-1601-17411 883-17882 15728-243 7637 7819 19356 14679 18607-845 838-1161 1639-1161 1639-2120 1637-7724 9636-8218 11546l-3755-2999s1911-6301 5559-8636c1573-1007 143-1241-2371-1091-2478-1952-10924-9379-11524-20358 3668-20453 16927-21018 20876-21301 3078-219 7500 3017 9305 4458-65 1120-27 2409 135 3891-1852-625-3758-1146-5643-1484z"/><path fill="#131b26" d="M129650 95446c0-483-191-923-501-1246l839-13648c1885 338 3791 859 5643 1484 8144 2748 15275 7512 15306 7651 0 0-9566 6814-16492 17314-742 1123-1452 2289-2118 3494-910 1644-1936 2779-3034 3488-515-4324-471-10965-248-17191 372-329 605-810 605-1346z"/><path fill="#9da0c9" d="M132327 110495c666-1205 1376-2371 2118-3494 1264 3265 2520 5727 5425 7177 1322 661 2987 1111 5150 1331 1509 154 2966-126 4321-659l1366-636c-11915 7496-21925 66-21925 66l511-297c1098-709 2124-1844 3034-3488z"/><path fill="#7a776e" d="M161290 103212s2512-3678 1952-9065c1253-1730 1356-8845 1356-8845l5289 8357s12 10839-9863 20533c-583-2820-414-5652-358-6364 2212-109 3541-785 2918-2316-295-720-748-1503-1294-2300z"/><path fill="#5f6b77" d="M149026 99713c3174-294 5009-2700 5009-2700-853 2809-95 6009-95 6009-3959-67-7183 2198-7183 2198 3066 1272 7547 2353 10984 2579l-1118 1425s-2058 2160-8372-487l-2039-1027c-3653-2268-1735-4368-1889-5646-176-1469 1528-2058 4703-2351z"/><path d="M157741 107799c-3437-226-7918-1307-10984-2579 0 0 3224-2265 7183-2198 0 0-1007-4250 606-7253 0 0 4296 3869 6744 7443 546 797 999 1580 1294 2300 789 1938-1548 2506-4843 2287z" class="K"/><path fill="#b1a7af" d="M148251 108737c6314 2647 8372 487 8372 487-1209 1424-3318 3597-5916 4990-442 237-898 451-1366 636 0 0-1285-3710-1075-5544 22-188 18-381-15-569z"/><path fill="#b3b5b2" d="M161290 103212c-2448-3574-6744-7443-6744-7443 535-1329 5087 5278 1941-3348-3145-8625-19140-19613-19140-19613 1780-1884 4495-1776 6685-1309 3950 847 12555 7758 17210 16363 1217 2251 1802 4375 2000 6285 560 5387-1952 9065-1952 9065z"/><path fill="#56646f" d="M150937 89687c-31-139-7162-4903-15306-7651-162-1482-200-2771-135-3891 149-2596 853-4280 1851-5337 0 0 15995 10988 19140 19613 3146 8626-1406 2019-1941 3348-214 397-381 816-511 1244 0 0-1835 2406-5009 2700-3175 293-4879 882-4703 2351 154 1278-1764 3378 1889 5646-1348 479-3409 2230-6342 6468-2905-1450-4161-3912-5425-7177 6926-10500 16492-17314 16492-17314z"/><path d="M201001 371934c-8337 6462-13661 19706-15047 30474 3324-1717 5122-3432 7617-4636 1137-547 2418-989 4053-1275-1904 3014-2418 8298-1836 12514 9065-4168 11297-7506 21057-6925-1125 4062-1507 7832 2400 11699 7957-4558 11505-6590 17797-6648 2651 3871 4168 4487 7624 7877 3456-3390 4973-4006 7624-7877 6292 58 9840 2090 17797 6648 3907-3867 3525-7637 2400-11699 9760-581 11992 2757 21057 6925 582-4216 68-9500-1836-12514 1635 286 2916 728 4053 1275 2495 1204 4292 2919 7617 4636-1386-10768-6710-24012-15047-30474-13230-10254 3956-21981 13920-17000 9964 4982 33120 34291 33120 34291 360-641 978-1496 1777-2495l2236 2649-583 8088c-5173-5290-17458-6525-17458-6525 4350 6994 4174 11639 4174 11639-5760-2410-12167 1411-12167 1411-222-562-941 8699-941 8699-1528-2939-10227-5055-10227-5055 1528 2234-2703 9992-2703 9992-3292-2234-12109-3292-12109-3292 1175 2116 236 7713 236 7713h-42940-42940s-939-5597 236-7713c0 0-8817 1058-12109 3292 0 0-4231-7758-2703-9992 0 0-8700 2116-10227 5055 0 0-719-9261-941-8699 0 0-6407-3821-12167-1411 0 0-176-4645 4173-11639 0 0-12284 1235-17457 6525l-583-8088 2236-2649c799 999 1417 1854 1777 2495 0 0 23156-29309 33120-34291 9964-4981 27149 6746 13920 17000z" class="M"/><path d="M199201 145091s-12388 2205-25375 11772c10373-11854 23084-22636 23928-16538 207 1497 720 3111 1447 4766z" class="C"/></svg>