<?xml version="1.0" encoding="UTF-8"?>
<!DOCTYPE svg PUBLIC "-//W3C//DTD SVG 1.1//EN" "http://www.w3.org/Graphics/SVG/1.1/DTD/svg11.dtd">
<!-- Creator: CorelDRAW X7 -->
<svg xmlns="http://www.w3.org/2000/svg" xml:space="preserve" width="77px" height="271639px" version="1.1" shape-rendering="geometricPrecision" text-rendering="geometricPrecision" image-rendering="optimizeQuality" fill-rule="evenodd" clip-rule="evenodd"
viewBox="0 0 3980 3980"
 xmlns:xlink="http://www.w3.org/1999/xlink">
 <defs>
   <linearGradient id="id0" gradientUnits="userSpaceOnUse" x1="0.0523602" y1="1989.74" x2="3979.53" y2="1989.74">
    <stop offset="0" stop-opacity="1" stop-color="#BF9B30"/>
    <stop offset="0.129412" stop-opacity="1" stop-color="#A67C00"/>
    <stop offset="0.25098" stop-opacity="1" stop-color="#FFCF40"/>
    <stop offset="0.380392" stop-opacity="1" stop-color="#FFDC73"/>
    <stop offset="0.501961" stop-opacity="1" stop-color="#FFBF00"/>
    <stop offset="0.619608" stop-opacity="1" stop-color="#FFDC73"/>
    <stop offset="0.74902" stop-opacity="1" stop-color="#FFCF40"/>
    <stop offset="0.870588" stop-opacity="1" stop-color="#A67C00"/>
    <stop offset="1" stop-opacity="1" stop-color="#BF9B30"/>
   </linearGradient>
   <linearGradient id="id1" gradientUnits="userSpaceOnUse" x1="-0" y1="1989.74" x2="3979.58" y2="1989.74">
    <stop offset="0" stop-opacity="1" stop-color="#BF9B30"/>
    <stop offset="0.129412" stop-opacity="1" stop-color="#A67C00"/>
    <stop offset="0.25098" stop-opacity="1" stop-color="#FFCF40"/>
    <stop offset="0.380392" stop-opacity="1" stop-color="#FFDC73"/>
    <stop offset="0.501961" stop-opacity="1" stop-color="#FFBF00"/>
    <stop offset="0.619608" stop-opacity="1" stop-color="#FFDC73"/>
    <stop offset="0.74902" stop-opacity="1" stop-color="#FFCF40"/>
    <stop offset="0.870588" stop-opacity="1" stop-color="#A67C00"/>
    <stop offset="1" stop-opacity="1" stop-color="#BF9B30"/>
   </linearGradient>
 </defs>
 <g id="Layer_x0020_1">
  <metadata id="CorelCorpID_0Corel-Layer"/>
  <path fill="url(#id0)" d="M298 3682c-295,-295 -366,-762 -234,-1270 20,-61 40,-122 61,-173 71,132 142,274 223,406 -61,336 0,620 183,803 204,214 559,254 956,153 427,-112 894,-386 1311,-803 193,-193 355,-397 488,-610 50,122 111,234 152,356 -122,162 -254,325 -406,488 -458,447 -986,752 -1464,884 -508,132 -966,61 -1270,-234l0 0zm243 -2246c122,-163 255,-325 417,-478 458,-457 976,-762 1454,-894 508,-132 975,-61 1270,234l0 0c295,304 366,762 234,1270l-61 183c-61,-142 -142,-275 -224,-417 61,-335 0,-620 -183,-803 -203,-213 -559,-254 -955,-152 -427,112 -894,396 -1311,803 -193,193 -356,406 -488,610l-153 -356 0 0z"/>
  <path fill="url(#id1)" d="M298 298c304,-295 762,-366 1270,-234l183 61c-142,71 -275,142 -417,223 -335,-61 -620,0 -803,183 -213,204 -254,559 -152,956 112,427 396,894 803,1311 193,193 406,355 610,488 -122,50 -234,111 -356,152 -163,-122 -325,-254 -478,-406 -457,-458 -762,-986 -894,-1464 -132,-508 -61,-966 234,-1270l0 0zm2347 3333c336,61 620,0 803,-183 214,-203 254,-559 153,-955 -112,-427 -386,-895 -803,-1311 -193,-193 -397,-356 -610,-488l356 -153c162,122 325,255 488,417 447,458 752,976 884,1453 132,509 61,976 -234,1271l0 0c-295,295 -762,366 -1270,234 -61,-21 -122,-41 -173,-61 132,-61 274,-142 406,-224z"/>
 </g>
</svg>
