<svg xmlns="http://www.w3.org/2000/svg" width="25" height="25" shape-rendering="geometricPrecision" image-rendering="optimizeQuality" fill-rule="nonzero" viewBox="0 0 391 391" xmlns:v="https://vecta.io/nano" fill="#fff"><path d="M29 362C0 333-7 287 6 237c2-6 4-12 6-17 7 13 14 27 22 40-6 33 0 61 18 79 20 21 55 25 94 15 42-11 88-38 129-79 19-19 35-39 48-60 5 12 11 23 15 35-12 16-25 32-40 48-45 44-97 74-144 87-50 13-95 6-125-23h0zm24-221c12-16 25-32 41-47 45-45 96-75 143-88 50-13 96-6 125 23h0c29 30 36 75 23 125l-6 18c-6-14-14-27-22-41 6-33 0-61-18-79-20-21-55-25-94-15-42 11-88 39-129 79-19 19-35 40-48 60l-15-35z"/><path d="M29 29C59 0 104-7 154 6l18 6c-14 7-27 14-41 22-33-6-61 0-79 18-21 20-25 55-15 94 11 42 39 88 79 129 19 19 40 35 60 48-12 5-23 11-35 15-16-12-32-25-47-40-45-45-75-97-88-144-13-50-6-95 23-125h0zm231 328c33 6 61 0 79-18 21-20 25-55 15-94-11-42-38-88-79-129-19-19-39-35-60-48l35-15c16 12 32 25 48 41 44 45 74 96 87 143 13 50 6 96-23 125h0c-29 29-75 36-125 23-6-2-12-4-17-6 13-6 27-14 40-22z"/></svg>