<svg width="0" height="0" class="hidden">
  <symbol xmlns="http://www.w3.org/2000/svg" shape-rendering="geometricPrecision" image-rendering="optimizeQuality" fill-rule="nonzero" xmlnsV="https://vecta.io/nano" viewBox="0 0 8182 7142" id="icon--Equipment">
    <path d="M3186 6870h1810V5268H3186v1602zm1946 272H3054h-4c-75 0-136-61-136-136V5136v-4c0-75 61-135 136-135h2078 4c75 0 135 60 135 135v1870 4c0 75-60 136-135 136z"></path>
    <path d="M552 0h7078v1c152 0 290 61 390 161h0c100 100 162 238 162 390v4164c0 152-62 290-162 390-99 100-238 162-390 162H552c-152 0-290-62-390-162h0C62 5006 0 4868 0 4716h0V552c0-152 62-290 162-390h0C261 62 399 0 552 0h0zm7078 271h0H552h0c-78 0-148 32-198 83h-1c-51 50-83 121-83 198l1 4164h0c0 77 32 148 82 198v1c51 50 121 82 199 82h7078c78 0 148-32 199-83 50-50 82-121 82-198V552c0-77-32-148-82-198v-1c-51-51-122-82-199-82zM3675 4227c-75 0-136-61-136-136s61-135 136-135h832c75 0 136 60 136 135s-61 136-136 136h-832zM2009 7142c-75 0-135-61-135-136s60-135 135-135h4164c75 0 135 60 135 135s-60 136-135 136H2009z"></path>
  </symbol>
  <symbol xmlns="http://www.w3.org/2000/svg" shape-rendering="geometricPrecision" image-rendering="optimizeQuality" fill-rule="evenodd" xmlnsV="https://vecta.io/nano" viewBox="0 0 12692 13245" id="icon--Instrument">
    <path d="M12115 12092h-192V1130c0-202-106-390-280-494-807-484-1615-646-2407-634-14-1-29-2-44-2-25 0-49 2-73 5-773 29-1528 216-2247 425-2 0-5 1-7 2l-492 146c-507 152-1004 301-1493 401-72 1-141 15-205 40-908 161-1788 132-2647-383-90-54-195-82-297-83-463 0-897 180-1224 507S0 1822 0 2284c0 375 118 732 341 1032 8 10 15 20 23 29l7539 8878c-129 106-211 266-211 446 0 318 259 576 577 576h769 1 3076c319 0 577-258 577-576 0-319-258-577-577-577zM2154 3670h0l-896-1055c-68-97-104-211-104-331 0-154 60-299 169-408 78-78 174-131 279-154 184 100 368 183 552 253v1695zm2154 2536L3308 5029V2239c336 30 670 25 1000-7v3974zm2154 2537L5462 7565V2030c340-82 674-178 1000-275v6988zm2153 2536h0l-1000-1177V1420c338-90 671-165 1000-213v10072zm2154 813H9769V1183c337 42 670 133 1000 291v10618z"></path>
  </symbol>
  <symbol xmlns="http://www.w3.org/2000/svg" shape-rendering="geometricPrecision" image-rendering="optimizeQuality" fill-rule="evenodd" xmlnsV="https://vecta.io/nano" viewBox="0 0 9231 15705" id="icon--Medic">
    <path d="M5333 6391c-647-1-1172-527-1172-1173 0-399 197-756 511-969v-5-587c0-253-96-485-253-660H2945c-157 175-253 407-253 660v527c585 258 988 845 988 1511v641c0 556-453 1008-1009 1008-134 0-419 28-641-241l-1 1v7852c0 414 335 749 749 749 413 0 748-335 748-749V8974h323v1217c150-317 472-537 845-537h652l-13-3263zm-639 7918c-373 0-695-220-845-537v1184c0 414 335 749 749 749 413 0 748-335 748-749v-647h-652zM2030 5369h-1v891c0 1 1 1 1 1 83-101 196-177 326-214v-352c0-180-146-326-326-326zM380 6336v-583L4 8979c-43 369 246 696 621 696 312 0 581-234 618-552l208-1779c-674 0-1071-488-1071-1008zm155-1910l-98 842c130-482 475-883 931-1084v-527c0-187 23-368 64-541-513 219-879 722-897 1310zm1750 52v-821c0-384 157-732 409-985-139-100-262-221-365-357-343 345-555 819-555 1342v821c-563 118-987 619-987 1217v641c0 332 270 602 602 602h130c141 0 255-115 255-256s-114-255-255-255h-130c-51 0-91-41-91-91v-641c0-404 328-733 732-733s732 329 732 733v641c0 50-41 91-91 91h-130c-141 0-256 114-256 255s115 256 256 256h130c332 0 602-270 602-602v-641c0-598-424-1099-988-1217zm3304 17v-838c0-520-209-992-548-1336-103 136-227 256-367 356 250 252 404 598 404 980v838c-297 106-511 390-511 723 0 422 344 766 767 766 422 0 766-344 766-766 0-333-214-617-511-723zm-255 978c-141 0-256-114-256-255s115-256 256-256c140 0 255 115 255 256s-115 255-255 255zM3687 0c-713 0-1292 579-1292 1292 0 714 580 1293 1292 1293 714 0 1293-580 1293-1293S4401 0 3687 0zm5121 10165h-825V9051c0-141-115-256-256-256h-378l-509-4369c-18-593-390-1099-910-1316 42 175 66 358 66 547v592c313 213 510 570 510 969 0 480-290 894-704 1075l291 2502h-318c-141 0-256 115-256 256v1114h-825c-234 0-423 190-423 424v2785c0 234 189 424 423 424h4114c233 0 423-190 423-424v-2785c0-234-189-424-423-424zm-2778-377v-105-377h152c96 212 306 366 569 365 264 0 473-154 568-365h153v376 106 377H6030v-377zm1874 2554a172.42 172.42 0 0 1-173 173h-446v447c0 95-78 173-173 173h-722c-95 0-173-78-173-173v-447h-446a172.42 172.42 0 0 1-173-173v-721a172.42 172.42 0 0 1 173-173h446v-189-258c0-95 78-173 173-173h722c95 0 173 78 173 173v258 189h446a172.42 172.42 0 0 1 173 173v721z"></path>
  </symbol>
  <symbol xmlns="http://www.w3.org/2000/svg" shape-rendering="geometricPrecision" image-rendering="optimizeQuality" fill-rule="nonzero" xmlnsV="https://vecta.io/nano" viewBox="0 0 4221 4221" id="icon--Social Media">
    <path d="M2110 4221c-285 0-557-57-806-160-259-107-491-264-686-458h0c-194-194-351-427-458-686C57 2668 0 2396 0 2110c0-285 57-557 160-806 107-259 264-491 458-685v-1h0c194-194 426-350 685-458h0C1552 57 1825 0 2110 0c583 0 1111 236 1493 618s618 910 618 1492c0 583-236 1111-618 1493s-910 618-1493 618zm-746-306c229 95 481 148 746 148 540 0 1028-219 1381-572s572-841 572-1381c0-539-219-1027-572-1380s-842-572-1381-572c-264 0-517 53-746 148h0-1c-238 99-453 244-633 424h0c-180 180-325 395-424 634-95 229-148 481-148 746s53 518 148 747c99 238 244 454 424 634h0 0c180 180 395 325 634 424zm244-1805c0-99-40-189-104-253h-1 0c-65-65-154-105-253-105-100 0-189 40-254 105l-4 3c-63 64-101 153-101 250 0 99 40 189 105 254s154 105 254 105c99 0 188-40 253-105s105-155 105-254zm7-365c94 94 152 223 152 365 0 143-58 273-152 366-93 94-223 152-365 152-143 0-273-58-366-152-94-93-152-223-152-366 0-140 57-267 148-361l4-4c93-94 223-152 366-152 142 0 272 58 365 152h0zm344-511c0-142 58-272 151-365 94-94 223-152 366-152s272 58 366 152l4 4c91 93 147 221 147 361 0 143-58 273-151 366-94 94-223 152-366 152-79 0-153-18-220-50-69-32-130-80-179-139h0c-37-45-67-97-88-154-19-55-30-114-30-175zm263-253c-65 65-105 154-105 253 0 44 7 85 21 122 14 39 35 75 61 107h0 0c33 40 76 74 124 96 46 22 98 34 153 34 99 0 189-40 254-105s105-155 105-254c0-97-39-185-102-250l-3-3c-65-65-155-105-254-105s-189 40-254 105zm613 2005c0-99-40-188-105-253s-155-105-254-105-189 40-254 105l-4 3c-62 65-101 153-101 250 0 99 40 189 105 254l4 4c64 63 152 101 250 101 99 0 189-40 254-105s105-155 105-254zm7-365c93 93 151 223 151 365 0 143-58 273-151 366-94 94-223 152-366 152-140 0-268-57-361-148l-5-4c-93-93-151-223-151-366 0-140 56-268 147-361l4-4c94-94 223-152 366-152s272 58 366 152z"></path>
    <path d="M1645 1910c-36 26-85 18-111-17-25-36-17-85 18-111l512-370c35-26 85-18 110 17 26 36 18 85-17 111l-512 370zm510 747c36 24 45 73 21 109-24 37-74 46-110 22l-435-294c-36-24-46-73-21-110 24-36 73-45 109-21l436 294z"></path>
  </symbol>
  <symbol xmlns="http://www.w3.org/2000/svg" shape-rendering="geometricPrecision" image-rendering="optimizeQuality" fill-rule="evenodd" xmlnsV="https://vecta.io/nano" viewBox="0 0 5140 5140" id="icon--Software">
    <path d="M5055 0H86C34 0 0 34 0 86v3941c0 51 34 85 86 85h342v943c0 51 35 85 86 85h4112c52 0 86-34 86-85v-943h343c51 0 85-34 85-85V86c0-52-34-86-85-86zm-86 171v514H171V171h4798zm-428 1885H600v-514h3941v514zM600 4969V2228h3941v2741H600zm4112-1028V1456c0-51-34-85-86-85H514c-51 0-86 34-86 85v2485H171V857h4798v3084h-257zM343 343h343v171H343zm514 0h343v171H857zm-86 1370h343v171H771zm514 0h343v171h-343zM4626 343h171v171h-171zm-342 0h171v171h-171zm-86 1370h171v171h-171zm-343 0h171v171h-171zM942 4027h1371c51 0 86-35 86-86V2570c0-51-35-86-86-86H942c-51 0-85 35-85 86v1371c0 51 34 86 85 86zm86-686h514v514h-514v-514zm685 514v-514h514v514h-514zm514-685h-514v-514h514v514zm-685-514v514h-514v-514h514zm1114-171h343v171h-343zm0 342h171v171h-171zm342 0h171v171h-171zm343 0h171v171h-171zm343 0h171v171h-171zm343 0h171v171h-171zm-772-342h343v171h-343zm600 0h343v171h-343zm-1199 685h1542v171H2656zm0 343h1542v171H2656zm0 342h1542v171H2656zM857 4369h171v171H857zm342 0h171v171h-171zm343 0h171v171h-171zm343 0h2313v171H1885z"></path>
  </symbol>
  <symbol xmlns="http://www.w3.org/2000/svg" shape-rendering="geometricPrecision" image-rendering="optimizeQuality" fill-rule="nonzero" xmlnsV="https://vecta.io/nano" viewBox="0 0 4327 4307" id="icon--Tools Website">
    <path d="M4327 109v3003c0 60-49 109-109 109H109c-60 0-109-49-109-109V109C0 49 49 0 109 0h4109c60 0 109 49 109 109zM218 788h3891c60 0 109-49 109-109V218c0-60-49-109-109-109H218c-60 0-109 49-109 109v461c0 60 49 109 109 109zm3891 109H218c-60 0-109 49-109 109v1996c0 60 49 109 109 109h3891c60 0 109-49 109-109V1006c0-60-49-109-109-109z"></path>
    <path d="M2724 1338l-101 376c-4 16-2 31 8 45l36 53c6 10 9 20 9 31v381c0 30 25 54 55 54h91c30 0 54-24 54-54v-381c0-11 3-21 10-31l36-53c9-14 12-29 8-45l-101-376c-6-24-28-40-52-40-25 0-47 16-53 40zm-1558 986l-190-109c-17-10-27-28-27-48v-661c0-19 10-37 27-47l286-166c18-10 38-10 55 0s27 27 27 47v411c0 17 7 32 21 43l177 143c20 16 48 16 68 0l178-143c13-11 20-26 20-43v-410c0-20 10-37 27-47s37-10 55 0l286 165c17 10 27 28 27 48v660c0 20-10 38-27 48l-189 109c-18 10-28 27-28 47v96c0 30 25 55 55 55h325c30 0 54-25 54-55v-134c0-30 24-55 54-55h66c30 0 54-24 54-54v-341c0-10-2-19-7-28l-49-82c-7-13-9-27-5-41l134-503c7-24 28-40 53-40h167c25 0 46 16 52 40l135 503c4 14 2 28-6 41l-48 83c-5 9-8 17-8 27v341c0 30 25 54 55 54h65c30 0 55 25 55 55v434c0 15 5 28 16 39l488 488c21 22 21 56 0 77l-274 275c-17 16-21 40-11 61 11 25 21 50 31 75 8 21 28 35 51 35h381c30 0 54 24 54 54v381c0 30-24 55-54 55H511c-30 0-55-25-55-55v-381c0-30 25-54 55-54h381c23 0 42-14 50-35 10-25 21-50 32-75 9-21 5-45-11-61l-275-275c-21-21-21-55 0-77l489-488c10-11 16-24 16-39v-396c0-20-10-37-27-47zm684 143v-25c0-30-24-55-54-55h-440c-30 0-54 25-54 55v299c0 15 5 28 16 39l257 257c16 16 40 20 61 11 24-11 48-21 73-31 22-8 35-27 35-51v-390c0-29 24-54 53-54 30-1 53-25 53-55zM565 3981v162c0 30 25 55 55 55h509c28 0 51-21 54-49 52-505 480-895 993-895 514 0 942 390 994 895 2 28 26 49 54 49h509c30 0 54-25 54-55v-162c0-30-24-55-54-55h-350c-24 0-44-14-51-37-25-71-51-134-85-202-10-21-7-46 10-63l253-253c21-21 21-55 0-77l-379-379c-22-21-56-21-77 0l-254 254c-17 17-42 21-63 10-67-33-130-59-201-83-22-8-37-28-37-52v-413h-591c-30 0-54 24-54 54v359c0 24-15 44-38 52-71 24-134 50-201 83-21 11-46 7-62-10l-254-254c-21-21-56-21-77 0l-380 379c-21 22-21 56 0 77l253 253c17 17 21 42 10 63-34 67-60 130-84 202-8 23-28 37-52 37H620c-30 0-55 25-55 55zm2024 147c-53-179-220-307-413-307s-359 128-413 307c-5 17-2 34 8 48 11 14 26 22 44 22h722c18 0 33-8 44-22s14-31 8-48zm-944 25c47-252 269-441 531-441 263 0 485 188 532 441 4 26 27 45 53 45h243c16 0 30-6 41-19 11-12 15-27 13-43-57-438-432-773-882-773-449 0-825 334-882 773-2 16 3 31 13 43 11 13 25 19 41 19h243c27 0 49-19 54-45zm910-1631c29 0 53 25 53 54v390c0 24 14 43 35 51 25 10 50 20 74 31 21 9 44 5 61-11l257-257c10-11 16-24 16-39v-299c0-30-25-55-55-55h-439c-30 0-55 25-55 55v25c0 30 24 54 53 55zm-694-251l206-119c17-10 27-27 27-47v-536c0-20-10-37-27-47l-68-39c-18-10-37-10-55 0-17 10-27 27-27 47v273c0 17-7 32-20 42h-1l-286 231c-20 17-48 17-68 0l-286-231h0c-14-10-21-25-21-42v-273c0-20-10-37-27-47s-37-10-54 0l-69 39c-17 10-27 27-27 47v536c0 20 10 37 27 47l206 119c9 5 18 7 28 7h514c10 0 19-2 28-7zM605 242c61 0 117 25 158 66 40 40 65 96 65 158 0 61-25 117-65 158-41 40-97 65-158 65-62 0-118-25-158-65h0c-41-41-66-97-66-158 0-62 25-118 66-158 40-41 96-66 158-66zm80 143c-20-21-49-33-80-33-32 0-61 12-81 33-21 21-34 49-34 81 0 31 13 60 34 81h0c20 20 49 33 81 33 31 0 60-13 80-33 21-21 34-50 34-81 0-32-13-60-34-81zm419-143c61 0 117 25 158 66h0c40 40 65 96 65 158 0 61-25 117-65 158h0c-41 40-97 65-158 65s-117-25-158-65h0c-40-41-65-97-65-158 0-62 25-118 65-158h0c41-40 97-66 158-66zm81 143h0c-21-21-49-33-81-33s-60 12-81 33h0c-21 21-33 49-33 81 0 31 12 60 33 81h0c21 20 49 33 81 33s60-13 81-33h0c21-21 33-50 33-81 0-32-12-60-33-81zm418-143c62 0 118 25 158 66 41 40 66 96 66 158 0 61-25 117-66 158h0c-40 40-96 65-158 65-61 0-117-25-158-65-40-41-65-97-65-158 0-62 25-117 65-158h1 0c40-41 96-66 157-66zm81 143c-20-21-49-33-81-33-31 0-60 12-80 33h-1c-20 20-33 49-33 81 0 31 13 60 34 81 20 20 49 33 80 33 32 0 61-13 81-33h1c20-21 33-50 33-81 0-32-13-60-34-81z"></path>
  </symbol>
  <symbol xmlns="http://www.w3.org/2000/svg" shape-rendering="geometricPrecision" image-rendering="optimizeQuality" fill-rule="evenodd" xmlnsV="https://vecta.io/nano" viewBox="0 0 15184 15184" id="icon--Transportation">
    <path d="M7592 6959h1265v1898H7592zm7502 308l-184-307h-2256v1898h2530V7592c0-115-31-227-90-325zm-3706 2223V6327c0-349 284-633 633-633h2129l-770-1284v-1c-228-378-644-613-1085-613H9752l633-633h2901c256 0 487-154 585-390 98-237 43-509-138-689L11835 185c-118-118-279-185-447-185H1898C1200 0 633 568 633 1265v633c0 698 567 1265 1265 1265h1636l633 633H1265C568 3796 0 4364 0 5061v6960c0 698 568 1265 1265 1265 0 1047 852 1898 1898 1898 1047 0 1898-851 1898-1898h5062c0 1047 851 1898 1898 1898 1046 0 1898-851 1898-1898 697 0 1265-567 1265-1265v-1898h-3163c-349 0-633-284-633-633zM1898 1898v-633h9228l633 633H1898zm1265 12021c-348 0-632-284-632-633 0-140 54-262 131-367 243-322 760-322 1002 0 78 105 132 227 132 367 0 349-284 633-633 633zm2531-4429c0 349-284 633-633 633H2531c-350 0-633-284-633-633V6327c0-349 283-633 633-633h2530c349 0 633 284 633 633v3163h0zm-371-6327h3273l-633 633H5956l-633-633zm4800 6327c0 349-284 633-633 633H6959c-349 0-632-284-632-633V6327c0-349 283-633 632-633h2531c349 0 633 284 633 633v3163zm2399 3429c77 105 131 227 131 367 0 349-284 633-632 633-349 0-633-284-633-633 0-140 54-262 132-367 242-323 759-323 1002 0zM3163 6959h1265v1898H3163z"></path>
  </symbol>
</svg>