<svg xmlns="http://www.w3.org/2000/svg" width="115" height="150" shape-rendering="geometricPrecision" image-rendering="optimizeQuality" fill-rule="evenodd" viewBox="0 0 5807 7547"><path d="M368 0C159 25 0 201 0 410v6727c0 226 176 410 410 410h4987c234 0 410-184 410-410V2083H4301c-310 0-578-226-578-518V0H410h-42zm3640 0v1565c0 117 117 234 293 234h1506L4008 0zM2050 1765h84l92 176v42l-25 125 158 59 76-100 25-25 184-67 59 58-59 193-34 25-100 67 67 167 126-25h33l176 84v92l-176 83h-33l-126-25-67 159 100 75 34 26 59 184-59 67-184-67-25-25-76-109-158 67 25 125v42l-92 167h-84l-84-167v-42l25-125-167-67-67 109-25 25-184 67-67-67 67-184 25-26 109-75-67-159-126 25h-42l-175-83v-92l175-84h42l126 25 67-167-109-67-25-25-67-193 67-58 184 67 25 25 67 100 167-59-25-125v-42l84-176zm42 553c-143 0-268 117-268 267 0 151 125 268 268 268 150 0 267-117 267-268 0-150-117-267-267-267zm920 527l159 167 25 59 17 142h226l25-142 17-59 159-167 117 33 25 235-9 58-66 126 184 133 92-100 58-33 226-42 67 92-109 209-50 33-125 67 75 210 134-26h67l209 101v117l-209 100-67 9-134-25-75 217 125 59 50 42 109 209-67 92-226-50-58-34-92-100-184 134 66 125 9 67-25 226-117 42-159-176-17-59-25-133h-226l-17 133-25 59-159 176-109-42-25-226 17-67 59-125-185-134-92 100-58 34-226 50-67-92 109-209 50-42 125-59-66-217-143 25-58-9-218-100v-117l218-101h58l143 26 66-210-125-67-50-33-109-209 67-92 226 42 58 33 92 100 185-133-59-126-17-58 25-235 109-33zm318 719c-251 0-443 201-443 435 0 251 192 452 443 452 243 0 443-201 443-452 0-234-200-435-443-435zm-50 2092h159v987c0 67 8 159 8 218h-142l-8-101h-9c-25 59-92 118-175 118-159 0-243-168-243-436 0-301 117-435 251-435 67 0 125 26 150 92h9v-443zm945 0h159v460h9c41-75 100-109 175-109 143 0 235 159 235 419 0 301-126 452-260 452-83 0-134-51-167-118h-8l-9 101h-142c0-59 8-151 8-218v-987zm-1824 34h193l242 1171h-159l-67-318h-242l-75 318h-159l267-1171zm-2016 8h485L385 6861V5698zm828 0h494v1163l-494-1163zm1272 167c-8 84-25 193-42 268l-58 276h209l-59-276c-17-84-33-184-42-268h-8zm1355 142c168 0 285 143 285 435 0 335-167 436-293 436h0c-167 0-293-143-293-436 0-309 142-435 301-435zm1348 0c175 0 259 168 259 377 0 42-8 67-8 92h-394c0 218 92 268 193 268 58 0 108-17 142-34l25 117c-50 34-126 42-201 42-209 0-318-159-318-418 0-276 126-444 302-444zm-4142 118l309 736h-200l-101-234H828l218-502zm4125 0c-84 0-117 125-126 234h243c0-151-50-234-117-234zm-1339 8c-109 0-125 184-125 309 0 143 16 310 125 310h0c100 0 126-184 126-310 0-125-26-309-126-309zm-669 8c-101 0-134 143-134 301 0 176 42 293 134 293 33 0 83-16 108-117 0-16 9-33 9-50v-226c0-17 0-33-9-58-8-76-50-143-108-143zm1338 0c-50 0-100 67-108 126 0 17-9 42-9 58v235c0 25 9 42 9 58 25 101 75 117 108 117 101 0 134-125 134-301 0-159-33-293-134-293z"/></svg>