<svg xmlns="http://www.w3.org/2000/svg" width="150" height="150" shape-rendering="geometricPrecision" image-rendering="optimizeQuality" fill-rule="evenodd" viewBox="0 0 9777 9777"><path fill="#b3da73" d="M9766 5236c11-120 11-239 11-347C9777 2190 7588 0 4889 0S0 2190 0 4889c0 2243 1518 4140 3588 4715l6178-4368z"/><path fill="#89c429" d="M9766 5236L6016 1485 2276 8292l1312 1312c423 108 856 173 1301 173 2579 0 4693-2005 4877-4541z"/><path fill="#fff" d="M5311 6374l-422-4889H2276v4466z"/><path fill="#e8e6e6" d="M7501 5951V2981l-1062-423-423-1073H4889v4889z"/><path fill="#fff" d="M6016 2981V1485l1485 1496z"/><path fill="#709e21" d="M2276 5951v2341h5225V5951z"/><path d="M4260 6775l-152 173c-65-76-162-130-249-130-163 0-282 130-282 293 0 173 119 303 282 303 87 0 184-54 249-119l152 152c-108 119-260 184-412 184-303 0-531-217-531-520 0-293 228-510 542-510 141 0 303 65 401 174zm596-163c304 0 520 206 520 510 0 292-216 498-531 498h-422V6612h433zm-184 802h184c152 0 260-119 260-292 0-185-119-304-271-304h-173v596h0zm1344-76h-11-195v282h-260V6612h455c271 0 423 130 423 358 0 152-65 260-184 325l216 325h-292l-152-282zm-11-206c108 0 174-54 174-162 0-98-66-152-174-152h-195v314h195 0z" fill="#fff"/></svg>