<svg xmlns="http://www.w3.org/2000/svg" width="32" height="32"><defs><linearGradient id="A" x1="4.494" y1="7.914" x2="13.832" y2="24.086" gradientUnits="userSpaceOnUse"><stop offset="0" stop-color="#18884f"/><stop offset=".5" stop-color="#117e43"/><stop offset="1" stop-color="#0b6631"/></linearGradient></defs><path d="M19.581,15.35,8.512,13.4V27.809A1.192,1.192,0,0,0,9.705,29h19.1A1.192,1.192,0,0,0,30,27.809h0V22.5Z" fill="#185c37"/><path d="M19.581,3H9.705A1.192,1.192,0,0,0,8.512,4.191h0V9.5L19.581,16l5.861,1.95L30,16V9.5Z" fill="#21a366"/><path d="M8.512,9.5H19.581V16H8.512Z" fill="#107c41"/><path d="M16.434,8.2H8.512V24.45h7.922a1.2,1.2,0,0,0,1.194-1.191V9.391A1.2,1.2,0,0,0,16.434,8.2Z" opacity=".1"/><path d="M15.783,8.85H8.512V25.1h7.271a1.2,1.2,0,0,0,1.194-1.191V10.041A1.2,1.2,0,0,0,15.783,8.85Z" opacity=".2"/><path d="M15.783,8.85H8.512V23.8h7.271a1.2,1.2,0,0,0,1.194-1.191V10.041A1.2,1.2,0,0,0,15.783,8.85Z" opacity=".2"/><path d="M15.132,8.85H8.512V23.8h6.62a1.2,1.2,0,0,0,1.194-1.191V10.041A1.2,1.2,0,0,0,15.132,8.85Z" opacity=".2"/><path d="M3.194,8.85H15.132a1.193,1.193,0,0,1,1.194,1.191V21.959a1.193,1.193,0,0,1-1.194,1.191H3.194A1.192,1.192,0,0,1,2,21.959V10.041A1.192,1.192,0,0,1,3.194,8.85Z" fill="url(#A)"/><path d="M5.7 19.873l2.511-3.884-2.3-3.862h1.847L9.013 14.6l.238.524h.017l.26-.546 1.342-2.447h1.7l-2.359 3.84 2.419 3.905h-1.809l-1.45-2.711A2.355 2.355 0 0 1 9.2 16.8h-.024a1.688 1.688 0 0 1-.168.351l-1.493 2.722z" fill="#fff"/><path d="M28.806,3H19.581V9.5H30V4.191A1.192,1.192,0,0,0,28.806,3Z" fill="#33c481"/><path d="M19.581,16H30v6.5H19.581Z" fill="#107c41"/></svg>