<svg xmlns="http://www.w3.org/2000/svg" width="100" height="97" shape-rendering="geometricPrecision" image-rendering="optimizeQuality" fill-rule="evenodd" viewBox="0 0 4399 4292"><path d="M1156 1005c0-10 0-20 19-20 118-5 288-9 469-9 512 0 726 278 726 638 0 464-331 659-746 659h-141v702c0 15-10 20-25 20h-283c-14 0-19-5-19-20V1005zm327 975c39 5 73 5 146 5 215 0 415-78 415-366 0-234-142-351-386-351-73 0-146 0-175 5v707zm1170-166c0-19 0-73-9-175 0-20 0-20 14-25 195-82 429-126 668-131 15 0 25 5 25 19v269c0 14-5 19-25 19-112-10-282 5-346 34v1151c0 15-5 20-19 20h-288c-15 0-20-5-20-20V1814zM0 0v4292h4399V0H0zm185 185h4029v3922H185V185z"/></svg>