<svg xmlns="http://www.w3.org/2000/svg" width="32" height="32"><defs><linearGradient id="A" x1="4.494" y1="7.914" x2="13.832" y2="24.086" gradientUnits="userSpaceOnUse"><stop offset="0" stop-color="#2368c4"/><stop offset=".5" stop-color="#1a5dbe"/><stop offset="1" stop-color="#1146ac"/></linearGradient></defs><path d="M28.806,3H9.705A1.192,1.192,0,0,0,8.512,4.191h0V9.5l11.069,3.25L30,9.5V4.191A1.192,1.192,0,0,0,28.806,3Z" fill="#41a5ee"/><path d="M30,9.5H8.512V16l11.069,1.95L30,16Z" fill="#2b7cd3"/><path d="M8.512,16v6.5L18.93,23.8,30,22.5V16Z" fill="#185abd"/><path d="M9.705,29h19.1A1.192,1.192,0,0,0,30,27.809h0V22.5H8.512v5.309A1.192,1.192,0,0,0,9.705,29Z" fill="#103f91"/><path d="M16.434,8.2H8.512V24.45h7.922a1.2,1.2,0,0,0,1.194-1.191V9.391A1.2,1.2,0,0,0,16.434,8.2Z" opacity=".1"/><path d="M15.783,8.85H8.512V25.1h7.271a1.2,1.2,0,0,0,1.194-1.191V10.041A1.2,1.2,0,0,0,15.783,8.85Z" opacity=".2"/><path d="M15.783,8.85H8.512V23.8h7.271a1.2,1.2,0,0,0,1.194-1.191V10.041A1.2,1.2,0,0,0,15.783,8.85Z" opacity=".2"/><path d="M15.132,8.85H8.512V23.8h6.62a1.2,1.2,0,0,0,1.194-1.191V10.041A1.2,1.2,0,0,0,15.132,8.85Z" opacity=".2"/><path d="M3.194,8.85H15.132a1.193,1.193,0,0,1,1.194,1.191V21.959a1.193,1.193,0,0,1-1.194,1.191H3.194A1.192,1.192,0,0,1,2,21.959V10.041A1.192,1.192,0,0,1,3.194,8.85Z" fill="url(#A)"/><path d="M6.9 17.988l.046.481h.028a4.8 4.8 0 0 1 .065-.47l.089-.465 1.255-5.407h1.624l1.3 5.326a7.761 7.761 0 0 1 .162 1h.022a7.6 7.6 0 0 1 .135-.975l1.039-5.358h1.477l-1.824 7.748h-1.727l-1.237-5.126q-.054-.222-.122-.578-.068-.356-.084-.52h-.021q-.021.189-.084.561l-.1.552-1.163 5.114H6.024L4.19 12.127h1.5l1.131 5.418a4.469 4.469 0 0 1 .079.443z" fill="#fff"/></svg>