<svg xmlns="http://www.w3.org/2000/svg" width="73" height="77" shape-rendering="geometricPrecision" image-rendering="optimizeQuality" fill-rule="evenodd" viewBox="0 0 17413 18377" xmlns:v="https://vecta.io/nano"><path d="M17114 17779h-2034v-613c0-1102-231-2006-687-2698 1-11 2-22 2-34V5367c0-1874-641-3301-1905-4241C11528 412 10202 13 8748 1c-4-1-8-1-12-1h-29-30c-4 0-7 0-11 1-1454 12-2781 411-3742 1125-1264 941-1905 2367-1905 4241v9067c0 12 0 23 2 34-457 692-688 1596-688 2698v613H299c-165 0-299 134-299 299s134 299 299 299h16815c165 0 299-134 299-299s-134-299-299-299zm-2632 0h-4182v-4172h1445v1159c-257 93-469 290-609 572-127 255-157 496-160 522-2 12-2 23-2 34v814c0 166 134 300 299 300s299-134 299-300v-794c14-87 102-562 473-608 369 46 458 520 471 608v794c0 166 135 300 300 300s299-134 299-300v-814c0-11-1-22-2-34-3-26-33-267-160-522-141-282-352-479-609-572v-1076c345 92 801 282 1202 680 621 616 936 1557 936 2796v613h0zm-5747-5979h-56c-1307-87-2310-653-2981-1682-468-718-609-1430-630-1552V5258c652-54 2156-337 3545-1743 479 576 1710 1768 3689 1768 14 0 29-1 44-1v3284c-22 122-157 817-619 1533-671 1041-1677 1614-2992 1701zm-85 598c6 1 13 1 19 1h75c7 0 13 0 20-1 339-22 650-73 936-146v1056c0 11 1 22 2 33v1543l-995 1074-994-1074v-1576-1056c286 73 598 124 937 146zm-937 3367l774 836c57 61 136 96 220 96a301.1 301.1 0 0 0 219-95l776-838v2015H7713v-2014zM5281 1606C6149 961 7365 604 8707 599c1342 5 2558 362 3425 1007 1105 821 1664 2086 1664 3761v8420c-907-777-1954-780-1999-779h-1498v-907c0-15-2-31-4-46 959-396 1566-1058 1935-1631 576-894 706-1755 711-1791a310.8 310.8 0 0 0 3-43V4971c0-84-35-163-96-220-60-56-142-85-225-79-107 8-215 12-321 12-2220 0-3402-1777-3413-1794-51-79-135-129-229-137-93-7-184 30-246 100-1571 1768-3410 1819-3615 1819-12 0-18-1-20-1-81-2-160 28-218 84-59 57-92 134-92 216v3619a310.8 310.8 0 0 0 3 43c6 36 135 897 711 1791 370 573 976 1235 1936 1631-2 15-4 31-4 46v908l-1497-1c-46 0-1094 3-2001 779V5367c0-1675 560-2939 1664-3761zm221 13779c289 0 525 236 525 526 0 289-236 525-525 525-290 0-525-236-525-525 0-290 235-526 525-526zm-2571 1781c0-2700 1517-3352 2272-3509v1171c-475 131-825 567-825 1083 0 619 504 1123 1124 1123 619 0 1123-504 1123-1123 0-516-349-952-824-1083v-1221h1314v4172H2931v-613z"/><circle cx="6583" cy="6662" r="357"/><circle cx="10831" cy="6662" r="357"/><path d="M8655 8592h104c320 0 580-261 580-581 0-165-134-299-299-299-159 0-289 124-299 282h-69c-9-158-139-282-299-282-165 0-299 134-299 299 0 320 261 581 581 581z"/><circle cx="5502" cy="15911" r="186"/><path d="M10516 9382c-128-104-316-84-420 45-4 4-363 396-1316 396-989 0-1471-410-1495-431-123-110-311-100-421 21-112 122-103 312 19 423 26 24 657 586 1897 586 1246 0 1730-556 1782-620 103-128 83-316-46-420z"/></svg>