<svg xmlns="http://www.w3.org/2000/svg" width="150" height="126" shape-rendering="geometricPrecision" image-rendering="optimizeQuality" fill-rule="evenodd" viewBox="0 0 47889 40349"><path d="M15397 35253c796 690 1593 1433 2442 2177h53l2761 2442c371 318 849 477 1327 477s902-159 1274-477l2495-2177c2283 1646 5097 2654 8177 2654 7698 0 13963-6264 13963-14016 0-3981-1699-7539-4354-10087 213-1062 372-2177 372-3239C43907 5734 38173 0 30899 0c-3238 0-6477 1221-8919 3398C19485 1221 16246 0 12954 0 5681 0 0 5734 0 13007c0 8707 6106 14123 15397 22246zm18529-18848c5468 0 9981 4460 9981 9928 0 5522-4513 10035-9981 10035-5522 0-9982-4513-9982-10035 0-5468 4460-9928 9982-9928zm-3186 14441c425 372 903 584 1434 584s1008-212 1433-584l5999-5999c744-797 744-2071 0-2814-796-796-2070-796-2867 0l-4565 4566-1275-1275c-743-743-2017-743-2814 0-796 797-796 2071 0 2815l2655 2707z"/></svg>