<svg xmlns="http://www.w3.org/2000/svg" width="150" height="156" shape-rendering="geometricPrecision" image-rendering="optimizeQuality" fill-rule="evenodd" viewBox="0 0 45245 46956"><path d="M22169 38311l3365-3365L5736 15148l1146-6222L0 2044 47 0l7881 7880 6222-1145 19797 19797 2652-2652c372-371 980-371 1351 0l408 408c372 372 372 980 0 1351l-3603 3603 6323 6322 2129-2130c371-371 979-371 1350 0l409 409c371 371 371 979 0 1350L33482 46677c-371 371-979 371-1351 0l-408-408c-371-372-371-980 0-1351l2843-2842-6323-6322-4315 4316c-372 371-980 371-1351 0l-408-408c-372-372-372-980 0-1351zm2782-18683l-2610 2610c-274 274-274 724 0 998h0c275 275 724 275 999 0l2610-2610 1366 1367-2610 2610c-274 274-274 723 0 998h0c275 274 724 274 998 0l2610-2610 1367 1366-2610 2610c-275 275-275 724 0 999h0c275 274 724 274 998 0l2610-2610 2222 2222-6321 6322L6782 14102l1204-5118 5118-1204 4753 4753-2610 2610c-275 275-275 724 0 999h0c274 274 724 274 998 0l2610-2610 1367 1366-2610 2610c-275 275-275 724 0 998h0c274 275 723 275 998 0l2610-2610 1366 1367-2609 2610c-275 275-275 724 0 998h0c274 275 723 275 998 0l2610-2610 1366 1367z"/></svg>