<svg xmlns="http://www.w3.org/2000/svg" width="77" height="77" shape-rendering="geometricPrecision" image-rendering="optimizeQuality" fill-rule="evenodd" viewBox="0 0 10755 10755" xmlns:v="https://vecta.io/nano"><path d="M5551 6419V4684c0-861-700-1561-1561-1561h-235c329-267 548-665 577-1113 219-148 352-393 352-663v-306c0-332-234-610-545-678-67-210-264-363-496-363H1899C1330 0 867 463 867 1032c0 276 108 535 303 730l44 45v101c0 490 228 928 582 1214h-235C700 3123 0 3823 0 4684v1735c0 574 467 1040 1041 1040v3296h3469V7459c574 0 1041-466 1041-1040zM3778 3729l-308 154v529l-521 312v-9l467-1246h275l87 260zM1214 1032c0-378 308-685 685-685h1744c96 0 174 78 174 173v174h173c191 0 347 155 347 347v306c0 80-21 156-58 223-118-331-402-590-762-662l-278-56-209 210c-99 98-229 152-368 152h-437c-304 0-593 99-829 283-117-127-182-291-182-465zm347 876v-97c185-161 417-250 664-250h437c231 0 449-90 613-254l78-78 96 19c313 63 541 341 541 660 0 670-545 1214-1215 1214-669 0-1214-544-1214-1214zm299 1561h275l467 1246v9l-520-312v-529l-309-154 87-260zm-819 3644c-383 0-694-312-694-694h694v694zm1561 3296H1388v-347h1214v347zm0-694H1388V4337h-347v1735H347V4684c0-647 508-1175 1146-1211l-144 431 386 193v512l867 520v4586zm-97-6246h541l-271 721-270-721zm1658 6940H2949v-347h1214v347zm347-3296v-694h694c0 382-311 694-694 694zm694-1041h-694V4337h-347v5378H2949V5129l868-520v-512l385-193-144-431c638 36 1146 564 1146 1211v1388zM9888 694h-32c-72-202-263-347-488-347h-521v1041h521c225 0 416-146 488-347h32c287 0 520 233 520 520v347c0 1052-856 1909-1908 1909s-1908-857-1908-1909v-347c0-287 234-520 521-520h31c72 201 263 347 489 347h520V347h-520c-226 0-417 145-489 347h-31c-479 0-868 389-868 867v347c0 1185 919 2157 2082 2247v5907c0 191-156 346-347 346s-347-155-347-346v-521c0-383-311-694-694-694h-191c-81-395-431-694-850-694-478 0-867 389-867 868 0 478 389 867 867 867 419 0 769-298 850-694h191c191 0 347 156 347 347v521c0 382 311 693 694 693s694-311 694-693V4155c1162-90 2081-1062 2081-2247v-347c0-478-389-867-867-867zm-520 347h-174V694h174c95 0 173 78 173 173 0 96-78 174-173 174zM7633 694h173v347h-173c-96 0-174-78-174-174 0-95 78-173 174-173zM5898 9541c-287 0-520-233-520-520s233-521 520-521 521 234 521 521-234 520-521 520z"/></svg>