<svg xmlns="http://www.w3.org/2000/svg" width="75" height="77" shape-rendering="geometricPrecision" image-rendering="optimizeQuality" fill-rule="evenodd" viewBox="0 0 5992 6140" xmlns:v="https://vecta.io/nano"><path d="M5889 5934h-700v-211c0-483-129-856-383-1108-324-322-731-322-747-322h-516v-329c330-136 538-364 665-561 198-307 243-603 245-616 0-5 1-10 1-15v-22c72-17 135-55 185-110 146-161 137-416 127-518-8-78-43-143-102-188-64-50-145-68-210-73v-197-683c0-323-134-540-410-661-49-22-72-52-77-98-4-43 10-82 10-82 17-45 1-97-40-123-41-27-95-21-130 14-147 149-293 152-612 144-207-6-465-12-805 36-469 67-677 357-769 588s-86 447-85 478v584c-66 5-147 22-211 73-59 45-94 110-102 188-10 102-19 357 127 518 51 56 114 93 188 111v21c0 5 0 10 1 15 2 13 46 309 244 616 127 197 336 425 665 561v329h-515c-18 0-424 0-748 322-254 252-382 625-382 1108v211H103c-57 0-103 46-103 103s46 103 103 103h5786c56 0 103-46 103-103s-47-103-103-103zm-906-211v211H3624V4499h417v398c-88 33-161 100-209 197-44 88-54 171-55 180-1 4-1 8-1 12v280c0 57 46 103 103 103s103-46 103-103v-274c4-29 35-193 162-209 127 16 158 179 163 209v274c0 57 46 103 103 103 56 0 103-46 103-103v-280c0-4-1-8-1-12-1-9-11-92-55-180-49-97-121-164-210-197v-370c119 32 276 97 414 234 214 212 322 536 322 962zm-1987-781c170 0 322-78 422-200v1192h-852V4734c101 127 256 208 430 208zm1565-2799c12 120-1 277-75 359-10 11-21 20-32 27v-461c32 4 64 12 84 28 10 8 20 20 23 47zM1812 875c105-262 309-417 607-460 323-46 571-40 771-35 233 6 418 11 586-73 24 80 80 155 185 201 201 89 287 230 287 473v576c-181-16-316-75-401-178-153-184-105-457-104-460 9-46-15-93-58-113-44-19-95-7-124 30-187 236-453 325-791 266-266-47-479-172-481-173-27-16-61-19-90-7-30 12-53 36-62 67-90 310-275 433-395 482v-197-5c0-2-10-191 70-394zm-309 1627c-74-82-87-239-75-359 3-27 13-39 23-47 21-16 54-24 87-28v463c-13-8-25-17-35-29zm458 796c-161-247-210-492-217-534V1687c141-40 404-161 551-523 98 45 253 107 433 139 317 57 592 3 809-158 15 115 55 249 151 364 124 151 312 237 560 255v233 767c-8 43-56 287-217 534-231 354-576 549-1026 579h-19c-450-30-795-225-1025-579zm1015 785h7 26 6c117-8 224-25 323-51v360c0 1-1 2-1 3 0 188-153 341-341 341-189 0-342-153-342-341v-363c98 26 205 43 322 51zM1893 5111c100 0 181 81 181 180 0 100-81 181-181 181s-181-81-181-181c0-99 81-180 181-180zm-885 612c0-929 522-1153 782-1207v403c-163 45-284 195-284 372 0 214 174 387 387 387s387-173 387-387c0-177-121-327-284-372v-420h364v1435H1008v-211z"/><circle cx="2265" cy="1917" r="123"/><circle cx="3727" cy="1917" r="123"/><path d="M3634 3190c36-45 29-109-16-145-44-36-109-29-144 15-1 2-125 137-453 137-340 0-506-142-515-149-42-37-106-34-144 8-39 42-36 107 6 145 9 8 226 202 653 202 429 0 595-192 613-213zm-665-550h53c136 0 247-111 247-247 0-57-46-103-103-103-56 0-103 46-103 103 0 23-18 41-41 41h-53c-23 0-41-18-41-41 0-57-46-103-103-103s-103 46-103 103c0 137 111 247 247 247z"/><circle cx="1893" cy="5291" r="64"/></svg>