<svg xmlns="http://www.w3.org/2000/svg" width="96" height="77" shape-rendering="geometricPrecision" image-rendering="optimizeQuality" fill-rule="evenodd" viewBox="0 0 12000 9627" xmlns:v="https://vecta.io/nano"><path d="M9529 3156C9427 2544 8943 583 7389 22c-255-76-535 51-637 306-77 255 51 535 305 637 841 306 1249 1325 1402 1962h-128-2267V1576c0-280-229-509-510-509-280 0-509 229-509 509v1351H1962v-510c0-280-229-509-510-509-280 0-509 229-509 509v510H510c-281 0-510 229-510 509v4000c0 281 229 510 510 510h433c76 943 866 1681 1834 1681s1758-764 1835-1681h2675c76 943 866 1681 1834 1681s1758-764 1835-1681h535c280 0 509-204 509-510v-254c-25-1860-1044-3440-2471-4026zM2777 8634c-459 0-841-382-841-841s382-841 841-841 841 382 841 841-382 841-841 841zm6319 0c-459 0-841-382-841-841s382-841 841-841c458 0 841 382 841 841s-383 841-841 841zm1630-1707c-305-586-917-968-1630-968-714 0-1300 382-1631 968H4382c-305-586-917-968-1630-968-714 0-1300 382-1631 968H968V3895h7338c1376 0 2522 1350 2624 3032h-204z"/></svg>