<svg xmlns="http://www.w3.org/2000/svg" width="77" height="77" shape-rendering="geometricPrecision" image-rendering="optimizeQuality" fill-rule="evenodd" viewBox="0 0 21444 21445" xmlns:v="https://vecta.io/nano"><path d="M21441 16030c0-800-379-1567-980-2025l-4378-3697V7149c0-691-293-1379-807-1890-510-507-1208-812-1873-791h-172c-183-1132-512-2292-1017-3441l-72-162c-230-525-787-865-1420-865-632 0-1190 340-1419 861l-73 168c-506 1151-834 2311-1019 3439h-164-14c-680 0-1357 288-1865 791-513 511-807 1200-807 1890v3159l-4343 3670C382 14463 3 15230 3 16027l-3 947v1 2 1787c0 495 399 894 893 894s894-399 894-894v-893h3022l-1141 2281c-165 332-109 732 142 1004 172 188 413 289 657 289 112 0 225-21 332-63l4468-1788c88-35 168-85 239-144 387 135 801 205 1216 205 416 0 829-70 1217-205 71 59 150 109 239 144l4467 1788c108 42 220 63 332 63a893.8 893.8 0 0 0 658-289c251-272 307-672 142-1004l-1141-2281h3022v893c0 495 399 894 893 894s893-399 893-894v-1787-2-1l-3-944zm-15187-840l-893-893 893-894 894 894-894 893zm5356-8586v11046c-504 294-1272 296-1776 0l-1-11077c-48-1402 259-2947 889-4488 630 1543 937 3089 888 4519zm3580 8586l-894-893 894-894 893 894-893 893z"/></svg>