<svg xmlns="http://www.w3.org/2000/svg" width="150" height="91" shape-rendering="geometricPrecision" image-rendering="optimizeQuality" fill-rule="evenodd" viewBox="0 0 48909 29831"><path d="M40993 14052c-1410 0-2766 380-3905 976l-2060-2711c2603-1897 5314-2765 5531-2819 271-109 542-326 650-597 109-271 109-597-54-868C37631 659 32208 8 31937 8c-434-53-813 163-1030 597-163 380-109 813 162 1139 651 705 922 1464 868 2331-54 326-162 705-325 1085-5965-1898-9706 867-11008 2114-3361-1192-6343-1789-8946-1789-4012 0-5748 1464-5910 1627-326 271-434 650-326 1030 109 380 434 705 814 759 3849 705 6560 2006 8404 3579l-2440 2765c-1247-759-2711-1193-4284-1193-4337 0-7916 3470-7916 7863 0 4391 3579 7916 7916 7916 4392 0 7917-3525 7917-7916 0-2061-759-3905-2006-5314l2277-2657c3416 3904 2711 8621 2657 8947-54 271 54 596 217 813 217 271 488 379 813 379h9272c326 0 597-108 814-379 162-217 271-542 217-813-651-4122 1084-7158 3361-9218l1952 2602c-1463 1410-2331 3416-2331 5640 0 4391 3524 7916 7917 7916 4337 0 7916-3525 7916-7916 0-4393-3579-7863-7916-7863zM30473 7003c-1030 1356-2332 2495-3253 3199-1573-813-2982-1518-4447-2060 1410-1030 3905-2223 7700-1139zM13773 21915c0 3199-2603 5856-5857 5856-3199 0-5856-2657-5856-5856 0-3200 2657-5857 5856-5857 1085 0 2061 326 2929 814l-3742 4392 1627 1301 3687-4338c868 976 1356 2278 1356 3688zm14097 108h-6940c54-3091-813-11062-10899-14315 488-54 1030-108 1627-108 2819 0 7700 813 15182 4717 326 163 705 163 1030-54 217-163 5639-3850 6127-7971 55-488 0-976-53-1409 1409 759 3253 2222 4825 5042-3091 1301-11441 5585-10899 14098zm13123 5748c-3254 0-5857-2657-5857-5856 0-1519 597-2929 1573-3959l3470 4609 1627-1301-3471-4555c814-434 1681-651 2658-651 3199 0 5856 2657 5856 5857 0 3199-2657 5856-5856 5856z"/></svg>