<svg xmlns="http://www.w3.org/2000/svg" width="150" height="111" shape-rendering="geometricPrecision" image-rendering="optimizeQuality" fill-rule="evenodd" viewBox="0 0 20831 15354"><path d="M3534 3862l3371 983 3698-2692-5313 141c-47 23-94 23-141 46l-1685 984c-93 46-164 140-164 257 0 140 94 257 234 281zM20105 843L16407 47c-140-24-304-47-468-47-515 0-960 164-1334 445L3441 8543 772 8426h-23c-421 0-749 327-749 726 0 233 117 444 281 585l2621 2059c47 47 118 70 188 70h117c749-304 3510-1778 6811-3580l632 6764c0 164 140 304 327 304 70 0 141-47 187-94l1475-1217c70-70 140-163 164-257l1381-7771 6179-3464c281-164 468-468 468-796 0-444-304-819-726-889z"/></svg>