<svg xmlns="http://www.w3.org/2000/svg" width="150" height="95" shape-rendering="geometricPrecision" image-rendering="optimizeQuality" fill-rule="evenodd" viewBox="0 0 140595 89158"><path stroke="#000" d="M139658 23849c-311-936-1559-1715-2494-1715h-12937c-779 0-1714 467-2182 1246-2805-6389-5922-13092-8885-17612-467-780-1402-1403-2338-1715C110355 3898 97262 0 70297 0S30240 3898 29772 4053c-935 312-1870 935-2338 1715-2962 4520-6079 11223-8885 17612-467-779-1402-1246-2182-1246H3431c-936 0-2183 779-2494 1715-1248 3740-1248 5922 0 9819 311 935 1558 1715 2494 1715h6858c-3118 3117-5145 7481-5145 12157v623l469 2963c156 1090 467 1870 1090 2649v6702h-311c-935 0-1715 779-1715 1715v20263c0 3740 3118 6703 6858 6703h13716c3742 0 6858-2963 6858-6703v-8729h77156v8729c0 3740 3116 6703 6858 6703h13560c3896 0 6858-2963 6858-6703V62192c0-936-780-1715-1559-1715h-467v-6079c935-779 1715-1870 1870-3272l468-2963v-623c0-4676-2027-9040-5144-12157h5455c935 0 2183-780 2494-1715 1248-3897 1248-6079 0-9819zM33668 11691c3897-935 16055-3273 36629-3273s32733 2338 36630 3273c2805 4675 5766 11378 8260 17457-6547-1091-19639-2338-44577-2338-26498 0-39280 1403-45359 2650 2494-6235 5612-12938 8417-17769zM10289 69985v-4364h12001l1248 4364H10289zm-156-9508v-8261l23224 1559 2338 6702H10133zm89000 8885H42086l-1715-5768h60476l-1714 5768zm2961-8885H39280l-1715-4987h66244l-1715 4987zm-65620-8261l-1714-5611h71854l-1714 5611H36474zm94455 17769h-13248l1403-4364h11845v4364h0zm156-9508h-25406l2182-6702 23224-1559v8261z"/></svg>