<svg xmlns="http://www.w3.org/2000/svg" width="87" height="77" shape-rendering="geometricPrecision" image-rendering="optimizeQuality" fill-rule="evenodd" viewBox="0 0 9883 8737" xmlns:v="https://vecta.io/nano"><path d="M3267 5130c-748 373-1462 728-2366 991V4368c0-136 67-264 180-341l675-459c58-39 162-71 232-71h1084v-638h1219v638h935c152 0 275 123 275 275v379c-860 294-1552 639-2234 979zm-195-2902v332h1219v-332c0-170-137-307-307-307h-605c-170 0-307 137-307 307zm-709-966c88 0 172-18 248-50 86 119 225 198 384 198 51 0 100-11 147-26-1 9-3 17-3 26 0 162 132 294 294 294 163 0 294-132 294-294 0-163-131-294-294-294 23-56 36-117 36-181 0-262-212-474-474-474-9 0-17 2-26 2-74-266-316-463-606-463-348 0-631 283-631 631 0 349 283 631 631 631zm6179 6179c-61 93-63 212-1 305l364 545c133 199-22 463-261 445L556 8100c-220-17-404-172-460-385-49-187-96-419-96-624 0-422 170-501 517-584 3105-741 3959-2526 9139-2819 135-7 243 110 225 244-153 1137-696 2529-1339 3509zm-395-1335c0-76-62-137-138-137a136.57 136.57 0 0 0-137 137c0 212-142 390-334 449v-946c103-52 174-157 174-280 0-173-140-313-313-313s-313 140-313 313c0 124 73 230 177 280v946c-193-59-335-237-335-449a136.57 136.57 0 1 0-274 0c0 412 335 747 746 747 412 0 747-335 747-747z"/></svg>