<svg xmlns="http://www.w3.org/2000/svg" width="91" height="77" shape-rendering="geometricPrecision" image-rendering="optimizeQuality" fill-rule="evenodd" viewBox="0 0 6862 5780" xmlns:v="https://vecta.io/nano"><path fill="#a2b3bf" d="M5667 2885c-121 0-218-98-218-219v-336c0-344 235-638 571-714 117-27 234 47 261 165 26 117-47 234-165 261-136 30-231 149-231 288v336c0 121-98 219-218 219z"/><path fill="#c9d2d9" d="M5667 2885c-121 0-218-98-218-219v-336c0-203 82-389 218-523v1078z"/><path fill="#f9aa1a" d="M6691 2731l-2254-498-407-1897c-26-118-142-193-259-168-103 22-173 113-173 213H1514h0c0-120-98-218-218-218-121 0-219 98-219 218v3979c0 120 98 218 219 218h5347c121 0 219-98 219-218V2944c0-102-72-191-171-213z"/><path fill="#2e373a" d="M201 4301C81 4292-9 4187 1 4066l40-499c10-120 115-209 235-200 120 10 210 115 200 235l-40 500c-10 120-115 209-235 199z"/><path fill="#212a2d" d="M5660 3500c-595 0-1078 483-1078 1078 0 594 483 1077 1078 1077 594 0 1077-483 1077-1077 0-595-483-1078-1077-1078z"/><path fill="#2e373a" d="M5660 3500c-595 0-1078 483-1078 1078 0 594 483 1077 1078 1077V3500z"/><circle fill="#a2b3bf" cx="5660" cy="4578" r="282"/><path fill="#c9d2d9" d="M5660 4859c-156 0-282-126-282-281 0-156 126-282 282-282v563z"/><path fill="#ffbe24" d="M3857 167c-28-5-57-5-86 1-103 22-173 113-173 214H1514h0c0-121-98-219-218-219-121 0-219 98-219 219v3978c0 120 98 218 219 218h2554l7-4411z"/><path fill="#bddeff" d="M4437 2233L4030 336c-26-118-142-193-259-168-103 22-173 113-173 213H1514h0c0-120-98-218-218-218-121 0-219 98-219 218v1852h3361-1z"/><path fill="#d7ebff" d="M2758 381H1514h0c0-120-98-218-218-218-121 0-219 98-219 218v1852h1681V381z"/><path fill="#2e373a" d="M1077 381v3979c0 120 98 218 219 218h600V381h-819z"/><path fill="#212a2d" d="M1895 2202c-935 0-1696 761-1696 1696s761 1696 1696 1696c936 0 1696-761 1696-1696s-760-1696-1696-1696z"/><path fill="#a2b3bf" d="M1895 3317c-354 0-642 288-642 642s288 642 642 642 642-288 642-642-288-642-642-642z"/><path fill="#2e373a" d="M1895 2202c-935 0-1696 761-1696 1696s761 1696 1696 1696V2202z"/><path fill="#c9d2d9" d="M1895 3317c-354 0-642 288-642 642s288 642 642 642V3317z"/><path fill="#ba2b11" d="M4058 436H1095a217.23 217.23 0 0 1-218-218C877 98 974 0 1095 0h2963c121 0 219 98 219 218 0 121-98 218-219 218z"/><path fill="#e64122" d="M2758 436H1095a217.23 217.23 0 0 1-218-218C877 98 974 0 1095 0h1663v436h0z"/><path d="M2715 5548c-55-5-109-31-148-76-79-92-67-230 24-308l382-325c92-78 229-66 308 25 78 92 66 230-25 308l-382 324c-46 39-103 56-159 52zm-716 231l-499-40c-120-10-210-115-200-236 9-120 115-209 235-200l499 41c120 10 210 115 200 235s-115 210-235 200z" fill="#212a2d"/><path d="M1895 5770l-395-31c-120-10-210-115-200-236 9-120 115-209 235-199l360 29v437zM830 5395c-56-4-110-30-149-76l-325-381c-78-92-66-230 25-308 92-78 230-67 308 25l324 382c78 91 67 229-24 307-46 39-104 56-159 51z" fill="#2e373a"/><path fill="#ba2b11" d="M3603 4466c-14 0-27-1-41-3-118-22-196-136-174-255 35-190 34-383-4-575-80-398-309-741-646-966-338-225-743-306-1141-226-301 60-574 207-788 426-84 86-222 88-308 4-86-85-88-223-4-309 276-282 627-472 1015-549 512-102 1033 1 1468 291 434 290 730 732 832 1244 49 246 50 495 5 740-20 105-111 178-214 178z"/><path fill="#e64122" d="M1896 2411c-99 0-199 10-299 30-301 60-574 207-788 426-84 86-222 88-308 4-86-85-88-223-4-309 276-282 627-472 1015-549 128-26 256-38 383-39l1 437z"/><path fill="#995d3d" d="M3388 1478c-98-70-234-47-305 50-70 98-48 235 50 305l557 400h748l-1050-755z"/><path fill="#2e373a" d="M3049 2115c-43 0-87-13-125-39-99-69-123-205-54-304l365-523c69-99 205-123 303-54 99 69 123 205 54 304l-364 523c-43 60-110 93-179 93z"/></svg>