<svg xmlns="http://www.w3.org/2000/svg" width="150" height="84" shape-rendering="geometricPrecision" image-rendering="optimizeQuality" fill-rule="evenodd" viewBox="0 0 20831 11645" fill="#030104"><path d="M10531 1922h6258l716 1201h-6974zM185 9566c0 1155 947 2079 2101 2079 1155 0 2102-924 2102-2079s-947-2101-2102-2101c-1154 0-2101 946-2101 2101zm1201 0c0-508 392-900 900-900 486 0 901 392 901 900 0 485-415 901-901 901-508 0-900-416-900-901zm3002-1778c1247 1409 0 1640 8983 1640 0 0-1016-93 70-1155h1455c-277 346-462 785-462 1293 0 1155 947 2079 2102 2079 1154 0 2101-924 2101-2079 0-508-185-947-462-1293h1109c2378 0-1594-4757-1594-4757h-7182s4388 4757 0 4757h-762s-6490-555-2540-6905l646-647h1155V329s-1755-739-1894 0c-162 738-3903 5242-3903 5242C1894 5271 878 6033 0 7465c1593-485 3118-1086 4388 323zm11247 1778c0-508 392-900 901-900 484 0 900 392 900 900 0 485-416 901-900 901-509 0-901-416-901-901zm4596-2656v1109h600V6910z"/><path d="M5866 1114c-208-254 0-1109 0-1109l1547 254-669 1155-878-300z"/></svg>