<svg xmlns="http://www.w3.org/2000/svg" width="150" height="99" shape-rendering="geometricPrecision" image-rendering="optimizeQuality" fill-rule="evenodd" viewBox="0 0 28842 19057"><path d="M24717 10616c224 0 384-128 480-288 95-160 127-384 32-575l-3326-7259c192-256 288-543 288-863 0-896-735-1631-1631-1631-863 0-1599 735-1599 1631 0 863 736 1599 1599 1599 128 0 224 0 320-32l2910 6363c-1567 415-4829 1790-4797 6139h-4476c-2175-3038-128-9657-96-9721 96-255-64-799-576-799h-64V3805c0-352-255-607-607-607H2942c-352 0-608 255-608 607v1407c-607 256-447 799-288 991l9114 10520c95 128 287 224 447 224h8058c512 0 607-511 607-672-415-5084 4253-5627 4445-5659zm-4540-8985c0-224 191-384 383-384 224 0 384 160 384 384 0 192-160 352-384 352-192 0-383-160-383-352zm-7611 2782v767H3549v-767h9017zm-671 11287L3837 6395h9209c-480 1855-1439 6363 64 9305h-1215zm13110-4349c-2143 0-3869 1727-3869 3837 0 2143 1726 3869 3869 3869 2110 0 3837-1726 3837-3869 0-2110-1727-3837-3837-3837zm0 6459c-1471 0-2654-1151-2654-2622 0-1439 1183-2622 2654-2622 1439 0 2622 1183 2622 2622 0 1471-1183 2622-2622 2622zM3837 11351C1727 11351 0 13078 0 15188c0 2143 1727 3869 3837 3869 2142 0 3869-1726 3869-3869 0-2110-1727-3837-3869-3837zm0 6459c-1439 0-2622-1151-2622-2622 0-1439 1183-2622 2622-2622 1471 0 2654 1183 2654 2622 0 1471-1183 2622-2654 2622zm21360-3261l447 448-863 863-448-448 864-863zm-21999 863l447 448 864-863-448-448-863 863z"/></svg>