<svg width="0" height="0" class="hidden">
  <symbol xmlns="http://www.w3.org/2000/svg" shape-rendering="geometricPrecision" image-rendering="optimizeQuality" fill-rule="evenodd" xmlnsV="https://vecta.io/nano" viewBox="0 0 114834 114822" id="initial--design">
    <path d="M96379 370c-1909 509-3436 1145-4836 2164-637 381-6237 5854-12473 11964L67870 25698l-2418-510-4327-891c-1655-127-2037-254-2418-763-2037-3309-5473-5727-9419-6618-1527-255-4836-255-6363 127-510 127-764 0-1528-1400-1272-1909-4072-4455-6109-5727-5981-3437-13491-3309-19345 509-4073 2545-6618 6364-8018 11200-382 1527-509 5854-255 7509l255 891-1527 763c-2928 1273-5219 4201-5983 7255-1527 5855 2164 11964 8146 13491 1018 254 2927 382 8655 382h7382l-128 1273c-382 2036-255 7763 128 9290 127 764 508 2291 890 3309l509 1782-8272 8273-8146 8273-4709 12091L34 109316c-382 2927 2545 5854 5473 5473 508-128 6363-2291 13108-4837l12092-4709 5981-5982 5982-5854v891c0 1145 382 2290 1018 3181 382 637 382 637 0 1273-1527 2037-1273 4709 382 6618 509 509 1273 1146 1782 1400 636 255 1018 764 1655 1910 1399 2799 4199 4963 7381 5727 4709 1273 10055-1146 12473-5727 636-1146 1018-1655 1655-1910 1654-763 3181-3054 3181-4709 0-509 128-509 1145 509l1019 1018 1655-1527c2418-2291 4200-2673 5981-1272 1018 1017 1273 1908 1273 4327v2290h5600 5600v-2290c0-2419 254-3310 1400-4327 1655-1401 3436-1019 5854 1272l1655 1527 3945-3818 3819-3818-1655-1654c-2291-2419-2673-4201-1145-5982 891-1018 1782-1273 4327-1273h2164v-5600-5600h-2164c-2545 0-3436-255-4327-1400-1528-1655-1146-3437 1145-5855l1655-1654-3946-3946-3818-3818-1400 1400c-2418 2418-4454 2928-6109 1400-1146-891-1400-1782-1400-4327v-2036h-1909l-1909-128-255-1909c0-1018-382-2927-763-4200l-510-2418 11200-11200 11964-12473c4709-6873 2546-16800-4582-21127-3181-1909-7890-2672-11327-1782zm5728 3564c5217 1145 9036 5855 9036 11200 0 3054-1401 5854-3946 8400l-1654 1527-7891-7891-7891-7891 1527-1654 2800-2291c2418-1400 5345-1909 8019-1400zm-71528 7891c3055 1145 5727 3054 7382 5472l1018 1400-1527 1018c-2673 1910-4836 5473-5600 8528-254 1527-254 1527-1527 2164-2291 1018-3946 3309-4328 5600l-127 1017h1909 1782l254-1017c1019-3437 6237-3437 7128 0l255 1017h1781 1909l-127-1017c-382-2291-2164-4710-4200-5600-1018-382-1146-382-1018-1273 254-1528 1527-3818 2800-5218 2800-2928 6873-4201 10691-3182 5218 1400 8654 6236 8399 11454-127 2037-254 2037-1399 2801-2037 1272-3691 3945-3946 6363l-254 1273h1909c1655 0 1909-128 1909-382 0-2545 2800-5219 5473-5219 2799 0 5473 2674 5473 5601 0 2163-1782 4709-3946 5218-764 254-6873 382-27109 254H9197l-1145-636c-1782-891-2545-1655-3436-3309-637-1273-764-1527-764-3436 0-2291 636-3692 2036-5219 1528-1400 2928-2036 5219-2036 1781 0 2163 127 3182 636l1908 1146c891 764 2037 3055 2291 4455l127 1018h1782 1910v-637c0-254-255-1272-382-2036-1146-4200-4582-7509-8910-8146-890-254-1400-381-1527-636-381-1018-381-4709 0-6364 1146-5472 5855-10181 11200-11454 2291-509 5728-255 7891 382zm64400 8145l7891 7764-1400 1527-1400 1400-8018-7891-7891-8018 1400-1273c764-763 1400-1400 1527-1400l7891 7891zm-10181 891l3308 3182-4327 4327-4200 4200-1909-1400c-1400-1145-4836-3309-5855-3691-127-127 9418-9927 9673-9927l3310 3309zm9290 9291l3309 3182-4963 4964-5091 4709c-382-1019-2545-4455-3691-5855l-1400-1782 4200-4327 4327-4200 3309 3309zm-29400-1400c8146 2036 15273 7764 19091 15527 3691 7000 4200 15400 1527 21891-1272 2800-3054 5218-7891 10182-2545 2545-5090 5218-5600 5854-1272 1528-3054 4328-3563 5600l-509 1019h-4200-4328v-4964c0-5982-127-6491-1782-8146-1272-1400-2163-1654-5472-1654-2418 0-2673-127-3182-637-381-381-509-890-509-1272s128-891 509-1273l636-636h9800l10946-255c2036-509 3945-3054 3945-5218 0-2163-1909-4709-3945-5345-637-128-3309-255-9036-255h-8018l-637-509c-509-636-509-764-509-3564v-3181l5600-128h5727l1528-763c2163-1018 3563-2291 4581-4455 764-1655 891-1782 891-3945 0-2036-127-2291-764-3818-381-764-1145-1910-1781-2546-1145-1272-3691-2545-5473-2800l-1272-127v-1909c0-1018-128-2291-255-2673l-128-763 1146 127 2927 636zM48270 55097c0 1782 128 3437 255 3946 381 1273 2291 3182 3563 3564 636 127 3310 254 8910 254h8272l509 637c382 254 509 763 509 1272 0 382-127 891-509 1273l-509 509H59215l-10817 382c-1274 254-3182 2291-3564 3563-637 2164-255 3818 1400 5473 1527 1527 2291 1782 5727 1782 2418 0 2546 0 3054 509 637 636 637 636 637 5600v4964h-4327-4201l-508-1019c-509-1272-2291-4072-3564-5600-509-636-3055-3309-5600-5854-6109-6364-7764-8655-8909-13491-636-2418-764-5727-509-8654l254-2291h10055 9927v3181zm43909 8528c637 891 2164 1909 3309 2418 2037 891 4964 509 6873-891l1018-636 1146 1272 1272 1146-636 1018c-891 1146-1400 2927-1400 4200 0 1400 636 3309 1527 4582 1146 1400 2673 2290 4454 2673l1401 254v1782 1782l-1146 127c-5345 764-8018 7128-4836 11454l636 1019-1272 1272-1146 1273-1018-636c-4455-3182-10818-509-11582 4836l-127 1146h-1782-1782l-127-1146c-764-5345-7127-8018-11455-4836l-1018 636-1273-1145-1145-1273v-1146c127-1018 127-1527-509-2672l-637-1400 1019-1909c1018-2037 3436-5346 3945-5473 128-127 255 127 255 382 0 763 1018 3309 1909 4582 1654 2672 3945 4454 7127 5472 1782 637 5600 637 7382 0 3054-890 5982-3181 7382-5600 3055-5218 2291-11709-1909-15908-2419-2292-5855-3819-8910-3819-381 0-763 0-763-127 0 0 255-509 509-1146 637-1400 1655-5218 1655-6491v-890l509 1527c254 764 763 1909 1145 2291zM31979 76098l1909 2163-6745 6746-6746 6745-3309-3309-3309-3309 7127-7000 7001-7128 1017 1401 3055 3691zm60709-3055c2164 1018 3436 2291 4455 4454 891 1655 891 1782 891 3946 0 2036 0 2291-891 3945-1019 2164-2291 3437-4455 4455-1400 637-1782 764-3818 764-2037 0-2291-127-3691-764-2164-1018-3563-2291-4582-4455-763-1654-891-1909-891-3818v-2163l1782-1910c1019-891 2291-2418 3055-3309 1527-1781 2290-2036 4836-1908 1400 0 2164 254 3309 763zm-53963 9927c891 1018 2291 2546 2799 3437l1146 1654-6491 6491-6491 6491-3309-3309-3309-3309 6745-6746 6873-6745c127 0 1018 891 2037 2036zm-12728 19982c0 128-2800 1273-5981 2418l-5855 2291-3564-3436-3436-3564 2291-5855 2291-6109c127 0 3309 3055 7255 7000l6999 7255zm41873-9800c382 382 636 763 636 1273 0 381-254 891-636 1272l-509 510h-9928-9926l-510-510c-381-381-636-891-636-1272 0-510 255-891 636-1273l510-637h9926 9928l509 637zm0 7382c382 382 636 891 636 1272 0 510-254 891-636 1274l-509 636h-9928-9926l-510-636c-381-383-636-764-636-1274 0-381 255-890 636-1272l510-509h9926 9928l509 509zm-57654 8654c-255 128-4964 1910-5346 1910s-1145-764-1145-1146c0-255 509-1527 1018-2927l891-2418 2291 2163 2291 2418zm53200-1145c-1400 2036-3310 2927-5983 2927-2672 0-4581-891-5981-2927l-509-637h6490 6491l-508 637zm23672-31818c-1145 254-3182 2291-3436 3436-637 2291-255 3945 1400 5600 2291 2291 5345 2291 7636 0s2419-5218 255-7509c-1528-1654-3691-2291-5855-1527zm3055 3945c1145 1145 382 3055-1273 3055-891 0-1782-891-1782-1782 0-1018 891-1909 1782-1909 509 0 891 254 1273 636z"></path>
  </symbol>
</svg>