<svg xmlns="http://www.w3.org/2000/svg" width="150" height="150" shape-rendering="geometricPrecision" image-rendering="optimizeQuality" fill-rule="evenodd" viewBox="0 0 11137 11137"><path fill="#3b599a" d="M10495 0H642C284 0 0 284 0 642v9853c0 346 284 642 642 642h9853c358 0 642-284 642-642V642c0-358-284-642-642-642z"/><path fill="#6d85b1" d="M803 8742h9532v1593H803z"/><path fill="#fff" d="M7915 4778V3704c0-407 86-654 617-654h951l24-1371s-432-61-1037-61c-1469 0-2111 913-2111 1901v1259H5285v1457h1074v4100h1556V6235h1531l74-1457H7915h0z"/></svg>