<svg xmlns="http://www.w3.org/2000/svg" width="150" height="150" shape-rendering="geometricPrecision" image-rendering="optimizeQuality" fill-rule="evenodd" viewBox="0 0 7860 7860" xmlns:v="https://vecta.io/nano"><defs><radialGradient id="A" gradientUnits="userSpaceOnUse" gradientTransform="matrix(-0.833354 -2.28644 3.6355 -1.47926 -25518 30468)" cx="3694.37" cy="8882.21" r="3930.18" fx="3694.37" fy="8882.21"><stop offset="0" stop-color="#ffd45e"/><stop offset=".341" stop-color="#ff7708"/><stop offset=".549" stop-color="#de0969"/><stop offset=".769" stop-color="#7d14ba"/><stop offset="1" stop-color="#1a2beb"/></radialGradient></defs><path fill="url(#A)" d="M0 6184V1677C0 755 755 0 1677 0h4507c922 0 1676 755 1676 1677v4507c0 922-754 1676-1676 1676H1677C755 7860 0 7106 0 6184z"/><path d="M2710 1044c-920 0-1666 746-1666 1666v2440c0 920 746 1666 1666 1666h2440c920 0 1666-746 1666-1666V2710c0-920-746-1666-1666-1666H2710zM1576 2696c0-611 495-1106 1106-1106h2497c610 0 1106 495 1106 1106v2497c0 611-496 1106-1106 1106H2682c-611 0-1106-495-1106-1106V2696zm2354-263c-827 0-1497 670-1497 1497s670 1498 1497 1498 1498-671 1498-1498-671-1497-1498-1497zm-971 1497c0-536 435-971 971-971s971 435 971 971-435 971-971 971-971-435-971-971zm2170-1554c0 192 156 349 349 349 192 0 349-157 349-349 0-193-157-349-349-349-193 0-349 156-349 349z" fill="#fff"/></svg>