<svg xmlns="http://www.w3.org/2000/svg" width="150" height="150" shape-rendering="geometricPrecision" image-rendering="optimizeQuality" fill-rule="evenodd" viewBox="0 0 11137 11137"><path fill="#00b900" d="M8717 11137H2420C1087 11137 0 10051 0 8717V2420C0 1087 1087 0 2420 0h6297c1334 0 2420 1087 2420 2420v6297c0 1334-1086 2420-2420 2420z"/><path fill="#fff" d="M9606 5087c0-1815-1827-3297-4050-3297-2235 0-4062 1482-4062 3297 0 1617 1445 2976 3395 3235 136 25 309 86 359 198 37 111 24 271 12 370 0 0-50 284-50 346-24 98-86 407 346 222 420-185 2321-1383 3173-2358h0c593-643 877-1297 877-2013z"/><path d="M4729 4210h-284c-37 0-74 37-74 74v1754c0 49 37 86 74 86h284c49 0 86-37 86-86V4284c0-37-37-74-86-74zm1951 0h-284c-50 0-74 37-74 74v1050l-803-1087c0-12 0-12-12-12v-12h-13s0-13-12-13h-12-13-296c-37 0-74 37-74 74v1754c0 49 37 86 74 86h296c37 0 75-37 75-86V5001l802 1086c0 12 12 12 12 25h13 12v12h25 284c49 0 74-37 74-86V4284c0-37-25-74-74-74zM4050 5680h-778V4284c0-37-37-74-74-74h-296c-37 0-74 37-74 74v1754h0c0 24 12 49 24 61 13 13 37 25 50 25h0 1148c37 0 74-37 74-86v-284c0-37-37-74-74-74zm4198-1025c49 0 86-37 86-87v-284c0-37-37-74-86-74H7112h0c-25 0-37 0-49 13v12c-25 12-25 25-25 49h0v1754h0c0 24 0 49 25 61 12 13 24 25 49 25h0 1136c49 0 86-37 86-86v-284c0-37-37-74-86-74h-766v-284h766c49 0 86-37 86-87v-284c0-37-37-74-86-74h-766v-296h766z" fill="#00b900"/></svg>