<svg xmlns="http://www.w3.org/2000/svg" width="143" height="36" shape-rendering="geometricPrecision" image-rendering="optimizeQuality" fill-rule="evenodd" viewBox="0 0 10147 2578"><path d="M1307 965h388v1224h-388V965zm5120-35c153 0 282 59 377 153V388h388v1801h-353v-164c-94 117-247 188-412 188-318 0-577-235-577-647 0-389 259-636 577-636zm106 341c176 0 306 106 306 295 0 200-130 317-306 317-165 0-294-117-294-317 0-189 129-295 294-295zM5120 930c318-12 601 153 624 647v106h-871c12 153 165 247 283 247 94 0 212-70 259-153l270 189v12c-141 188-365 247-565 235-353-24-635-259-635-636 0-365 306-635 635-647zm0 271c118 0 236 70 248 223h-495c12-129 130-223 247-223zm-3213 988V965h365v177c70-153 235-212 388-212 330 23 424 224 424 506v753h-377v-647c0-188-70-271-200-271-129 0-223 71-223 330v588h-377zM1507 365c117 0 212 94 212 212 0 129-95 223-212 223-130 0-224-94-224-223 0-118 94-212 224-212zM0 2189V388h400v1437h730v364H0zM3284 388h389v1072l423-495h471l-494 553 482 671h-470l-412-612v612h-389V388zm4485 2190h2189c106 0 189-94 189-200V200c0-106-83-200-189-200H7769c-106 0-200 94-200 200v2178c0 106 94 200 200 200z" fill="#2867b2"/><path fill="#fefefe" d="M8169 377c118 0 212 94 212 212 0 129-94 223-212 223-129 0-224-94-224-223 0-118 95-212 224-212zm424 1824V977h376v177c71-153 224-212 389-212 318 23 424 223 424 506v753h-377v-647c0-189-71-271-200-271-141 0-224 71-224 330v588h-388zM7969 977h388v1224h-388V977z"/></svg>