<svg xmlns="http://www.w3.org/2000/svg" width="150" height="150" shape-rendering="geometricPrecision" image-rendering="optimizeQuality" fill-rule="evenodd" viewBox="0 0 11137 11137" fill="#08c"><path d="M0 0v11137h11137V0H0zm9421 2469L8112 8754c-37 148-210 222-333 124L5988 7581c-111-74-259-74-358 12l-975 815c-124 87-296 37-334-111l-691-2210-1778-654c-185-62-185-321 0-383l7285-2827c160-50 309 86 284 246zM7668 3605L4210 5729c-135 86-197 247-160 395l383 1321c24 99 160 87 172-12l99-716c13-136 87-272 185-358l2853-2655c61-49-13-136-74-99z"/></svg>