<svg xmlns="http://www.w3.org/2000/svg" width="125" height="150" shape-rendering="geometricPrecision" image-rendering="optimizeQuality" fill-rule="evenodd" viewBox="0 0 7621 9166"><path fill="#ee1d52" d="M1037 5802l30 72c-10-11-20-31-30-72zm884-1412c40-335 172-528 426-722 356-264 803-111 803-111v-884c112 0 224 0 325 20v1138s-447-152-802 112c-254 193-387 386-427 711 0 183 30 427 183 630-31-20-71-40-112-71-335-234-396-579-396-823zm3394-3353c-244-275-336-559-366-763h305s-61 519 386 1037l10 10c-122-81-234-173-335-284h0zm1493 802v1108s-396-10-680-92c-417-101-681-274-681-274l-193-132v2297c0 122-31 447-132 711-133 345-346 579-376 620 0 0-254 315-702 518-386 193-731 183-843 193 0 0-600 20-1148-345-122-82-224-173-325-275h0c548 366 1148 346 1148 346 101-10 457 0 853-193 437-204 681-519 681-519 41-40 254-274 386-619 102-265 132-590 132-702V2185c21 10 194 122 194 122s264 172 670 274c295 81 691 102 691 102v-874c143 30 254 40 325 30h0z"/><path d="M6483 1809v874s-396-21-691-102c-406-102-670-274-670-274s-183-122-194-122v2296c0 112-30 437-132 702-132 345-345 579-386 619 0 0-244 315-681 519-396 193-752 183-853 193 0 0-600 20-1148-346h0c-61-61-112-122-163-183-173-223-285-487-305-559h0c-51-132-142-447-122-741 20-529 193-854 244-935 122-224 295-427 488-590 162-142 366-264 569-345 223-92 467-142 711-142v884s-447-153-803 111c-254 194-386 387-426 722 0 234 61 589 396 823 41 31 81 51 112 71 61 81 132 153 213 203 325 224 600 234 955 92 224-92 397-305 478-539 51-142 51-294 51-447V274h813c40 204 132 488 376 763 101 111 213 203 335 284 30 41 213 224 457 346 122 61 244 111 376 142h0z"/><g fill="#69c9d0"><path d="M935 5152l20 61c-10-10-10-30-20-61z"/><path d="M2439 2825c-214 81-407 193-569 335-203 173-366 366-488 590-51 81-224 406-244 935-20 304 71 609 122 741h0c20 72 132 336 305 559 51 61 102 122 163 183-183-132-356-284-488-457-173-224-285-478-305-559h0c-51-132-142-437-122-732 20-528 193-863 244-945 122-223 294-416 488-589 172-142 365-254 569-335 132-61 264-102 406-122 213-41 427-41 630-10v254c-244 0-488 50-711 152h0zM4949 274h-823v4319c0 153 0 305-51 447-81 234-254 447-478 539-355 142-630 132-955-92-81-50-152-122-203-203 274 153 518 142 833 20 234-91 407-304 488-538 51-142 51-285 51-437V0h1117s-10 112 21 274h0zm1534 1291v244c-132-31-254-81-376-142-233-112-427-305-457-346 41 31 81 51 132 71 285 142 569 193 701 173zM4969 8475c0 30 10 61 20 91v11c41 142 173 243 326 243v346c-173 0-295 10-478-102-203-122-325-355-325-589 0-244 132-488 355-610 163-81 285-81 448-81v345c-193 0-346 153-346 346h0z"/></g><path fill="#ee1d52" d="M5660 8475c0 30 0 61-10 91v11c-51 142-183 243-335 243v346c172 0 294 10 477-102 214-122 325-355 325-589 0-244-132-488-355-610-163-81-285-81-447-81v345c193 0 345 153 345 346h0 0z"/><path d="M0 7469h1270l-112 345H823v1342H417V7814H0v-345zm3374 0v345h416v1342h407V7814h325l122-345H3374zm-1819 396c112 0 193-91 193-203 0-102-81-193-193-193s-204 91-204 193c0 112 92 203 204 203zm-204 1291h407V8008h-407v1148zm1850-1301h-468l-406 407v-793h-396v1687h396v-437l132-112 386 549h437l-569-813 488-488zm3851 498l488-498h-467l-407 407v-793h-396v1687h396v-437l132-112 386 549h437l-569-803zm-1036 122c0 376-315 691-701 691-387 0-702-315-702-691 0-386 315-691 702-691 386 0 701 305 701 691zm-356 0c0-193-152-346-345-346s-346 153-346 346 153 345 346 345 345-152 345-345z"/></svg>