<svg xmlns="http://www.w3.org/2000/svg" width="150" height="122" shape-rendering="geometricPrecision" image-rendering="optimizeQuality" fill-rule="evenodd" viewBox="0 0 11137 9038"><path fill="#00acee" d="M3507 9038c4198 0 6494-3482 6494-6495v-296c445-321 827-716 1136-1185-407 185-852 308-1309 370 470-284 828-741 1000-1272-444 260-926 457-1457 556C8964 272 8359 0 7705 0 6445 0 5433 1025 5433 2284c0 173 24 346 61 519-1901-99-3593-1000-4716-2396-198 346-309 741-309 1161 0 790 395 1494 1013 1902-371-13-729-112-1037-285v25c0 1111 790 2025 1839 2235-197 49-395 74-605 74-148 0-296-12-432-37 296 901 1136 1568 2136 1580-778 618-1765 988-2840 988-185 0-370-12-543-37 1013 655 2210 1025 3507 1025z"/></svg>