<svg xmlns="http://www.w3.org/2000/svg" width="149" height="150" shape-rendering="geometricPrecision" image-rendering="optimizeQuality" fill-rule="evenodd" viewBox="0 0 10971 11057"><path fill="#fefefe" d="M5585 0C2611 0 199 2411 199 5386c0 1018 283 1969 773 2781L0 11057l2982-955c772 426 1659 670 2603 670 2975 0 5386-2411 5386-5386S8560 0 5585 0h0zm0 9914h0c-919 0-1776-276-2491-749l-1740 557 565-1681c-542-747-862-1664-862-2655 0-2497 2031-4528 4528-4528s4529 2031 4529 4528-2032 4528-4529 4528h0z"/><path fill="#51ca5f" d="M5585 858c-2497 0-4528 2031-4528 4528 0 991 320 1908 862 2655l-565 1681 1740-557c715 473 1572 749 2491 749 2497 0 4529-2031 4529-4528S8082 858 5585 858h0z"/><path fill="#fefefe" d="M4322 3158c-87-210-154-217-289-224-46-2-96-4-151-4-174 0-354 51-462 162-132 135-462 452-462 1101 0 650 473 1277 539 1366 66 87 922 1440 2255 1992 1041 431 1349 393 1587 341 345-75 779-330 889-638s110-572 77-627c-33-56-121-88-253-155-132-66-782-385-903-429s-232-31-326 98c-128 178-252 361-354 469-80 85-209 97-321 50-146-63-557-206-1061-656-393-349-658-782-735-914s-7-211 53-283c67-82 130-140 196-217s103-119 147-207 14-179-19-245-297-715-407-980h0z"/></svg>