<svg xmlns="http://www.w3.org/2000/svg" width="150" height="106" shape-rendering="geometricPrecision" image-rendering="optimizeQuality" fill-rule="evenodd" viewBox="0 0 11137 7840"><path fill="red" d="M10903 1222c-124-481-507-864-988-987C9050 0 5569 0 5569 0S2087 0 1222 235c-481 123-864 506-987 987C0 2099 0 3914 0 3914s0 1815 235 2692c123 481 506 864 987 1000 865 234 4347 234 4347 234s3481 0 4346-234c481-136 864-519 988-1000 234-877 234-2692 234-2692s0-1815-234-2692z"/><path fill="#fff" d="M4433 5569l2901-1655-2901-1654z"/></svg>