<svg xmlns="http://www.w3.org/2000/svg" width="404" height="783" shape-rendering="geometricPrecision" image-rendering="optimizeQuality" fill-rule="evenodd" viewBox="0 0 85948 166678" xmlns:v="https://vecta.io/nano"><defs><linearGradient id="A" gradientUnits="userSpaceOnUse" x1="0" y1="158411" x2="85948" y2="158411"><stop offset="0" stop-color="#610a1d"/><stop offset="1" stop-color="#996732"/></linearGradient></defs><path fill="url(#A)" fill-rule="nonzero" d="M1408 151479v6136h1075c1331 0 2252-31 2768-90 516-62 951-164 1297-308 644-262 1122-625 1441-1089 320-465 483-1038 483-1725 0-929-359-1647-1080-2159-721-511-1740-765-3062-765H1408zM0 150402h4253c1856 0 3280 344 4270 1035 989 690 1484 1678 1484 2966 0 983-277 1799-832 2447-550 648-1386 1136-2499 1463 315 168 601 364 861 586 256 219 491 472 696 753l4811 6744h-1586l-2786-3930c-550-773-1024-1405-1425-1904-397-500-712-855-947-1070-307-281-716-480-1224-601-507-117-1250-176-2235-176H1408v7681H0v-15994zm14844 7989c0 941 193 1851 580 2729 389 882 935 1658 1643 2330 708 655 1540 1167 2487 1530 951 366 1928 550 2939 550 1040 0 2022-175 2947-531 926-355 1749-870 2474-1549 725-672 1276-1444 1660-2311 384-870 575-1783 575-2748 0-960-187-1865-567-2720-379-855-934-1620-1668-2299-725-671-1556-1190-2495-1553-934-367-1911-550-2926-550-1011 0-1980 179-2914 542s-1770 882-2512 1561c-717 656-1263 1417-1647 2284-383 862-576 1775-576 2735zm-1535-62c0-1073 234-2111 699-3115 470-1002 1131-1889 1988-2657 883-785 1881-1382 2995-1796 1113-410 2282-616 3506-616 1241 0 2419 206 3532 616 1113 414 2103 1011 2969 1796 883 792 1553 1682 2005 2669 456 988 682 2042 682 3162 0 839-132 1650-392 2435-265 785-653 1518-1169 2198-870 1162-1967 2064-3297 2700-1327 636-2773 957-4330 957-1233 0-2414-211-3545-629-1130-421-2116-1015-2956-1784-874-800-1540-1709-2000-2720-457-1015-687-2084-687-3216zm29654-5651c-725-449-1412-781-2068-996-653-214-1301-320-1941-320-1058 0-1924 285-2602 851-674 570-1011 1284-1011 2143 0 702 217 1272 648 1717 435 441 1365 941 2798 1495l376 141c1621 600 2700 1182 3242 1736 375 375 661 800 857 1280 196 484 295 992 295 1534 0 1277-487 2323-1455 3142-968 820-2210 1230-3715 1230-760 0-1510-117-2257-356-747-238-1497-593-2256-1069v-1553c827 585 1607 1022 2341 1307 738 285 1455 429 2146 429 1139 0 2043-284 2713-858 665-570 998-1347 998-2330 0-726-226-1320-682-1780-453-460-1485-999-3102-1616-1672-632-2815-1272-3433-1916-615-644-922-1468-922-2467 0-1241 469-2256 1404-3048 938-788 2162-1183 3668-1183 682 0 1348 86 2001 258 648 172 1301 437 1957 800v1429zm3485 13718v-15994h8881v1077h-7422v5902h6710v1053h-6710v7962h-1459zm11514 0v-15994h1459v14917h8241v1077h-9700zm11146-8005c0 941 192 1851 580 2729 388 882 934 1658 1642 2330 708 655 1540 1167 2487 1530 951 366 1928 550 2939 550 1041 0 2022-175 2947-531 926-355 1749-870 2474-1549 726-672 1276-1444 1660-2311 384-870 576-1783 576-2748 0-960-188-1865-567-2720-380-855-935-1620-1669-2299-725-671-1556-1190-2495-1553-934-367-1911-550-2926-550-1011 0-1979 179-2913 542s-1771 882-2513 1561c-716 656-1263 1417-1646 2284-384 862-576 1775-576 2735zm-1536-62c0-1073 235-2111 700-3115 469-1002 1130-1889 1988-2657 883-785 1880-1382 2994-1796 1113-410 2282-616 3506-616 1242 0 2419 206 3532 616 1113 414 2103 1011 2969 1796 883 792 1553 1682 2005 2669 456 988 682 2042 682 3162 0 839-132 1650-392 2435-265 785-653 1518-1169 2198-870 1162-1966 2064-3297 2700-1327 636-2773 957-4330 957-1232 0-2414-211-3544-629-1131-421-2116-1015-2956-1784-875-800-1540-1709-2001-2720-457-1015-687-2084-687-3216z"/><path fill="#610a1d" d="M30337 52739h0zM19605 33262c1650 2565 2145 6575 2959 9169 313 1000 1156 2527 3135 3213 0 359 199 2961 2938 4605 707 424 1274 838 1539 1534 94 322 157 631 161 923v8 9 9 9 9l1 9v9 4 5c1 166 1 333 14 500 9 117 26 235 55 355l3 13 1 3c72 296 220 584 526 899l22 23 5 5 17 17 15 14 8 9 24 22c1742 1658 3494 2706 5254 3084 4394 1426 9505 758 12809-3097 0 0 1745 699 2529 1111 5920 3107 11668-858 11423-5369-72-1331-135-1981-117-2307 579-1073 4039-3101 4236-5700 118-1548 177-1666-215-2822s-686-2037-588-3037c98-999-2155-4545-4898-5838-694-8225-5474-10484-9729-11526-2170-532-4202-747-5489-1276-3809-1566-4250-405-5906-378-1847 197-3369 102-4926 70-1268-26-2560-10-4068 242-3493 582-1639 1109-3650 3341-818 908-12246 5662-8088 12127z"/><path d="M43520 33680c-1068-514-979-162-450 166 470 292 1179 440 2119-46 117-61 239-132 363-213 1122-735 206 1078-954 1102-530 11-698-3-734 270 100 36 199 80 297 131 2091 1095 3521-1223 4886-1822 789-347 2754-1221 1224-1244-1822 294-2351 39-2351 39s-696 108-2577-1636c-1200-1112-2639-199-3067 1009-333 941-108 1793 402 1685 509-108 665-684 1479-382 757 281 652 1561-637 941zm-2018-8831c1474-807 3807-867 4423 449 999 2136 3093 2239 3093 2239s-138-1254-549-1881-686-137-1783-1587c-2856-3775-14837-238-9510 5659-3404 4121-445 4019 705 5370 636 751-694 2579 2681 2748 667 33 1470 490 2612 1520-496-6245-4274-5793-3992-10017 104-1572 976-3764 2320-4500zm-5482 19442c-545 7337 14000 7081 17291 10240-1919-445-3436-19-4220 93 0 0 1745 699 2529 1111 5920 3107 11668-858 11423-5369-72-1331-135-1981-117-2307-3239 5571-8759 3450-12694 1240-1019 364-7868 862-10163-4712-3586-382-8078-6714-7652-11480-2101 2470 120 6462 428 7969-2406-4069-5442-4298-3200-9319 1756-3932-1300-2897 555-8355-9130 4460-3830 7505-5433 9977-1665 2568 1750 2769 1624 4850-150 2458 3570 7182 9629 6062zm13825 2847c9796 271 10486-6493 8304-10490-1339 5369-5656 8284-13075 7701 5011 1438 8710 732 12087-1448-1626 2678-3916 3338-7316 4237zm11374-11202c2262 1291 2250 5831 208 7050 1349 3138-1852 4403-6550 5838 7840 531 12190-5210 12285-6465 118-1548 177-1666-215-2822s-686-2037-588-3037c98-999-2155-4545-4898-5838 1332 1732 1733 3643-242 5274zM49108 23429c7235 5249 4945 12460-2754 15557 2232-39 4336-365 5833-1004-2115 2001-4644 3441-11395 2181 16802 8594 20337-15002 10940-21027-2170-532-4202-747-5489-1276-3809-1566-4250-405-5906-378-1847 197-3369 102-4926 70-1564 928-3139 2111-4157 3707 9953-2940 15423-2887 21184 2466-860-176-1651-334-3330-296zM30337 52706c3 190-1 380 15 571 35 433 166 875 676 1360 4697 4469 9469 4514 14255-1070-2609 395-7958 1471-8082-2349-4505-718-5837-4058-5822-6035-4131 2455-1070 5436-1042 7523z" fill="#996732"/><path d="M73973 107498c0 14701-13078 26698-29502 27389v10313c23041-693 41477-17306 41477-37702 0-48336-73973-30119-73973-69771 0-15145 13880-27421 30999-27421s30999 12276 30999 27421c0 14489-12705 26352-28796 27352l17075 6375c1006-444 1991-922 2950-1432 12435-6610 20746-18601 20746-32295C85948 16891 66709 0 42974 0S0 16891 0 37727v71268h41477V98643H11872v-8980h29605V79357H11872V63760c18297 16842 62101 12781 62101 43738zm-61998 27421h29502v10306H11975 0v-10306-22931h11975z" fill="#610a1d"/><path d="M14865 76364l16634 81c-5812-1258-11141-3652-16634-6421v6340zm103.6 16292.6v2993.19h26500.84V92656.6zM41477 111988v19938H14969v-19938zm2993-30492l1 50398c14757-618 26509-11333 26509-24462l-5-399c-180 7164-6043 12916-13250 12916-7320 0-13254-5934-13254-13254s5934-13254 13254-13254c6736 0 12297 5025 13142 11531-1263-13786-13237-19064-26397-23476z" fill="#996732"/><ellipse fill="#610a1d" cx="57725" cy="106695" rx="10263" ry="10261"/></svg>