<svg xmlns="http://www.w3.org/2000/svg" width="783" height="783" shape-rendering="geometricPrecision" image-rendering="optimizeQuality" fill-rule="evenodd" viewBox="0 0 5252181 5252189" xmlns:v="https://vecta.io/nano"><defs><linearGradient id="A" gradientUnits="userSpaceOnUse" x1="1007240" y1="887799" x2="4244940" y2="4364390"><stop offset="0" stop-color="#7321f7"/><stop offset="1" stop-color="#ff1f79"/></linearGradient></defs><path d="M4465315 3084449c0 16819-6409 25075-18863 25075-19569 0-142709-3954-369745-11884l-8525 473039c0 73949 2844 185205 8525 333760l8548 333404c0 13540-9966 20472-30240 20472-12454 0-31318-990-57296-2971l-58001-2971-57295 2971-57296 2971c-17446 0-25970-7938-25970-24100 0-73616 3200-183874 9610-331439l9602-332097-10688-473039-395342 15837c-8200 0-12462-3296-12462-9570 0-11884 3200-28371 9610-50506l13872-50174c1434-22761 6402-54135 14950-94072 3557-8255 9254-12557 17802-12557l12438 1006c245900 13191 408177 19790 486832 19790l340899-14181 134509-9586c18158 0 28117 5942 30264 17493-1434-6917-2147 24100-2147 93763 0 8588 1061 21454 3208 39280l3201 40286zm161200-717330c0 5284-8168 7930-24885 7930-13167 0-32759-649-58001-1988l-58032-1965-59760 1965-59443 1988c-19212 0-43756-48842-73663-146559-29884-97716-60140-147240-91086-148547l-198214-1989h-162277l-193223 1989c-24560 1965-52320 51813-83266 149205-30969 97384-54800 145901-71548 145901h-233437c-13873 0-20987-4626-20987-14197 0-6924 4975-22437 14958-46204l260120-646360 199624-450285c19925-41261 46989-103302 80778-186164 8549-24774 17454-36982 27412-36982 13168 0 33085 1655 59063 4626l58730 4936c12810 0 31674-1632 57295-5261l56567-5284c6053 0 14950 11551 26351 34669l240908 585285 306016 753291zm-480050-548295l-100339-247904-116358-288515-216016 534779c0 22112 25978 34669 78306 38622 2844 658 36285 983 101044 983h106043c98224 0 147320-12534 147320-37965z" fill="#ff1f79" fill-rule="nonzero"/><g fill="#7321f7"><path fill-rule="nonzero" d="M3194477 3678932c0 17485-14522 43400-42702 75415-290227 335955-649830 503524-1078693 503524-446411 0-804454-162974-1071895-488297-250606-303948-375529-682598-375529-1138136 0-454785 127189-835700 382382-1141970 271228-329854 629263-495158 1074921-495158 451751 0 800668 152350 1048247 457098 23641 31207 35841 57875 35841 78441 0 25162-39620 99824-118877 223986-79194 124170-127189 186639-143977 186639-10671 0-29677-11456-56907-34367 61859-120566 143319-398274 27863-388324-92812 8002-180095 87909-300081 147169-18816-12977-37347-24742-55585-35279-127996-73156-269659-109703-424323-109703-104934 0-201557 14197-289886 42600-72966-108420-164155-242430-297831-167443-153436 86070-166057 303781-120257 490159-88605 130872-147644 282692-177171 455641-41538 55394-80279 121524-109545 199363 0 0 27309-18911 90657-33307l-1394 26137c-57621 43360-134588 131411-145965 296445 0 0 70741-77981 146377-121563l547 10370c-43693 42386-121469 135816-121469 263948 0 0 39035-73862 134390-130738l7051 45190c-33005 49112-63364 121611-67389 224406 0 0 34923-55244 94263-101726l17049 57851c-13666 37957-19188 85674-4857 143390 0 0 14087-20710 39043-50308 25328 60876 55410 118489 90261 172846l-28640 60274s29844 8905 81111 13944c161620 207024 381328 310231 659068 310231 146297 0 287200-36547 422818-108943 89128-47242 180530-115051 272733-202667l127252-108887c9118 0 57866 58627 146994 176696 89137 118117 134105 182853 134105 195053z"/><path d="M2601745 2496850s104435 31239 122078-82735c19458 76944-64759 122483-122078 82735zm95918 246257s50506 117792-39161 179405c-89675 61614-190070 121374-231291 158934-41221 37569-254139-32759-512913-214518 67944 66090 466424 329205 525756 238238 75787-72459 155456-121444 232637-177884 45816-33505 65329-105940 24972-184175zm-679136-281876c-71659-27602-119004-123426-65773-187566 0 0 65377-64791 156209-27191 90832 37601 71739 131332 105877 160258 0 0-10759 30018-70178 55505 28727-4080 61415-10601 98731-19925-11575-187455-159045-247096-237154-210645-78108 36444-132544 32451-132544 32451 50792 76793 44319 171974 144832 197113zm175-149966c-12732 31825 20250 94310 38178 100093 17937 5784 49754-26612 61329-57850 7811-21090-103-46482-14847-63911 982 2472 1529 5181 1529 8010 0 11978-9713 21691-21700 21691-11979 0-21692-9713-21692-21691 0-11987 9713-21700 21692-21700 1997 0 3930 269 5760 768-22587-14767-51877-11345-70249 34590zm613814 7099c-84264 37663-19648 137986 3470 137986 6655 0 49761-43685 41371-88811-8390-45127-44841-49175-44841-49175zm20836 28853c0 10062-8152 18222-18222 18222-10061 0-18222-8160-18222-18222 0-10069 8161-18221 18222-18221 10070 0 18222 8152 18222 18221zm-392379 104396c-376344 94064-323477-72087-404866-195148 0 0 59617 4381 145157-35541 85540-39913 247041 25400 259709 230689zm-262719-237185c-90040 42013-152787 37402-152787 37402 85667 129534 30011 304424 426154 205408-13342-216072-183336-284823-273367-242810zm627900 313946c189816-16804 92876-172450 102296-262363-139516 29377-222085 29876-152953 261119 21756-1869 50657 1244 50657 1244zm96980-253711c-8802 83987 81745 229365-95554 245060 0 0-27000-2908-47313-1165-64569-215992 12549-216451 142867-243895zm-6394 8136c-16 190-51274 13706-76080 17818-76627 12700-84541 112254-61621 170501-24829-140688 67436-206976 143192-126135 0 0-6647-34415-5491-62184zm-753758 604133s192676 159116 488900-1141c0 0 28933 49738 104720 35850-174201-13976-23197-165542 31825-209432 0 0-6211-5823-16994-8406-6702 14316-31547 6877-39272 11076-8010 4349-2297 32086-8271 45863-10482 24203-28252 36190-47630 26374-9484-4809-35842-35223-23118-40151 12731-4920 12208-29718 8738-38393s-31310-1458-57636-2907c-36333-1997-51417-19632-51758-38448 0 0-16772-1007-33837 150 0 0 91553 67975 116429 100957 24885 32981 40500 63642-578 104142-41070 40500-242984 151589-471518 14466z"/><path d="M2353207 2653408c7471-38132 71437-72737 138106 15670 40262-30937 80984-31927 86751-5442 7004-40532-40183-44810-86751-9024-71327-94587-139572-48359-138827-7661 40 2178 277 4341 721 6457zm97376 242746c-34677 24576-124804 52241-124804 52241 73062-16162 124059-35556 124059-35556 19973 15290 49674 18721 49674 18721-31983-9095-48929-35406-48929-35406zm-146219-22595c-5189 4761-129454 76278-130753 278865 0 0-13714-190077 130753-278865zm83203-105702s-570034-119583-828483-39344c0 0 217822-54673 828483 39344zm-57541 10441s-633035-25138-730331 102526c0 0 147985-112096 730331-102526zm-761380 300867s246462-291581 791461-263813c0 0-553103-53231-791461 263813zm1028092-315183c73869-14704 340938-44912 445016 880-111406-24465-349312-18230-445016-880zm30985 47298s278857-5221 527641 183391c0 0-240838-163735-527641-183391zm10957-36776s241296-31168 380115 45134c0 0-115891-54840-380115-45134zm-78394 85658s105156 84026 122649 194387c0 0 1157-102113-122649-194387z"/></g><path fill="url(#A)" d="M2626091 142598c1371597 0 2483501 1111896 2483501 2483493S3997688 5109592 2626091 5109592 142598 3997688 142598 2626091 1254494 142598 2626091 142598zm0-142598C1175744 0 0 1175744 0 2626091c0 1450354 1175744 2626098 2626091 2626098s2626090-1175744 2626090-2626098C5252181 1175744 4076438 0 2626091 0z"/></svg>