<svg xmlns="http://www.w3.org/2000/svg" width="681" height="786" shape-rendering="geometricPrecision" image-rendering="optimizeQuality" fill-rule="evenodd" viewBox="0 0 1670985 1929932" xmlns:v="https://vecta.io/nano"><g stroke="#000" stroke-width="17174.8"><path fill="#05f" d="M339028 929337l98609 5979 108109 542917h193404l108112-542917 98609-5979 24867-220650 3428-27899h-576l-989 1545c-114161 28165-254831 39691-390691 34582-96574-3638-190717-15677-271178-36127l3423 27849c8338 68343 17340 146175 24873 220700zm574424-187295l-20384 161535-92893 980-15033 86813h-131l-81225 445227-61338-8335-61335 8335-90375-498061-5307-30664-579-3315-93022-980-20392-161535 271224 34341 270790-34341z"/><path fill="#f06" d="M581910 716915c135860 5112 276530-6417 390691-34582 28414-44067 45065-97574 45065-155260 0-150647-113553-272772-253629-272772-140077 0-253629 122125-253629 272772 0 73788 27243 140737 71502 189842z"/><path fill="#9f0" d="M581910 716915c-44259-49105-71502-116054-71502-189842 0-119804 71815-221569 171676-258217-39688-23725-85384-37239-134011-37239-152559 0-276235 133011-276235 297085 0 55579 14193 107596 38892 152084 80463 20452 174606 32491 271180 36129z"/><path fill="#eeb63f" d="M682084 268856c25707-9437 53275-14555 81953-14555 63175 0 120957 24841 165358 65938 1684-12700 2556-25679 2556-38880 0-39795-7930-77597-22171-111686-328 44-29646 3956-33585 52684-3962 49000-64051-8524-82538-93740-18491-85216-81881 56811-89144 85926-7263 29116-52820 31246-57445-54680-4623-85927-34999-95157-62729-22725-27733 72435-80559 59651-87161 15624-6458-43088-39158-5582-40555-3959-17653 34077-28724 72635-31333 113700 36987-19771 78678-30886 122783-30886 48627 0 94323 13514 134011 37239z"/><path fill="#541608" d="M647068 159863c4625 85926 50182 83796 57445 54680 7263-29115 70653-171142 89144-85926 18487 85216 78576 142740 82538 93740s33593-52684 33593-52684C870112 74716 781397 8587 678325 8587c-95366 0-190103 62599-221754 140277 0 0 34007-40132 40607 3898 6602 44027 59428 56811 87161-15624 27730-72432 58106-63202 62729 22725z"/><path fill="#a100ff" d="M682084 268856c-39688-23725-85384-37239-134011-37239-44105 0-85796 11115-122783 30886-90949 48618-153452 149557-153452 266199 0 7399 252 14740 748 22006 27640 82990 36407 5066 35750-67369-661-72435 36975-133507 34335-19882-2641 113622 52823 155521 41598 61071-11225-94447 51504-220856 40279-57524-11227 163335 52162 178244 52162 107939s33698-47870 33698-47870c0-119804 71815-221569 171676-258217z"/><path fill="#0fc" d="M682084 268856c-99861 36648-171676 138413-171676 258217 0 39821 6988 83008 22195 111755-267-107785 21200-126229 35198-128206 27313-3854 70986 296639 112947 113321 45169-197349 68670-85217 88480 4260 19809 89480 51182 80443 59427-21305 8246-101744 30374-98000 55467-5680 25092 92320 42258 31246 51504-48287 9242-79536 76087 33170 76087 33170 3898-19010 5953-38761 5953-59028 0-82704-34225-156811-88271-206834-44404-41097-102183-65938-165358-65938-28678 0-56246 5118-81953 14555z"/><path fill="#fff200" d="M703786 1436597l81225-445227h131l15033-86813 92893-980 20384-161535-270790 34341-271224-34341 20392 161535 93022 980 579 3315 5307 30664 90375 498061 61335-8335z"/><path fill="#a100ff" d="M979699 745694c191224 0 346244 155116 346244 346462s-155020 346461-346244 346461c-82330 0-157947-28750-217372-76768l-11341 56944c64749 45424 143618 72085 228713 72085 220198 0 398705-178513 398705-398722 0-220210-178507-398723-398705-398723l-7095 61-1866 15193-4495 37265 13456-258z"/><path fill="#9f0" d="M1325943 1092156c0-191346-155020-346462-346244-346462l-13456 258-20372 183385-98609 5979-10048 50463c25542-23391 59541-37659 96861-37659 79345 0 143665 64488 143665 144036 0 79550-64320 144032-143665 144032-57602 0-107286-33984-130188-83045l-41560 208706c59425 48018 135042 76768 217372 76768 191224 0 346244-155115 346244-346461z"/><path fill="#a100ff" d="M1077740 1092156c0-79548-64320-144036-143665-144036-37320 0-71319 14268-96861 37659l-33327 167364c22902 49061 72586 83045 130188 83045 79345 0 143665-64482 143665-144032zM934075 979311c62405 0 112993 50521 112993 112845 0 62323-50588 112845-112993 112845-62404 0-112993-50522-112993-112845 0-62324 50589-112845 112993-112845z"/><path d="M1173680 1046807c66879-46916 55254-14923 63688 11332 22678 70601-230316 105553-63688-11332zm-12158-69882c95368 32994 51936-11642 51936-48353 0-98722-231371-13721-51936 48353zm-112173-86451c-68728 58171-65216-11621-65216-38097 0-71189 133947-20070 65216 38097zm9703 445648c90514 28089 66323-3122 66323-35115 0-86025-291839-34871-66323 35115zm140532-156023c61213-32237 44856 3582 44856 40297 0 98722-197363 40019-44856-40297zm-328354 156629c69856 24165 38042-8527 38042-35420 0-72310-169470-10048-38042 35420z" fill="#ffe9ad"/></g><g fill="#a100ff"><path d="M581267 1679111c9668 4125 18160 9973 25536 17656 7535 7736 13329 16590 17351 26510 4020 9918 6052 20398 6052 31440 0 10935-2032 21314-6052 31237-4022 9872-9816 18673-17351 26403-7631 7790-16280 13691-25841 17757-9619 4072-19693 6104-30324 6104-10833 0-21110-2032-30730-6104-9662-4066-18261-9967-25791-17757-7535-7730-13329-16531-17299-26354-3971-9813-5953-20249-5953-31286 0-11143 1982-21676 5953-31596 3970-9918 9764-18720 17299-26354 7530-7784 16178-13685 25841-17757 9720-4063 19948-6104 30680-6104 10683 0 20908 2090 30629 6205zm-113353-5640c-11143 10935-19589 23296-25333 37138-5750 13784-8651 28487-8651 44108 0 15723 2901 30426 8651 44108 5744 13735 14190 26000 25333 36837 10938 10732 23505 18974 37747 24826 14297 5799 29254 8700 44977 8700 15468 0 30272-2901 44363-8648 14146-5750 26814-14045 38005-24878 11143-10837 19591-23151 25440-36988 5802-13783 8701-28437 8701-43957 0-15418-2899-30020-8701-43905-5849-13836-14297-26304-25440-37341-11089-10842-23708-19079-37747-24727-14094-5649-28950-8498-44621-8498-15824 0-30782 2849-44870 8498-14094 5648-26713 13885-37854 24727zm283278 50415c-5698 4478-10277 11399-13790 20757v-22896h-32355v141642h32355v-61967c0-20250 2342-34700 7023-43297 4680-8599 12360-12868 23151-12868 3961 0 7578 455 10833 1418 3203 918 6205 2394 9005 4376l11651-27519c-4275-2040-8651-3666-13077-4735-4426-1067-8903-1629-13480-1629-8497 0-15566 2240-21316 6718zm119407-6718c-18871 0-34188 6921-45940 20812-11752 13836-17604 32048-17604 54591 0 23756 5750 42482 17247 56115 11448 13683 27218 20502 47163 20502 9973 0 18775-1982 26504-5953 7683-3968 14451-10022 20201-18108v18262h32356v-231078h-32356v112787c-3768-9002-9770-15917-17958-20705-8193-4831-18064-7225-29613-7225zm-19132 41317c6973-8396 16590-12619 28849-12619 12210 0 21725 4069 28539 12259 6819 8142 10228 19540 10228 34141 0 14547-3661 26197-10886 34999-7274 8799-16786 13228-28489 13228-12315 0-21876-4066-28646-12260-6768-8144-10124-19736-10124-34749 0-14909 3513-26609 10529-34999zm145152-36428v141332h32356v-141332zm1779-46655c4020 4019 8802 6054 14399 6054 5648 0 10427-1982 14349-5904 3869-3918 5799-8749 5799-14549 0-5750-1930-10581-5750-14398-3817-3814-8648-5750-14398-5750-5597 0-10379 1988-14399 5950-4017 4023-6054 8753-6054 14198 0 5597 2037 10379 6054 14399zm161892 41766c-12564 0-23200 2240-31953 6718-8750 4478-16329 11602-22789 21371v-23200h-30425v141332h32356v-64361c0-11651 463-20096 1425-25385 919-5342 2597-9669 4988-13074 3359-5035 8037-8956 13938-11753 5903-2799 12671-4173 20200-4173 11550 0 19587 3052 24114 9155 4527 6107 6767 18471 6767 37043v72548h32663v-85674l-1629-27119c-1122-5188-2901-9715-5394-13584-4167-6564-9967-11497-17345-14853-7431-3307-16387-4991-26916-4991zm147435 0c-18870 0-34187 6921-45940 20812-11752 13836-17603 32048-17603 54591 0 23756 5750 42482 17250 56115 11448 13683 27214 20502 47160 20502 9972 0 18774-1982 26507-5953 7680-3968 14450-10022 20200-18108v18262h32356v-141332h-32356v23041c-3767-9002-9772-15917-17960-20705-8193-4831-18065-7225-29614-7225zm9721 28698c12207 0 21725 4069 28538 12259 6820 8142 10225 19540 10225 34141 0 14445-3660 26096-10984 34947-7277 8851-16737 13280-28388 13280-12314 0-21879-4066-28646-12260-6770-8144-10126-19736-10126-34749 0-14909 3515-26609 10532-34999 6970-8396 16589-12619 28849-12619zm114775-24119v141642h32356v-61967c0-20250 2341-34700 7022-43297 4681-8599 12361-12868 23151-12868 3965 0 7579 455 10833 1418 3206 918 6206 2394 9005 4376l10103-23864-2063-5130h327c-3220-1359-6492-2460-9793-3260-4425-1067-8903-1629-13479-1629-8498 0-15567 2240-21314 6718-5701 4478-10277 11399-13792 20757v-22896h-32356z"/><path d="M1524691 1727187l49835 123992-38769 78753h33222l102006-207875h-35057l-34845 75447-765 1779c-4884 10839-7936 18723-9257 23708-716-4783-1629-9460-2748-14092-1121-4628-2446-9155-3970-13633l-25945-73209h-35443l3284 1475-1548 3655z"/></g><path d="M93412 1863389v-188040h57692v-30222H0v30222h58002v188040zm57185-141642v141642h32356v-61967c0-20250 2345-34700 7022-43297 4681-8599 12361-12868 23151-12868 3965 0 7579 455 10834 1418 3205 918 6205 2394 9005 4376l11650-27519c-4275-2040-8648-3666-13076-4735-4426-1067-8904-1629-13480-1629-8498 0-15566 2240-21313 6718-5701 4478-10278 11399-13793 20757v-22896h-32356zm119613 16233c-11753 13836-17604 32048-17604 54591 0 23756 5750 42482 17247 56115 11451 13683 27217 20502 47163 20502 9973 0 18774-1982 26507-5953 7680-3968 14447-10022 20198-18108v18262h32358v-141332h-32358v23041c-3768-9002-9770-15917-17958-20705-8193-4831-18064-7225-29614-7225-18870 0-34187 6921-45939 20812zm26808 20505c6973-8396 16592-12619 28849-12619 12210 0 21725 4069 28539 12259 6819 8142 10227 19540 10227 34141 0 14445-3660 26096-10987 34947-7274 8851-16734 13280-28385 13280-12317 0-21878-4066-28646-12260-6770-8144-10126-19736-10126-34749 0-14909 3512-26609 10529-34999z" fill="#05f"/></svg>