<svg xmlns="http://www.w3.org/2000/svg" width="651" height="783" shape-rendering="geometricPrecision" image-rendering="optimizeQuality" fill-rule="evenodd" viewBox="0 0 219817 264355" xmlns:v="https://vecta.io/nano"><path d="M109908 222096H17451L0 191870h219817l-17451 30226zM109045 0L0 188873h107927l-41053-71105 42171-24318z"/><path fill="red" d="M109909 188873l40798-70666-40798-23527-40799 23527z"/><circle fill="#fff" cx="109909" cy="130840" r="14074"/><g fill-rule="nonzero"><path fill="red" d="M18890 254637c0 1702-97 2919-306 3642-89 351-321 530-694 530-993 0-2471-52-4441-156l-4449-157-4187 52-4188 60c-336 0-500-149-500-455 0-1336 52-3344 142-6039l142-6053-202-6367-201-6375c0-268 156-403 492-403 246 0 605 23 1112 60 493 37 866 52 1120 52l1127-52 1127-60c321 0 478 119 478 351l-164 5844-164 5875v2896l-23 2904c0 2709 127 4068 366 4068l11151-329 926-127c395-74 702-112 918-112 284 0 418 120 418 351zm20459-4971c0 2560-917 4740-2746 6553-1874 1867-4188 2800-6957 2800-2784 0-5098-926-6979-2784-1829-1800-2739-3972-2739-6532 0-2553 910-4732 2739-6523 1888-1837 4210-2748 6979-2748 2754 0 5061 911 6934 2748 1852 1784 2769 3948 2769 6486zm-4232 37c0-1485-500-2754-1507-3807-1038-1119-2359-1672-3964-1672s-2926 553-3993 1650c-1000 1067-1501 2344-1501 3829 0 1471 508 2747 1531 3814 1067 1142 2388 1710 3963 1710 1590 0 2911-568 3964-1710 1007-1067 1507-2343 1507-3814zm21079-7733c0 269-156 866-463 1799-305 926-522 1396-649 1396-590-246-1202-485-1814-731-604-239-1276-359-1993-359-1649 0-3023 552-4120 1665-1097 1112-1642 2426-1642 3933 0 1493 545 2785 1642 3874 1120 1120 2501 1680 4120 1680 889 0 1777-202 2643-597 873-404 1254-605 1142-605 171 0 366 515 582 1538l299 1925c0 374-777 747-2344 1112-1314 307-2284 456-2911 456-2762 0-5084-933-6979-2821-1859-1837-2792-4024-2792-6569 0-2590 903-4792 2724-6599 1882-1858 4218-2791 7009-2791 1874 0 3591 433 5136 1306 268 149 410 276 410 388z"/><path d="M78567 249748c0 2426-822 4531-2464 6337-1754 1911-3926 2859-6538 2859-1740 0-3262-403-4591-1209l-1605-1239c-134 37-231 403-283 1104-52 695-157 1046-328 1046h-4233c-164 0-246-83-246-239 0 14 15-98 37-329l336-11226-336-9957-201-3673c0-321 171-492 522-530l2150-67 1142-127 1164-104c209 0 321 134 321 418l-89 1903c-75 859-97 1493-97 1918l-90 2867-97 2866c0 470 105 701 284 701 97 0 194-74 298-201 1471-1672 3411-2515 5830-2515 2769 0 5001 948 6718 2843 1597 1792 2396 3979 2396 6554zm-4509-164c0-1456-507-2739-1515-3844-1067-1187-2381-1777-3949-1777-1597 0-2941 582-4001 1740-1037 1096-1552 2388-1552 3881 0 1515 515 2821 1552 3919 1060 1149 2419 1724 4046 1724 1583 0 2897-597 3949-1777 978-1105 1470-2388 1470-3866zm25550 82c0 2560-918 4740-2747 6553-1873 1867-4187 2800-6956 2800-2784 0-5098-926-6979-2784-1829-1800-2740-3972-2740-6532 0-2553 911-4732 2740-6523 1888-1837 4210-2748 6979-2748 2754 0 5061 911 6934 2748 1851 1784 2769 3948 2769 6486zm-4232 37c0-1485-500-2754-1508-3807-1037-1119-2358-1672-3963-1672s-2926 553-3994 1650c-1000 1067-1500 2344-1500 3829 0 1471 508 2747 1530 3814 1068 1142 2389 1710 3964 1710 1590 0 2911-568 3963-1710 1008-1067 1508-2343 1508-3814zm26580-7695c0 52-22 156-67 328-530 2799-798 5210-798 7240 0 127 171 2867 514 8233l23 254c7 358-172 530-537 530l-1672 120c-732 82-1292 119-1650 119-254 0-448-425-590-1276-134-851-261-1277-380-1277-83 0-433 239-1075 717-792 582-1530 1022-2210 1329-1060 492-2112 731-3172 731-2590 0-4784-940-6561-2837-1680-1813-2523-3918-2523-6329 0-2710 851-4956 2545-6733 1784-1844 4120-2769 7024-2769 2045 0 3837 657 5352 1948l1067 1067c38 38 75 52 112 52 82 0 202-380 344-1156 149-769 336-1157 574-1157 359 0 1038 97 2031 276 1105 216 1649 418 1649 590zm-5135 7665c0-1500-485-2784-1471-3858-1015-1158-2328-1740-3948-1740-1598 0-2926 575-4009 1717-1022 1105-1537 2396-1537 3881 0 1478 515 2762 1537 3852 1083 1134 2411 1702 4009 1702 1567 0 2881-582 3934-1739 992-1090 1485-2352 1485-3815zm19556 5576l-82 1097-112 1112c-15 217-30 351-67 396-45 90-172 172-373 262-1097 477-2807 716-5158 716-3105 0-4665-1291-4680-3889l67-4680c45-2083 60-3650 60-4687 0-501-269-770-821-807-501 0-985-7-1463-22-284-60-426-560-426-1508 0-351 23-724 82-1119 38-291 254-471 642-530l978-23c612-22 926-276 926-746l-45-2247-37-2254c0-896 186-1336 559-1336 120 0 1374 186 3747 560 307 37 456 171 456 403l-142 2425c-97 1083-142 1889-142 2427 0 358 179 529 545 529h4844c217 0 344 75 344 224 0 142-38 381-82 702l-68 724 15 844 30 835c0 232-194 351-567 351-538 0-1344-30-2433-89l-2434-97c-104 0-187 351-231 1045l-45 3657v2739c0 1045 105 1784 321 2195 313 642 970 956 1963 956 418 0 1023-83 1821-239 791-165 1389-247 1769-247 157 0 239 105 239 321z"/><path fill="gray" d="M174154 258459c0 97-157 149-485 149-254 0-627-15-1105-37l-1120-38-1149 38-1150 37c-366 0-836-925-1418-2777-567-1858-1150-2791-1747-2821l-3821-37h-3113l-3717 37c-471 37-1008 985-1605 2829-597 1851-1052 2769-1373 2769h-4486c-269 0-411-90-411-269 0-134 97-425 284-873l5008-12264c418-978 1702-3829 3844-8539 381-776 904-1956 1546-3530 164-463 335-695 529-695 254 0 642 30 1135 83l1127 97c254 0 612-30 1112-105l1083-97c119 0 291 217 507 657 314 687 1851 4389 4635 11099l5890 14287zm-9234-10189l-1933-4695-2239-5471-4150 10136c0 418 492 657 1500 732 60 15 702 22 1941 22h2045c1889 0 2836-239 2836-724zm31708 1508c0 2478-858 4620-2560 6441-1798 1919-4023 2874-6688 2874-1657 0-3105-463-4337-1403l-1701-1448c-75 37-120 134-157 291-7 74-15 762-15 2053l-22 5180c0 396-149 589-456 589-2060 0-3269-22-3635-74-313-37-462-194-462-478l37-7046 45-7046-620-8091c-30-150-45-247-45-299 0-127 75-217 194-254 515-22 1262-97 2240-201 1306-217 2045-321 2202-321 231 0 373 365 440 1104l97 1456c0 104 45 201 127 298 97-44 201-134 321-261 1873-1754 3769-2635 5673-2635 2657 0 4881 941 6695 2837 1754 1821 2627 3971 2627 6434zm-4672-60c0-1470-508-2754-1516-3866-1052-1187-2373-1777-3955-1777-1545 0-2814 612-3815 1829-903 1097-1358 2381-1358 3844 0 1500 463 2784 1403 3889 1038 1187 2344 1777 3934 1777 1522 0 2807-620 3859-1852 963-1142 1448-2426 1448-3844zm27834 60c0 2478-851 4620-2560 6441-1799 1919-4023 2874-6688 2874-1657 0-3105-463-4337-1403l-1702-1448c-74 37-119 134-149 291-15 74-22 762-22 2053l-23 5180c0 396-149 589-455 589-2060 0-3269-22-3635-74-306-37-463-194-463-478l37-7046 45-7046-620-8091c-29-150-44-247-44-299 0-127 74-217 202-254 507-22 1253-97 2231-201 1306-217 2053-321 2202-321 232 0 381 365 441 1104l104 1456c0 104 37 201 119 298 98-44 202-134 329-261 1866-1754 3762-2635 5673-2635 2649 0 4874 941 6688 2837 1754 1821 2627 3971 2627 6434zm-4673-60c0-1470-507-2754-1515-3866-1052-1187-2373-1777-3956-1777-1538 0-2814 612-3807 1829-910 1097-1366 2381-1366 3844 0 1500 463 2784 1404 3889 1037 1187 2343 1777 3933 1777 1530 0 2807-620 3859-1852 963-1142 1448-2426 1448-3844z"/></g></svg>