<svg xmlns="http://www.w3.org/2000/svg" width="92" height="77" shape-rendering="geometricPrecision" image-rendering="optimizeQuality" fill-rule="evenodd" viewBox="0 0 53244 44555" xmlns:v="https://vecta.io/nano"><path d="M26622 20316c-4068 0-7377 3309-7377 7376 0 4068 3309 7377 7377 7377s7377-3309 7377-7377c0-4067-3309-7376-7377-7376zm0 12147c-2630 0-4770-2140-4770-4771 0-2630 2140-4770 4770-4770 2631 0 4770 2140 4770 4770s-2139 4771-4770 4771zm22667-21127c-1664-363-3776-588-6049-651V9672c0-720-583-1303-1303-1303s-1303 583-1303 1303v1013c-2273 63-4385 288-6049 651-1277 279-2870 741-3581 1698-989-296-2018-494-3079-584v-2120h8147c720 0 1303-583 1303-1303V1304c0-720-583-1304-1303-1304H17172c-719 0-1303 584-1303 1304v7723c0 719 584 1303 1303 1303h8147v2120c-1061 90-2090 288-3078 584-712-957-2305-1419-3582-1698-1664-363-3776-588-6048-651V9672c0-720-584-1303-1304-1303-719 0-1303 583-1303 1303v1013c-2273 63-4385 288-6048 651C2258 11706 0 12401 0 14153c0 1751 2258 2447 3956 2817 1663 363 3776 589 6048 651v17988l-4707 6908c-405 596-251 1406 343 1811 595 406 1406 252 1811-343l3856-5660 3856 5660c252 371 662 570 1079 570 252 0 507-74 732-227 595-405 749-1215 343-1811l-4706-6908v-1779c2369 5388 7757 9160 14011 9160s11642-3772 14012-9160v1779l-4707 6908c-405 596-252 1406 343 1811 595 406 1406 252 1811-343l3856-5660 3856 5660c252 371 661 570 1078 570 253 0 508-74 733-227 595-405 748-1215 343-1811l-4707-6908V17621c2273-62 4385-288 6049-651 1697-370 3955-1065 3955-2817s-2257-2447-3955-2817zm-39285 3678c-3123-88-5344-484-6553-861 1209-377 3430-773 6553-862v1723zm8472-7291V6469h8311c720 0 1303-584 1303-1304 0-719-583-1303-1303-1303h-8311V2607h16293v5116H18476h0zm-5865 5568c3123 89 5343 485 6552 862-1209 377-3429 773-6552 862v-1724zm0 4330c912-25 1799-76 2640-152-1084 1205-1980 2582-2640 4086v-3934zm14011 22763c-6998 0-12691-5693-12691-12692 0-6998 5693-12691 12691-12691s12691 5693 12691 12691-5693 12692-12691 12692zm14012-18829c-661-1504-1557-2882-2641-4086 841 76 1728 126 2641 152v3934zm0-6541c-3124-88-5344-484-6553-861 1209-377 3429-773 6553-862v1723zm2606 0v-1723c3124 89 5344 485 6553 862-1209 377-3429 773-6553 861zM31975 4911c-17-83-41-165-74-245-33-78-73-153-120-224-48-71-103-138-163-198s-126-115-198-163c-71-47-146-88-224-118-80-33-161-59-244-75-168-34-341-34-510 0-84 16-166 42-243 75-80 30-156 71-226 118-72 48-138 103-198 163s-115 127-161 198c-48 71-88 146-121 224-32 80-57 162-74 245s-26 170-26 254c0 85 9 171 26 255 17 83 42 165 74 244 33 79 73 155 121 224 46 72 101 139 161 199s126 114 198 162c70 46 146 87 226 119 77 33 159 59 243 75 84 17 169 26 254 26 86 0 171-9 256-26 83-16 164-42 244-75 78-32 153-73 224-119 72-48 138-102 198-162s115-127 163-199c47-70 87-145 120-224s57-161 74-244c17-84 25-170 25-255 0-84-8-171-25-254z"/></svg>