<svg xmlns="http://www.w3.org/2000/svg" width="92" height="77" shape-rendering="geometricPrecision" image-rendering="optimizeQuality" fill-rule="evenodd" viewBox="0 0 218028 182447" xmlns:v="https://vecta.io/nano"><circle fill="#ffdc64" cx="109013" cy="113393" r="57306"/><circle fill="#46afa7" cx="109013" cy="113393" r="24870"/><path d="M109012 143603c-16657 0-30207-13554-30207-30208 0-16657 13550-30208 30207-30208 16658 0 30208 13551 30208 30208 0 16654-13550 30208-30208 30208zm0-49742c-10771 0-19534 8762-19534 19534 0 10769 8763 19531 19534 19531 10772 0 19534-8759 19534-19531s-8762-19534-19534-19534z"/><path fill="#46afa7" d="M70317 5335h77391v31623H70317z"/><g fill="#f96232"><ellipse cx="171726" cy="57950" rx="40964" ry="8940"/><ellipse cx="46299" cy="57950" rx="40964" ry="8940"/></g><path d="M201830 46417c-6812-1486-15460-2410-24768-2664v-4151c0-2946-2390-5336-5337-5336-2946 0-5336 2390-5336 5336v4151c-9308 254-17956 1178-24768 2664-5230 1142-11754 3034-14667 6954-4047-1211-8261-2023-12605-2392v-8682h33359c2947 0 5337-2387 5337-5336V5337c0-2950-2390-5337-5337-5337H70317c-2947 0-5337 2387-5337 5337v31624c0 2947 2390 5336 5337 5336h33359v8682c-4344 369-8558 1181-12605 2392-2913-3920-9437-5812-14667-6954-6812-1486-15462-2410-24768-2664v-4151c0-2946-2390-5336-5337-5336-2946 0-5336 2390-5336 5336v4151c-9308 254-17956 1178-24768 2664C9244 47934 0 50780 0 57953c0 7170 9244 10019 16195 11535 6812 1486 15462 2410 24768 2665v73658l-19274 28290c-1660 2438-1030 5757 1405 7417 2435 1659 5756 1030 7416-1405l15789-23175 15790 23175c1033 1517 2709 2334 4416 2334 1033 0 2079-302 3000-929 2435-1660 3065-4979 1405-7417l-19274-28290v-7282c9703 22064 31767 37509 57376 37509 25610 0 47674-15445 57377-37509v7282l-19274 28290c-1660 2438-1030 5757 1405 7417 2437 1659 5756 1030 7416-1405l15789-23175 15790 23175c1033 1517 2709 2334 4416 2334 1033 0 2079-302 3000-929 2435-1660 3065-4979 1405-7417l-19274-28290V72153c9308-255 17956-1179 24768-2665 6951-1516 16198-4363 16198-11535 0-7173-9244-10019-16198-11536zM75654 26486h34033c2947 0 5337-2390 5337-5337s-2390-5337-5337-5337H75654v-5138h66717v20950H75654v-5138zm90735 27938v7055c-12790-361-21882-1984-26830-3526 4948-1542 14040-3166 26830-3529zm-87920 3529c-4951 1542-14043 3165-26833 3526v-7055c12790 363 21882 1987 26833 3529zm-64339 0c4951-1542 14043-3166 26833-3529v7055c-12790-361-21882-1984-26833-3526zm37506 14200c3736-101 7369-311 10814-622-4439 4934-8107 10573-10814 16730V72153zm57376 93211c-28657 0-51969-23312-51969-51969s23312-51972 51969-51972c28658 0 51973 23315 51973 51972 0 28655-23315 51969-51973 51969zm46563-93833l10814 622v16108c-2707-6157-6375-11796-10814-16730zm21487-10052v-7055c12790 363 21882 1987 26833 3529-4951 1542-14043 3165-26833 3526zm-51364-34993c-348 0-700-37-1042-107-341-64-677-170-999-305-324-131-635-299-923-490a5331 5331 0 0 1-812-663c-243-243-467-518-660-809a5124 5124 0 0 1-490-923c-134-322-235-658-305-999a5216 5216 0 0 1-106-1041c0-347 36-700 106-1041a5514 5514 0 0 1 305-1002c132-322 297-630 490-918a5202 5202 0 0 1 660-812c247-246 521-470 812-669 288-190 599-355 923-484 322-134 658-240 999-305a5355 5355 0 0 1 2088 0c342 65 672 171 996 305 322 129 630 294 918 484 294 199 569 423 812 669a5589 5589 0 0 1 669 812c190 288 358 596 490 918a5514 5514 0 0 1 305 1002c70 341 100 694 100 1041s-30 699-100 1041c-70 341-171 677-305 999-132 325-300 635-490 923-199 291-423 566-669 809-243 246-518 470-812 663-288 191-596 359-918 490-324 135-654 241-996 305-350 70-694 107-1046 107z"/></svg>