<svg xmlns="http://www.w3.org/2000/svg" width="46" height="77" shape-rendering="geometricPrecision" image-rendering="optimizeQuality" fill-rule="evenodd" viewBox="0 0 17944 30229" xmlns:v="https://vecta.io/nano"><path d="M17939 9366c-66-252-1066-967-1704-835-572 119-1990 663-1990 663s171-1021-213-1213c-383-192-2536-1814-2723-1962-186-146-150-419-209-585s549-1060 860-1737c310-679 521-1848-36-2439-129-137-103-570-484-783C10791 113 9631-28 9313 4c-504 53-594 663-594 663l-970 1081c-215 239 53 556 53 556s-617 582-630 784c-14 201 317 165 317 165s89 308-21 792c-79 350-301 707-261 819 87 244 592 278 592 278s210 279 18 312c-193 36-2525 175-3003 487S3039 7608 2872 7781c-166 172-18 653-205 806s-824 91-994 247c-171 157-456 516-616 712-160 195-833 37-1005 514-173 477 120 1300 389 1353s916 1305 1226 1452c312 147 734 271 797 472-97 1595 407 3910 2753 3460 47 369 76 1389 512 1669 437 279 1128 999 1128 999l-885 289v9926h3631s-25 495 210 549h1723c574 0 1359-549 1359-549h1123v-9718s158-365 554-384c397-18 322 183 378 441 56 260 602 955 790 821 187-134 1486-1275 1457-1575-28-298-836-1036-836-1036l-404-500c-175-217-476-187-645-387-170-202-60-414-282-616l-1328-1181s1049-578 1008-1471l-151-3235 2596-452c192-51 850-770 784-1021zM2713 13414s505 801 888 784c383-19 802 226 802 226s104 1010 679 2212c-1463 385-2542-1521-2369-3222zm3983-2659c-590 166-778 1023-778 1023s-556 157-1027 261c-471 105-575-435-1098-418-521 19-906-242-906-242s18-802 0-1150 400-732 1001-836c601-105 2117 609 2500 575 384-34 331-663 1132-749 801-88 1307 1672 1307 1672l-1098 243c1-2-278-594-1033-379zm2275 2747s-824-174-980-680l980-227v907z"/></svg>