<svg xmlns="http://www.w3.org/2000/svg" width="77" height="77" shape-rendering="geometricPrecision" image-rendering="optimizeQuality" fill-rule="evenodd" viewBox="0 0 3739 3739" xmlns:v="https://vecta.io/nano"><path d="M1252 3263c-9 9-18 17-28 25-188 158-489 130-689-70-62-61-108-134-138-213-6-16-11-32-15-48-11-39-51-62-90-51-39 10-62 50-51 89 33 122 99 234 190 326 143 142 326 214 504 214 156 0 307-55 420-169 28-28 28-74 0-103-29-28-75-28-103 0zm-964-509c6 2 12 3 18 3 33 0 63-22 71-56 19-77 57-145 112-200 29-29 29-75 0-103-28-29-74-29-103 0-73 73-125 166-151 268-10 39 14 79 53 88zM3657 475c0-20-7-39-22-53l-313-314c-14-14-33-22-53-21s-39 9-53 24l-387 431c-22 25-24 62-6 89L1730 1723c-107-67-225-106-343-113-183-11-357 56-489 188-71 71-124 158-155 254-165 6-372 48-523 198-316 316-288 858 61 1208 187 187 428 281 660 281 204 0 401-72 548-220 150-150 193-358 199-522 96-32 182-85 253-155 132-133 199-307 188-490-7-118-46-235-113-343L3108 917c13 11 29 16 45 16 18 0 35-6 49-18l431-388c14-13 23-32 24-52zM1838 2738c-65 65-148 111-239 132-34 8-57 38-57 72 2 117-17 335-156 474-259 259-709 232-1001-61-293-293-321-742-61-1001 135-136 344-157 463-157h10 1c34 0 63-23 71-56 22-92 67-175 132-239 103-103 237-154 378-146 99 6 198 41 289 101 42 27 81 59 118 96s69 77 96 118c61 91 96 191 102 290 8 141-44 275-146 377zm90-847c-12-14-25-28-39-41-13-13-27-26-40-38L2925 735l79 79-1076 1077zM3160 755l-4 5-172-172 4-5 285-317 205 204-318 285zm-376-317c14 14 33 21 52 21 18 0 37-7 51-21 29-29 29-75 0-103l-34-35c-29-29-75-29-104 0-28 28-28 74 0 103l35 35zm122-139c14 14 33 21 51 21 19 0 38-7 52-21 29-29 29-75 0-104l-35-34c-28-29-74-29-103 0-28 28-28 74 0 103l35 35zm122-139c14 14 33 21 51 21 19 0 38-7 52-21 28-29 28-75 0-104l-35-35c-28-28-75-28-103 0-29 29-29 75 0 104l35 35zm690 483l-30-30c-29-29-75-29-104 0-28 28-28 75 0 103l31 31c14 14 33 21 51 21 19 0 38-7 52-21 29-29 29-75 0-104zm-170 92c-28-29-74-29-103 0-28 28-28 74 0 103l31 30c14 15 33 22 51 22 19 0 38-7 52-22 28-28 28-74 0-103l-31-30zm-139 121c-28-28-74-28-103 0-29 29-29 75 0 104l30 30c15 14 33 22 52 22s37-8 52-22c28-28 28-75 0-103l-31-31zM1382 2496c-4 0-8 1-12 1-35 6-61 36-61 72 0 77-62 139-139 139s-139-62-139-139c0-76 62-139 139-139 36 0 66-26 72-60 1-4 1-9 1-13 0-40-32-73-73-73-157 0-285 128-285 285 0 158 128 286 285 286s285-128 285-286c0-40-32-73-73-73z"/></svg>