<svg xmlns="http://www.w3.org/2000/svg" width="150" height="150" shape-rendering="geometricPrecision" image-rendering="optimizeQuality" fill-rule="evenodd" viewBox="0 0 28842 28845"><path d="M28298 3390l192-192c96-96 192-224 256-352 128-384 32-767-224-1023L27019 320c-384-352-991-352-1375 0l-192 224-256-256c-384-384-991-384-1343 0h0c-384 352-384 959 0 1343l256 256-1279 1279-256-256c-384-384-991-384-1375 0h0c-352 384-352 992 0 1375l256 256-4893 4893c-672-320-1407-512-2143-544-1471-64-2814 448-3805 1471-352 320-640 704-863 1151-448 864-1376 1376-2335 1376-2047 0-3901 767-5276 2110-3006 3006-2814 8091 383 11320 1695 1664 3902 2527 6044 2527 1951 0 3838-704 5277-2143 1343-1375 2110-3262 2110-5276 0-959 512-1887 1375-2335 448-223 832-511 1152-863 1567-1567 1887-3933 927-5948l4893-4893 256 256c383 352 991 352 1375 0h0c384-384 384-991 0-1375l-256-256 1279-1279 256 256c384 384 991 384 1343 0h0c384-352 384-960 0-1343l-256-256zM8823 24752l-4733-4733 1375-1343 4701 4701-1343 1375zm5692-7228h0c-863 864-2302 864-3197 0-864-895-864-2334 0-3197 895-864 2334-864 3197 0 864 863 864 2302 0 3197z"/></svg>