<svg xmlns="http://www.w3.org/2000/svg" width="155" height="155" shape-rendering="geometricPrecision" image-rendering="optimizeQuality" fill-rule="evenodd" viewBox="0 0 17219 17222"><path fill="none" stroke="#000" stroke-width="555.43" d="M16627 2236l111-110c56-56 111-130 148-204 74-221 18-443-129-591l-869-868c-221-204-573-204-794 0l-111 129-148-148c-222-222-573-222-776 0h0c-222 203-222 554 0 776l148 148-739 739-148-148c-222-221-573-221-794 0h0c-204 222-204 573 0 795l147 148-2827 2826c-388-184-813-295-1238-314-849-37-1625 259-2198 850-203 185-370 407-499 665-259 499-795 795-1349 795-1182 0-2254 443-3049 1219-1736 1737-1625 4675 222 6541 979 961 2254 1460 3492 1460 1127 0 2217-407 3049-1238 776-795 1219-1885 1219-3049 0-554 296-1090 795-1349 259-129 480-295 665-498 905-906 1090-2273 536-3437l2827-2827 148 148c221 203 572 203 794 0h0c222-222 222-573 0-795l-148-148 739-739 148 148c222 222 573 222 776 0h0c222-203 222-554 0-776l-148-148zM5375 14579l-2734-2735 794-776 2716 2716-776 795zm3289-4176h0c-499 499-1330 499-1848 0-499-517-499-1349 0-1848 518-498 1349-498 1848 0 499 499 499 1331 0 1848z"/></svg>