<svg xmlns="http://www.w3.org/2000/svg" width="150" height="150" shape-rendering="geometricPrecision" image-rendering="optimizeQuality" fill-rule="evenodd" viewBox="0 0 140590 140590"><path d="M139772 15310L125280 818c-934-1090-2649-1090-3739 0l-19166 19166c-779 935-935 2182-468 3117L78379 46630c-9350-8415-23997-8103-33035 1091-1246 1247-2338 2649-3272 4051-935 1402-1714 2805-2337 4363-1559 4363-5921 7479-10596 7635-7635 312-14959 3428-20257 8571C3116 78106 0 85741 0 93689c0 8102 3116 15581 8882 21347l16672 16673c5767 5765 13246 8881 21348 8881 7947 0 15582-3116 21347-8881 2495-2649 4675-5922 6234-9350 1403-3427 2181-7168 2337-10907 156-4675 3272-9038 7635-10597 3117-1246 5921-3116 8414-5609 4675-4519 7168-10596 7168-17140 0-6077-2181-11530-6076-15894l23528-23529c312 155 780 311 1247 311 623 0 1402-311 1871-779l19165-19166c1091-1090 1091-2805 0-3739zM69964 78730c-779-1871-1870-3429-3272-4831-1403-1403-2960-2493-4831-3273l43787-43785 8102 8102-43786 43787zm24776-624c0 5142-2026 9816-5610 13557-1870 1869-4052 3272-6545 4206-6544 2493-10751 8571-11063 15427 0 3116-623 6077-1714 8882-1246 2960-3116 5609-5298 7946-4674 4675-11064 7324-17608 7324-6700 0-12933-2649-17607-7324l-16829-16828c-4675-4674-7324-10908-7324-17607 0-6545 2649-12935 7324-17609 4519-4518 10440-6856 16829-7011 6856-313 12933-4519 15426-11064 467-1091 934-2338 1714-3428 779-1091 1558-2182 2493-3116 3740-3740 8414-5611 13556-5611 4675 0 8727 1559 12310 4520L55161 70159c-779 467-935 1558-623 2493 311 935 1090 1559 2026 1714 2493 312 4674 1402 6388 3272 1870 1715 2961 3896 3273 6389 155 935 778 1714 1713 2025 311 156 624 156 780 156 779 0 1402-311 1713-779l19789-19633c2962 3428 4520 7635 4520 12310zm23996-45500l-10751-10751 15426-15583 10907 10908-15582 15426zM38644 80443c-5922 5922-5922 15582 0 21504 2961 2960 6856 4519 10752 4519s7791-1559 10751-4519c5922-5922 5922-15582 0-21504-5921-5921-15582-5921-21503 0zm17764 17919c-3896 3896-10284 3896-14180 0-3896-3895-3896-10284 0-14179 2026-2026 4519-2960 7168-2960 2493 0 5142 934 7012 2960 3895 3895 3895 10284 0 14179zm-30698 2493c-1090-934-2649-934-3739 0-936 1092-936 2649 0 3741l14023 14024c624 467 1247 779 1870 779 625 0 1403-312 1871-779 934-1091 934-2650 0-3740l-14025-14025z"/></svg>