<svg xmlns="http://www.w3.org/2000/svg" width="150" height="150" shape-rendering="geometricPrecision" image-rendering="optimizeQuality" fill-rule="evenodd" viewBox="0 0 48909 48909"><g fill="#f9b65f"><path d="M25588 35955c1410-1789 5369-2982 6833-4446 3091-3145 1193-7917-2929-12093-4175-4121-8947-6019-12092-2928-1464 1464-2657 5423-4446 6833-3580 2765-7864 1464-10629 4284-4338 4337-2278 9760 3471 15508 5748 5748 11170 7809 15508 3471 2820-2766 1519-7049 4284-10629z"/><path d="M31553 21856c1464 2766 1573 5531-433 7538-1519 1464-5478 2657-6779 4447-2820 3633-1573 7862-4338 10682-4338 4338-9761 2278-15509-3470-1247-1302-2332-2495-3200-3742 977 1898 2495 3850 4502 5802 5748 5748 11170 7809 15508 3471 2820-2766 1519-7049 4284-10629 1410-1789 5369-2982 6833-4446 2494-2549 1735-6236-868-9653z"/></g><g fill="#935733"><path d="M41368 3853L20274 24947l3687 3688L45056 7540z"/><path d="M22714 27334l1247 1301L45056 7540l-1248-1301z"/></g><g fill="#794c2b"><path d="M24449 28526c0 2278-1789 4122-4066 4122-2278 0-4122-1844-4122-4122 0-2277 1844-4067 4122-4067 2277 0 4066 1790 4066 4067z"/><path d="M23745 28526c0 1844-1519 3363-3362 3363-1844 0-3363-1519-3363-3363 0-1843 1519-3362 3363-3362 1843 0 3362 1519 3362 3362z"/></g><path fill="#ae9676" d="M22009 28526c0 868-759 1627-1626 1627-868 0-1627-759-1627-1627 0-867 759-1627 1627-1627 867 0 1626 760 1626 1627z"/><g fill="#794c2b"><path d="M9103 35196l4610 4610c379 379 1030 379 1409 0l543-543c379-379 379-1030 0-1409l-4610-4610c-379-380-1030-380-1410 0l-542 542c-380 380-380 1031 0 1410zm30964-24239l-2115-2115c-596-596-651-1573-108-2224l4663-5964c651-814 1844-868 2549-163l3362 3362c705 705 651 1898-163 2549l-5965 4663c-650 543-1627 488-2223-108z"/><path d="M48418 3853l-326-271c-53 162-216 325-379 488l-6019 4664c-651 542-1627 487-2223-109l-1790-1789c-325 650-217 1463 271 2006l2115 2115c596 596 1573 651 2223 108l5965-4663c814-651 868-1844 163-2549z"/></g></svg>