<svg xmlns="http://www.w3.org/2000/svg" width="111" height="77" shape-rendering="geometricPrecision" image-rendering="optimizeQuality" fill-rule="evenodd" viewBox="0 0 16104 11165" xmlns:v="https://vecta.io/nano"><path d="M12416 0H3687C1654 0 0 1654 0 3687v7045c0 239 194 433 433 433h1538 2025 9 2017 8 2018 8 2017 9 2017 8 2026 1538c239 0 433-194 433-433V3687c0-2033-1654-3687-3688-3687zM3564 10299H2403V7001h1161v3298h0zm2025 0H4438V7001h1151v3298zm2026 0H6463V7001h1152v3298zm2026 0H8489V7001h1152v3298zm2025 0h-1151V7001h1151v3298zm2034 0h-1160V7001h1160v3298zm866 0V6568c0-239-194-433-433-433h-2026-8-2017-9-2017-8-2018-8-2017-9-2025c-239 0-433 194-433 433v3731H866V3687c0-1556 1265-2821 2821-2821h8729c1556 0 2822 1265 2822 2821v6612h-672zM8623 2370H6183c-239 0-433 193-433 432s194 433 433 433h2440c239 0 432-194 432-433s-193-432-432-432zm1722 348c-5-28-14-55-24-81-11-26-25-51-40-75a431.7 431.7 0 0 0-54-66c-20-19-42-38-66-53-23-16-48-29-74-40-27-11-54-20-81-25a442 442 0 0 0-170 0c-27 5-55 14-81 25s-51 24-74 40c-24 15-46 34-66 53a431.7 431.7 0 0 0-54 66c-15 24-29 49-40 75-10 26-19 53-24 81a402.2 402.2 0 0 0-9 85c0 28 3 56 9 84 5 28 14 55 24 81 11 26 25 51 40 75 16 23 34 46 54 65 20 20 42 39 66 54 23 16 48 29 74 40s54 19 81 25c28 5 57 8 85 8s57-3 85-8c27-6 54-14 81-25 26-11 51-24 74-40 24-15 46-34 66-54 20-19 38-42 54-65 15-24 29-49 40-75 10-26 19-53 24-81 6-28 9-56 9-84a402.2 402.2 0 0 0-9-85zm-424 1383H7481c-239 0-433 194-433 433s194 433 433 433h2440c239 0 433-194 433-433s-194-433-433-433zm-3314 348c-6-27-14-55-25-81-10-26-24-51-39-74a431.7 431.7 0 0 0-120-120c-23-16-49-29-75-40s-53-19-81-24c-56-12-113-12-169 0-28 5-54 13-81 24-26 11-51 24-74 40a431.7 431.7 0 0 0-120 120c-16 23-29 48-40 74s-19 54-25 81c-5 28-8 57-8 85s3 57 8 84c6 28 14 55 25 81s24 52 40 75a431.7 431.7 0 0 0 54 66c20 20 42 38 66 53 23 16 48 29 74 40 27 11 54 19 81 25 28 6 57 9 85 9s57-3 84-9c28-6 55-14 81-25s52-24 75-40c24-15 46-33 66-53a431.7 431.7 0 0 0 54-66c15-23 29-49 39-75 11-26 19-53 25-81 6-27 9-56 9-84s-3-57-9-85zM3507 1727c-1070 0-1941 871-1941 1941s871 1941 1941 1941c1071 0 1941-871 1941-1941s-870-1941-1941-1941zm0 3016c-593 0-1075-482-1075-1075s482-1075 1075-1075 1076 482 1076 1075-483 1075-1076 1075zm9089-3016c-1070 0-1941 871-1941 1941s871 1941 1941 1941c1071 0 1942-871 1942-1941s-871-1941-1942-1941zm0 3016c-592 0-1075-482-1075-1075s483-1075 1075-1075c594 0 1076 482 1076 1075s-482 1075-1076 1075z"/></svg>