<svg xmlns="http://www.w3.org/2000/svg" width="113" height="150" shape-rendering="geometricPrecision" image-rendering="optimizeQuality" fill-rule="evenodd" viewBox="0 0 5583 7424"><path d="M3170 7309c-25 74-82 115-156 115-17 0-33 0-50-8-140-49-205-49-345 0-91 25-181-16-206-107-25-82 16-173 107-198 206-65 337-65 543 0 91 25 132 116 107 198zm2272-2008c-157 230-428 362-733 362-255 0-551-132-856-272-354-164-708-329-1061-329-354 0-708 165-1062 329-305 140-601 272-856 272-305 0-576-132-733-362-296-428-66-914 140-1342l1095-2247c428-897 699-1407 897-1547C2421 58 2610 0 2792 0c181 0 370 58 518 165 198 140 469 650 897 1547l1095 2247c206 428 436 914 140 1342zm-428-1210l-963-1951-140-288c-181-387-617-1301-782-1424-99-66-222-107-337-107-116 0-239 41-338 107-165 123-601 1037-782 1424L569 4091c-181 387-345 749-156 1029 90 139 263 222 461 222 189 0 444-124 724-247 362-165 774-354 1194-354 419 0 831 189 1193 354 280 123 535 247 724 247 198 0 371-83 461-222 190-280 25-642-156-1029zm-947 2411c-49 132-156 231-279 280-58 25-116 41-173 41-74 0-140-16-206-49-519-247-716-247-1235 0-123 58-255 58-378 8-124-49-231-148-280-280-107-263 8-568 255-683 798-370 1243-370 2041 0 247 115 362 420 255 683zm-387-387c-707-329-1070-329-1777 0-91 42-132 165-91 264 25 49 58 90 99 107 33 8 74 16 123-8 305-140 535-214 758-214 222 0 452 74 757 214 49 24 90 16 123 8 41-17 74-58 99-107 41-99 0-222-91-264z"/></svg>