<svg xmlns="http://www.w3.org/2000/svg" width="150" height="114" shape-rendering="geometricPrecision" image-rendering="optimizeQuality" fill-rule="evenodd" viewBox="0 0 28842 21936"><path d="M27248 18803H14421 1594 843c-477 0-843 690-843 1540s366 1593 843 1593h751 12827 12827c903 0 1594-743 1594-1593s-691-1540-1594-1540zM7707 5471l-2762-584c-265 0-425 106-478 371l-797 3931c-53 265 107 478 319 531h53c106-266 266-478 478-744 744-849 2019-1009 3028-531l478-2443c53-266-106-478-319-531zm12960-2337c0 1753-1434 3134-3133 3134-1753 0-3134-1381-3134-3134 0-1700 1381-3134 3134-3134 1699 0 3133 1434 3133 3134zm4462 7701c0-1965-1593-3558-3559-3558h-1540l-1912 4886 478-2071c0-160 0-319-53-425l-638-1116 531-956c107-159 0-371-159-371h-1487c-159 0-266 212-213 371l532 956-585 1116c-53 106-106 265-53 425l372 2071c-478-1274-319-956-1859-4886h-1540c-1859 0-3400 1434-3559 3240v1540L7388 9720c-584-584-1540-584-2124 53-584 584-531 1540 53 2125l5046 4727c425 425 1062 531 1593 319 585-266 903-797 903-1381 53-1594 53-3134 53-4728 0-159 107-265 266-265s319 106 319 265v6321h7967 0v-6321c0-159 159-318 319-318 212 0 318 159 318 318l54 6321h3027l-53-6321z"/></svg>