<svg xmlns="http://www.w3.org/2000/svg" xmlns:xlink="http://www.w3.org/1999/xlink" width="133" height="108" shape-rendering="geometricPrecision" image-rendering="optimizeQuality" fill-rule="evenodd" viewBox="0 0 16661 13545"><path d="M15747 0h-2077v1579c0 623-520 1143-1164 1143-623 0-1143-520-1143-1143V0H5318v1579c0 623-519 1143-1142 1143-644 0-1143-520-1143-1143V0H935C415 0 0 415 0 935v21 11633 21c0 499 415 914 914 935h14833c499-21 914-436 914-935v-21V956v-21c0-499-415-914-914-935zM4176 10408H3137V9369h1039v1039zm0-2597H3137V6772h1039v1039zm0-2597H3137V4176h1039v1038zm3116 5194H6253V9369h1039v1039zm0-2597H6253V6772h1039v1039zm0-2597H6253V4176h1039v1038zm3116 5194H9369V9369h1039v1039zm0-2597H9369V6772h1039v1039zm0-2597H9369V4176h1039v1038zm3116 5194h-1039V9369h1039v1039zm0-2597h-1039V6772h1039v1039zm0-2597h-1039V4176h1039v1038z"/><use xlink:href="#B"/><use xlink:href="#B"/><defs ><path id="B" d="M8330 8860c291 0 520-228 520-519V5204c0-291-229-519-520-519-290 0-519 228-519 519v3137c0 291 229 519 519 519z"/></defs></svg>