<svg xmlns="http://www.w3.org/2000/svg" width="150" height="114" shape-rendering="geometricPrecision" image-rendering="optimizeQuality" fill-rule="evenodd" viewBox="0 0 48909 37059"><path fill-rule="nonzero" d="M18920 28760L4714 14554v13666c0 1132 465 2163 1213 2911 749 749 1780 1214 2912 1214h31231c1132 0 2163-465 2912-1214 748-748 1213-1779 1213-2911V14554L29989 28760c-1517 1517-3525 2276-5535 2277v9c-2004 0-4010-762-5534-2286zM44104 7979c-170-789-569-1498-1122-2052-749-748-1780-1213-2912-1213H8839c-1132 0-2163 465-2912 1213-553 554-952 1263-1122 2052l17448 17448c603 603 1402 905 2201 905v9c794 0 1593-305 2202-915L44104 7979zM0 8864v-25c0-2434 994-4644 2594-6245C4195 994 6405 0 8839 0h31231c2433 0 4644 994 6245 2594 1600 1601 2594 3811 2594 6245v25 976 18380c0 2433-994 4644-2594 6245-1601 1600-3812 2594-6245 2594H8839c-2434 0-4644-994-6245-2594C994 32864 0 30653 0 28220V8864z"/></svg>