<svg xmlns="http://www.w3.org/2000/svg" width="132" height="150" shape-rendering="geometricPrecision" image-rendering="optimizeQuality" fill-rule="evenodd" viewBox="0 0 7552 8601"><path d="M4577 4596l19-286c239 86 487 124 734 124 1231 0 2222-982 2222-2212C7552 1001 6561 0 5330 0 4158 0 3194 925 3128 2079h-696c-325 0-630 133-859 372-228 248-333 562-314 887l76 1258c0 553 229 1049 591 1373v220l-238 372-1154 305C219 6952 0 7247 0 7581v582c0 238 191 438 429 438h5054c238 0 439-200 439-438v-582c0-334-229-629-544-715l-1144-305-248-372v-220c362-324 591-820 591-1373zM2966 6789l-744-619c219 133 477 200 744 200s515-67 743-200l-743 619zm-868-352l658 543-363 363h-9l-448-668 162-238zm868 1421h28l96 467h-258l95-467h39zm152-439c0 86-67 162-152 162-86 0-162-76-162-162v-86l162-162 152 162v86zm48-439l648-543 162 238-438 668h-10l-362-363zM5330 277c1078 0 1946 877 1946 1945s-868 1945-1946 1945c-247 0-486-48-715-133l48-696c19-325-95-639-324-887-220-239-525-372-849-372h-86c77-1001 906-1802 1926-1802zM1774 2641c171-181 410-276 658-276h1058c248 0 477 95 649 276 171 191 257 430 238 677l-19 420c-124-238-239-400-258-410-38-48-105-67-162-48-686 286-2002 286-2021 286-29 0-57 19-86 39-10 0-134 104-258 305l-38-592c-19-247 67-486 239-677zm-162 1955c47-400 276-667 362-744 248-9 1297-38 1964-267 115 172 363 592 363 1011 0 820-592 1497-1335 1497-744 0-1345-667-1354-1497zM277 8163v-582c0-210 133-391 333-439l1106-305 439 658c48 76 124 115 210 124 9 0 19 10 28 10 58 0 115-19 163-58 19 67 57 124 114 172l-124 582H1316v-458c0-76-67-143-143-143s-134 67-134 143v458H429c-86 0-152-77-152-162zm5368-582v582c0 85-76 162-162 162h-601v-458c0-76-66-143-143-143-76 0-143 67-143 143v458H3376l-115-582c48-48 86-105 115-172 47 39 105 58 162 58 9 0 19 0 28-10 86 0 162-48 210-124l429-658 1097 305c200 48 343 229 343 439zm-458-4310c-76 0-143 67-143 143s67 143 143 143h296c76 0 143-67 143-143s-67-143-143-143h-9V2060h9c76 0 143-57 143-134 0-76-67-143-143-143h-296c-76 0-143 67-143 143 0 77 67 134 143 134h10v1211h-10zm143-1822c153 0 277-124 277-267 0-152-124-267-277-267-143 0-266 115-266 267 0 143 123 267 266 267z"/></svg>