<svg xmlns="http://www.w3.org/2000/svg" width="150" height="140" shape-rendering="geometricPrecision" image-rendering="optimizeQuality" fill-rule="evenodd" viewBox="0 0 9697 9066"><path fill="#010002" d="M9545 4233c-291-709-849-1075-1656-1075h-956c161-365 344-902 344-1537 0-182-11-365-43-548C7105 332 6600-66 5869 9c-280 32-387 312-624 967-193 549-451 1290-849 1892-279 452-795 796-1225 1011v-54H0v4697h3171v-258c494-22 784-11 849 11l570 333 408 258c419 226 2214 247 2988 129 1000-140 1236-957 1247-989 75-269 763-2698 312-3773zm-914 3601c0 22-150 462-731 548-838 118-2375 43-2601-64l-376-237-710-397c-161-54-537-65-1042-43V4545c505-194 1300-645 1741-1333 430-666 720-1451 924-2021l226-569c312 11 495 182 559 559 22 139 32 290 32 430 0 935-483 1676-483 1687l-323 484h2042c549 0 882 215 1075 688 312 741-139 2676-333 3364z"/></svg>