<svg xmlns="http://www.w3.org/2000/svg" width="150" height="135" shape-rendering="geometricPrecision" image-rendering="optimizeQuality" fill-rule="evenodd" viewBox="0 0 9697 8730" xmlns:v="https://vecta.io/nano"><path d="M5590 4720v720c1796 172 2860 795 2860 1268 0 549-1473 1312-3859 1312-2398 0-3871-763-3871-1312 0-473 1075-1096 2881-1268v-720C1720 4892 0 5580 0 6708c0 1312 2365 2022 4591 2022 2214 0 4569-710 4569-2022 0-1118-1688-1806-3570-1988zM9536 312c-54-43-108-54-172-54-54 0-108 11-151 32l-591 291c-279 129-580 193-881 193-312 0-624-75-914-215-291-150-602-226-914-226-333 0-656 76-957 237V355c0-194-150-355-355-355-193 0-354 161-354 355v6439c0 205 161 366 354 366 205 0 355-161 355-366V3515c301-161 624-236 957-236 312 0 623 64 914 215 290 151 602 226 914 226 301 0 602-65 881-205l882-430c118-53 193-172 193-301V591c0-118-64-225-161-279z"/></svg>