<svg xmlns="http://www.w3.org/2000/svg" width="150" height="139" shape-rendering="geometricPrecision" image-rendering="optimizeQuality" fill-rule="evenodd" viewBox="0 0 13234 12285"><path d="M13214 3665C13008 1539 11513 0 9622 0 8376 0 7218 674 6588 1759 5943 660 4843 0 3612 0 1721 0 225 1539 20 3665c-15 88-73 586 117 1393 279 1158 909 2213 1833 3049l4618 4178 4676-4178c924-836 1554-1891 1832-3049 191-807 132-1305 118-1393zm-616 1275c-249 1071-836 2023-1671 2786l-4339 3884-4266-3884C1471 6963 885 6011 636 4940c-176-762-103-1187-103-1187v-29C694 1862 1999 499 3612 499c1187 0 2243 732 2741 1920l235 557 219-557C7291 1261 8405 499 9622 499c1613 0 2917 1363 3079 3239 0 15 73 440-103 1202z"/></svg>