<svg xmlns="http://www.w3.org/2000/svg" width="150" height="150" shape-rendering="geometricPrecision" image-rendering="optimizeQuality" fill-rule="evenodd" viewBox="0 0 9697 9697"><path d="M9576 9007L7212 6642c580-699 924-1601 924-2569C8136 1827 6309 0 4073 0 1827 0 0 1827 0 4073c0 2236 1827 4063 4073 4063 968 0 1870-344 2569-924l2365 2364c150 161 408 161 569 0s161-419 0-569zM806 4073c0-1805 1462-3267 3267-3267 1795 0 3257 1462 3257 3267 0 1795-1462 3257-3257 3257-1805 0-3267-1462-3267-3257z"/></svg>