<svg xmlns="http://www.w3.org/2000/svg" width="150" height="119" shape-rendering="geometricPrecision" image-rendering="optimizeQuality" fill-rule="evenodd" viewBox="0 0 20831 16492"><path d="M13024 4527c-1455-831-3765-831-5197 0-1432 832-1409 2171 24 3003 1455 808 3741 808 5173 0 1455-832 1432-2171 0-3003zm-670 1294c-115 46-254 92-369 115-69 23-116 46-162 23-23-23-23-23-46-69-92-116-208-231-369-324-24-23-47-23-70-46-69-23-115-46-185-69-231-46-438 23-415 185 0 69 46 138 115 208 69 138 162 254 231 369 208 416-231 809-924 832-231 23-485 0-693-70-115-46-185-46-254 0-69 70-162 93-231 139s-138 46-208 0l-138-69c-46-23-70-46-116-70-69-46-69-69 0-115 70-46 116-69 162-92 139-93 139-93 23-162-115-116-231-208-300-347-69-92-46-115 92-161 116-23 231-69 324-93 92-23 138-46 161-23s46 23 69 69c70 139 185 255 347 370 23 23 46 23 69 46 93 47 185 93 277 116 278 69 532-46 509-231 0-46-47-116-70-162-92-139-231-277-300-416-92-254-46-462 277-623 347-208 785-208 1224-93 185 47 185 47 324-23 46-46 92-69 138-92 93-69 139-69 254 0 23 23 47 46 93 46 231 139 231 139 0 277-162 93-162 93-23 185 92 92 184 162 231 254 69 46 46 92-47 116zm2587 2794c-392 231-1039 231-1432 0-415-231-415-577-23-808 416-231 1040-231 1455 0 393 231 393 577 0 808zM7365 4250c-392 231-1039 231-1432 0-415-231-415-600 0-832 393-231 1040-231 1432 0 393 232 393 601 0 832zm12981 2587L8982 277c-646-369-1709-369-2356 0L529 3811c-670 393-647 1016 0 1386l11340 6536c670 393 1733 393 2379 0l6098-3510c647-370 647-993 0-1386zm-5982 3649c-69-69-139-138-254-184-670-393-1732-393-2402 0-46 22-93 46-139 92L2769 5312c92-23 162-69 231-115 670-370 670-993 0-1386-69-46-139-69-231-115l3649-2102c47 46 116 92 185 115 670 393 1733 393 2402 0 70-23 139-69 208-138l8823 5127c-115 23-231 70-323 139-670 393-670 1016 0 1386l347 138-3696 2125zM228 6514c301-139 739-139 1017 23l11872 6836 6421-3718c277-162 716-162 1016 0 277 161 277 415 0 577l-6837 3973c-323 185-878 185-1201 0l-254-139-162-92L205 7114c-277-162-277-439 23-600zm20326 5866l-6814 3973c-346 185-877 185-1224 0l-231-139-185-92L228 9239c-300-162-300-439 23-601 278-161 740-138 1017 24l11849 6859 6421-3718c277-162 739-162 1016 0 277 161 277 415 0 577z"/></svg>