<svg xmlns="http://www.w3.org/2000/svg" width="150" height="125" shape-rendering="geometricPrecision" image-rendering="optimizeQuality" fill-rule="evenodd" viewBox="0 0 13234 11062"><path d="M0 0v8818h5649l-617-1277H1276V1276h9757v6265h-293v1277h2494V0H0zm12148 4651c-235 0-425-191-425-425 0-235 190-426 425-426s426 191 426 426c0 234-191 425-426 425zM9947 7908l-1790-939v-514-777-1365H6881v1365 777 514 73 499 235 323l-161-323-250-543-1203-15 499 1013h0l59 146 249 499 44 88h0l176 367 118 206 469 997h528v528h2362v-528h528v-631-572-1232l-176-88zM2201 2157v2332h3404V2157zm4123 0v557h4107v-557zm0 1100v572h4107v-572zM2215 5032v543h4138v-543zm0 983v572h4138v-572zm6426-983v543h1776v-543zm0 983v572h1776v-572z"/></svg>