<svg xmlns="http://www.w3.org/2000/svg" width="150" height="150" shape-rendering="geometricPrecision" image-rendering="optimizeQuality" fill-rule="evenodd" viewBox="0 0 48909 48920"><path d="M19352 29557c217 217 326 488 326 813 0 271-109 543-326 760L6715 43767c-163 217-434 326-760 326-651 0-1139-488-1139-1139 0-271 109-543 326-760l12637-12637c217-217 489-325 814-325 271 0 597 108 759 325zm29235 13451c-109 488-543 814-1085 814-271 0-596-163-759-326l-3851-3851-2061 2116 3851 3796c163 217 325 488 325 759 0 543-325 977-813 1085-651 217-1356 326-2116 326-2169 0-4447-922-6183-2658-1627-1627-2549-3742-2603-5912l-7377-7322c-54-54-163-109-217-163l-814-813c-271 1030-759 1898-1464 2603L9752 47130c-1085 1031-2495 1736-4122 1790h-217-54c-1465 0-2821-597-3797-1573-2170-2169-2061-5858 217-8190l13668-13668c705-705 1573-1139 2549-1464l-705-814c-108-54-163-108-217-217l-7376-7376c-2116-55-4231-1031-5858-2658-2278-2224-3200-5478-2332-8244 108-489 542-814 1030-814 326 0 597 109 814 325l3797 3797 2115-2061-3851-3797c-217-217-325-488-325-813 0-488 325-922 813-1031 2766-868 6021 55 8244 2333 1627 1627 2604 3742 2658 5857l9763 9818L41699 3197c54-55 162-108 271-163l5207-2820c162-55 325-109 542-109 597 0 1139 488 1139 1085 0 217-54 380-163 543l-2820 5206c-54 109-108 217-163 272L30580 22343l9763 9763c2169 54 4284 1031 5912 2658 2278 2224 3200 5478 2332 8244h0zM28193 27550l-6834-6780-1681 1627 6834 6835 1681-1682zm-2278-5370l814 814L43977 5746l976-1790-1790 976-17248 17248zm-14916-8461l7106 7105 2440-2440c218-217 489-326 814-326 326 0 597 109 760 326l2278 2223 596-650L14905 9814c-217-217-326-488-326-814v-54c55-1681-705-3417-2006-4719-1031-1030-2333-1735-3851-1952l2874 2929c217 162 326 488 326 759 0 325-109 597-326 814l-3634 3634c-217 216-488 325-813 325-272 0-597-109-760-325L3460 7536c217 1519 923 2875 1953 3851 1302 1302 3037 2061 4719 2007h54c325 0 597 108 813 325zm11933 15133l-2874-2875h-272c-1084 0-2061 434-2712 1139L3406 40784c-1464 1410-1573 3689-271 4990 597 542 1410 922 2278 922h163c976-54 1898-488 2549-1139l13668-13668c705-705 1139-1573 1193-2604v-108c0-108 0-217-54-325zm23702 11335c-217-1518-922-2874-1952-3850-1302-1302-3038-2061-4719-2007h-54c-326 0-597-109-814-326L29007 23970l-705 597 2278 2224c162 217 325 488 325 759 0 326-163 597-325 814l-2495 2440 7105 7106c217 216 325 488 325 813v54c-54 1682 651 3417 2007 4719 976 1030 2332 1736 3797 1953l-2875-2929c-162-163-325-488-325-759 0-326 163-597 325-814l3689-3634c216-217 488-380 813-380 271 0 543 163 759 380l2929 2874z"/></svg>