<svg xmlns="http://www.w3.org/2000/svg" width="134" height="150" shape-rendering="geometricPrecision" image-rendering="optimizeQuality" fill-rule="evenodd" viewBox="0 0 12141 13624"><path d="M3443 1589L2054 2843c-136 135-136 347-15 483 60 75 166 121 271 121h1646c197 0 348-136 348-333 0-196-151-347-348-347h-755l710-649c242-227 393-559 393-891 0-317-106-604-318-816C3760 155 3443 4 3096 4c-302 0-589 121-816 317l-136 136c-151 121-151 332-30 483 76 75 166 121 257 121 90 0 166-31 241-91l136-136c106-75 227-121 348-121 151 0 287 61 377 167 91 90 136 211 136 332 0 151-60 287-166 377zm1117 1178c61 60 136 91 212 91h1344v241c0 197 151 348 332 348 196 0 347-151 347-348v-256c196-31 317-167 317-348s-121-332-317-347V336c0-121-30-196-60-227-46-30-91-90-197-105-120-15-211 15-317 105-30 46-1721 2160-1721 2160-60 75-76 181-76 272 16 90 61 166 136 226zm1556-1419v815h-604l604-815zm1857 2099c196 0 347-151 347-348V2072h1012v1027c0 197 151 348 347 348 197 0 348-151 348-348V351c0-196-151-347-348-347-196 0-347 151-347 347v1027H8320V351c0-196-151-347-347-347s-347 151-347 347v2748c0 197 151 348 347 348zm2099 649H2099C951 4096 0 5032 0 6180v15c0 1132 951 2084 2099 2084h15l-755 3156c-15 30-30 75-30 105v1707c0 211 181 377 392 377h8743c197 0 348-166 348-377v-1707c0-45 0-75-15-121l-755-3140h30c1163 0 2069-952 2069-2084v-15c0-1148-906-2084-2069-2084zm-7882 7082l1147-4817h5467l1177 4817H2190zm3005-3987c0 227-197 408-423 408-227 0-423-181-423-408 0-241 196-407 423-407 226 0 423 166 423 407zm1298 0c0 227-196 408-423 408-226 0-407-181-407-408 0-241 181-407 407-407 227 0 423 166 423 407zm1299 0c0 227-181 408-423 408-227 0-408-181-408-408 0-241 181-407 408-407 242 0 423 166 423 407zM5195 8490c0 242-197 423-423 423-227 0-423-181-423-423 0-227 196-408 423-408 226 0 423 181 423 408zm1298 0c0 242-196 423-423 423-226 0-407-181-407-423 0-227 181-408 407-408 227 0 423 181 423 408zm1299 0c0 242-181 423-423 423-227 0-408-181-408-423 0-227 181-408 408-408 242 0 423 181 423 408zm-3020 891c-227 0-423 196-423 423 0 226 196 423 423 423 226 0 423-197 423-423 0-227-197-423-423-423zm1298 0c-226 0-407 196-407 423 0 226 181 423 407 423 227 0 423-197 423-423 0-227-196-423-423-423zm1299 0c-227 0-408 196-408 423 0 226 181 423 408 423 242 0 423-197 423-423 0-227-181-423-423-423z"/></svg>