<svg xmlns="http://www.w3.org/2000/svg" width="111" height="150" shape-rendering="geometricPrecision" image-rendering="optimizeQuality" fill-rule="evenodd" viewBox="0 0 5390 7299"><path d="M834 2679c0-65 48-122 121-122h2832c73 0 122 57 122 122 0 64-49 121-122 121H955c-73 0-121-57-121-121zm121 1149h2832c73 0 122-57 122-122 0-56-49-113-122-113H955c-73 0-121 57-121 113 0 65 48 122 121 122zm1230 793H955c-65 0-121 56-121 121s56 122 121 122h1230c65 0 121-57 121-122s-56-121-121-121zm-162 1036H955c-65 0-121 56-121 121s56 121 121 121h1068c65 0 122-56 122-121s-57-121-122-121zm3367 137c0 834-672 1505-1506 1505-388 0-736-145-1003-388H121c-64 0-121-57-121-121V1214c0-65 57-122 121-122h1004V761c0-65 57-114 121-114h494v-8c0-356 283-639 639-639 340 0 631 283 631 639v8h486c65 0 121 49 121 114v331h1004c73 0 121 57 121 122v3350c389 267 648 720 648 1230zM1368 1465h2007V882h-502c-41 0-73-16-97-48-25-25-33-65-25-98 8-40 17-72 17-97 0-218-170-404-389-404-226 0-404 186-404 404 0 25 8 57 16 97 8 33 0 73-25 98-24 32-56 48-97 48h-501v583zM235 6668h2444c-178-243-284-542-284-874 0-825 664-1497 1489-1497 219 0 429 49 623 130V1327h-890v259c0 65-56 121-121 121H1246c-64 0-121-56-121-121v-259H235v5341h0zm4920-874c0-696-575-1262-1271-1262s-1254 566-1254 1262 558 1271 1254 1271 1271-575 1271-1271zm-607-493l-736 704-494-397c-49-40-122-32-170 16-40 49-32 130 24 170l575 461c24 17 48 25 73 25 32 0 64-16 81-33l809-777c48-40 48-121 8-169-49-49-121-49-170 0z"/></svg>