<svg width="0" height="0" class="hidden" xmlns="http://www.w3.org/2000/svg" shape-rendering="geometricPrecision" image-rendering="optimizeQuality">
  <symbol  fill-rule="evenodd" viewBox="0 0 188720 188720" id="initial--website">
    <path d="M94361 0h1c52111 2 94358 42247 94358 94360s-42247 94358-94358 94360h-1-1C42247 188720 0 146473 0 94360S42247 0 94360 0h1zm27311 15729c6426 8234 11018 18428 14181 28170 293 902 1098 1487 2047 1487h24411c837 0 1554-443 1926-1191 373-749 296-1588-208-2255-10174-13501-24057-23797-39926-29557-916-333-1903-31-2475 757-574 788-555 1820 44 2589zm47930 36832h-28516c-679 0-1264 283-1686 815s-563 1166-409 1827c2406 10295 3895 21597 4256 33483 35 1161 989 2086 2151 2086h33804c618 0 1149-230 1571-682 422-451 617-997 575-1613-831-12492-4296-24265-9842-34769-383-724-1086-1147-1904-1147zm9600 45386h-33804c-1162 0-2116 925-2151 2087-361 11885-1851 23189-4256 33482-154 662-13 1295 409 1828 422 532 1007 815 1686 815h28516c818 0 1521-423 1904-1148 5546-10503 9011-22276 9842-34769 42-615-153-1162-575-1613s-953-682-1571-682zm-16891 45386h-24411c-949 0-1754 585-2047 1488-3160 9739-7757 19936-14182 28170-599 768-617 1800-45 2588 573 788 1561 1090 2476 758 15868-5761 29758-16057 39928-29557 504-668 581-1507 207-2255-372-748-1089-1192-1926-1192zm-95263 29658c-6424-8233-11020-18432-14180-28170-294-903-1099-1488-2048-1488H26408c-837 0-1553 444-1926 1192-372 748-296 1587 207 2255 10174 13501 24058 23798 39930 29558 915 332 1902 30 2474-758 574-788 555-1821-45-2589zm-47930-36832h28517c679 0 1264-283 1686-815 422-533 563-1166 409-1828-2406-10294-3895-21597-4257-33482-35-1162-988-2087-2150-2087H9518c-618 0-1149 231-1571 682s-617 998-576 1613c832 12492 4297 24266 9843 34769 382 725 1085 1148 1904 1148zM9518 90772h33805c1162 0 2115-925 2150-2086 362-11886 1851-23189 4257-33483 154-661 13-1295-409-1827s-1007-815-1686-815H19118c-819 0-1522 423-1904 1147-5546 10504-9011 22277-9843 34769-41 616 154 1162 576 1613 422 452 953 682 1571 682zm16890-45386h24412c949 0 1754-585 2048-1487 3161-9740 7755-19936 14180-28170 600-769 618-1801 45-2589-572-788-1560-1090-2475-757-15868 5761-29758 16056-39929 29557-503 667-580 1506-207 2255 373 748 1089 1191 1926 1191zm71539-35112v32961c0 1185 968 2151 2153 2151h25696c723 0 1346-323 1762-917 415-593 508-1289 260-1969-4760-13092-13748-29903-27048-34270-676-222-1356-117-1933 302-577 417-890 1030-890 1742zm0 44439v33907c0 1185 968 2152 2153 2152h33815c604 0 1126-220 1546-654 420-435 624-962 605-1566-395-12330-2041-23956-4683-34368-244-967-1088-1623-2086-1623h-29197c-1185 0-2153 967-2153 2152zm0 45387v33906c0 1185 968 2153 2153 2153h29197c998 0 1842-657 2086-1623 2641-10413 4288-22038 4683-34369 19-603-185-1131-605-1565s-942-655-1546-655h-33815c-1185 0-2153 968-2153 2153zm0 45385v32959c0 713 313 1326 890 1744 576 418 1256 524 1933 302 13299-4367 22291-21178 27049-34270 247-680 155-1376-260-1969-417-594-1040-918-1763-918h-25696c-1185 0-2153 967-2153 2152zm-7175 32959v-32959c0-1185-967-2152-2152-2152H62924c-723 0-1346 324-1762 918-415 593-508 1289-260 1969 4758 13092 13748 29902 27047 34270 676 222 1356 116 1933-302 578-418 890-1031 890-1744zm0-44438v-33906c0-1185-967-2153-2152-2153H54806c-604 0-1126 221-1546 655s-625 962-605 1565c394 12331 2041 23957 4682 34369 245 966 1088 1623 2085 1623h29198c1185 0 2152-968 2152-2153zm0-45386V54713c0-1185-967-2152-2152-2152H59422c-997 0-1840 656-2085 1623-2640 10413-4288 22038-4682 34368-20 604 185 1131 605 1566 420 434 942 654 1546 654h33814c1185 0 2152-967 2152-2152zm0-45385V10275c0-713-312-1326-889-1743-577-419-1258-524-1933-302-13301 4368-22287 21177-27047 34270-248 680-156 1376 259 1969 416 594 1039 917 1762 917h25696c1185 0 2152-966 2152-2151z"></path>
  </symbol>
  <symbol fill-rule="nonzero" viewBox="0 0 2943 2943" id="website--demo">
    <path d="M543 0h250c136 0 136 217 0 217H543c-89 0-171 37-230 96s-96 140-96 230v1857c0 90 37 171 96 230s141 96 230 96h1857c90 0 171-37 230-96s96-140 96-230v-257c0-136 217-136 217 0v257c0 150-61 285-159 384-99 98-234 159-384 159H543c-149 0-285-61-383-159-99-99-160-234-160-384V543c0-150 61-285 160-384C258 61 394 0 543 0zm2183 1301V371L1243 1854c-20 19-47 32-77 32-60 0-108-49-108-109 0-30 12-57 31-77L2572 217h-930c-60 0-109-48-109-108S1582 0 1642 0h1193c60 0 108 49 108 109v1192c0 60-48 109-108 109s-109-49-109-109z"></path>
  </symbol>
</svg>